M48
; DRILL file KiCad 10.0.3 date 2026-09-06T18:49:22
; FORMAT={-:-/ absolute / metric / decimal}
; #@! TF.CreationDate,2026-09-06T18:49:22+02:00
; #@! TF.GenerationSoftware,Kicad,Pcbnew,10.0.3
; #@! TF.FileFunction,MixedPlating,1,6
FMAT,2
METRIC
; #@! TA.AperFunction,Plated,PTH,ViaDrill
T1C0.250
%
G90
G05
T1
X128.776Y-46.145
X128.776Y-48.521
X128.776Y-49.976
X128.776Y-51.891
X128.776Y-53.391
X128.776Y-55.131
X128.776Y-56.661
X128.776Y-58.521
X128.776Y-59.926
X128.776Y-63.046
X128.776Y-64.041
X128.776Y-72.481
X128.776Y-74.371
X128.776Y-76.761
X128.776Y-78.261
X128.776Y-80.121
X128.776Y-81.536
X128.776Y-82.821
X128.78Y-65.516
X128.78Y-67.516
X128.78Y-69.516
X128.78Y-71.516
X128.786Y-45.621
X128.805Y-61.366
X129.12Y-46.596
X129.225Y-79.771
X129.29Y-58.961
X129.337Y-72.751
X129.365Y-60.636
X129.375Y-62.036
X129.48Y-80.481
X129.64Y-72.261
X129.71Y-71.516
X129.725Y-70.936
X129.975Y-77.006
X130.115Y-44.966
X130.13Y-44.046
X130.335Y-82.821
X130.36Y-70.081
X130.404Y-65.437
X130.465Y-68.221
X130.49Y-64.651
X130.605Y-51.716
X130.605Y-52.421
X130.751Y-65.929
X130.775Y-81.191
X130.885Y-45.371
X130.89Y-44.666
X130.89Y-46.086
X130.905Y-52.071
X130.95Y-68.566
X130.996Y-61.683
X131.05Y-60.151
X131.185Y-45.726
X131.19Y-45.021
X131.19Y-46.441
X131.195Y-51.716
X131.195Y-52.421
X131.315Y-65.676
X131.335Y-56.801
X131.355Y-65.126
X131.365Y-68.036
X131.37Y-54.046
X131.459Y-61.391
X131.505Y-60.551
X131.705Y-64.676
X131.737Y-78.108
X131.755Y-51.726
X131.755Y-52.431
X131.795Y-50.091
X131.82Y-59.591
X131.956Y-79.458
X132.055Y-52.081
X132.095Y-59.031
X132.125Y-48.351
X132.13Y-72.651
X132.15Y-82.821
X132.175Y-71.266
X132.175Y-76.011
X132.23Y-57.571
X132.345Y-51.726
X132.345Y-52.431
X132.395Y-81.191
X132.615Y-44.536
X132.62Y-43.916
X132.705Y-46.721
X132.785Y-49.171
X132.87Y-47.766
X132.875Y-57.931
X133.09Y-47.256
X133.153Y-57.456
X133.155Y-72.676
X133.365Y-68.486
X133.43Y-61.756
X133.441Y-79.268
X133.47Y-76.831
X133.68Y-57.456
X133.715Y-45.866
X133.743Y-47.256
X133.745Y-82.821
X133.945Y-47.771
X133.96Y-57.936
X134.06Y-46.721
X134.125Y-66.476
X134.155Y-69.121
X134.187Y-48.286
X134.208Y-63.325
X134.217Y-61.791
X134.219Y-62.592
X134.23Y-48.991
X134.237Y-65.762
X134.31Y-80.111
X134.31Y-80.701
X134.4Y-47.331
X134.45Y-46.316
X134.47Y-45.506
X134.7Y-73.251
X134.7Y-75.001
X134.71Y-78.991
X134.715Y-71.111
X134.715Y-71.946
X134.72Y-72.681
X134.855Y-58.071
X134.9Y-56.921
X134.91Y-74.466
X134.92Y-57.501
X134.94Y-64.97
X134.972Y-61.801
X135.007Y-62.566
X135.01Y-65.796
X135.015Y-66.616
X135.015Y-63.397
X135.02Y-60.985
X135.05Y-75.451
X135.25Y-76.296
X135.345Y-52.911
X135.355Y-52.216
X135.365Y-51.476
X135.375Y-54.951
X135.68Y-71.376
X135.69Y-71.986
X135.818Y-61.812
X135.82Y-67.521
X135.825Y-79.214
X135.845Y-64.976
X135.846Y-65.802
X135.86Y-64.105
X135.889Y-63.393
X136.01Y-76.051
X136.095Y-78.251
X136.12Y-82.821
X136.2Y-68.071
X136.265Y-80.081
X136.285Y-59.371
X136.335Y-81.671
X136.4Y-79.221
X136.55Y-78.266
X136.6Y-63.36
X136.6Y-75.731
X136.647Y-61.806
X136.82Y-47.231
X136.835Y-57.696
X136.945Y-76.161
X136.99Y-57.006
X137.01Y-68.526
X137.015Y-80.786
X137.065Y-51.241
X137.085Y-79.881
X137.32Y-75.786
X137.417Y-64.247
X137.525Y-61.666
X137.575Y-72.101
X137.6Y-46.506
X137.605Y-78.246
X137.675Y-51.386
X137.695Y-47.231
X137.725Y-52.016
X137.81Y-67.526
X137.82Y-70.131
X137.84Y-69.326
X137.94Y-54.961
X137.97Y-71.641
X137.99Y-73.301
X138.085Y-46.856
X138.095Y-53.076
X138.105Y-79.881
X138.108Y-61.873
X138.125Y-72.411
X138.194Y-64.222
X138.215Y-60.186
X138.224Y-62.614
X138.244Y-49.054
X138.245Y-49.686
X138.365Y-51.251
X138.48Y-54.951
X138.51Y-47.206
X138.595Y-77.126
X138.625Y-67.501
X138.99Y-64.169
X139.025Y-44.031
X139.45Y-68.376
X139.46Y-44.406
X139.745Y-44.856
X139.805Y-67.778
X140.25Y-44.476
X140.305Y-56.371
X140.315Y-57.286
X140.325Y-64.376
X140.345Y-63.806
X140.464Y-68.947
X140.52Y-45.561
X140.68Y-44.836
X140.81Y-71.636
X140.93Y-64.121
X141.28Y-65.961
X141.285Y-46.276
X141.332Y-45.636
X141.335Y-72.711
X141.37Y-44.861
X141.39Y-79.426
X141.395Y-71.656
X141.595Y-64.136
X141.75Y-73.136
X141.76Y-59.191
X141.785Y-80.796
X142.09Y-66.551
X142.19Y-59.736
X142.285Y-64.296
X142.32Y-78.446
X142.395Y-81.671
X142.42Y-79.321
X142.43Y-52.116
X142.44Y-51.546
X142.585Y-44.456
X142.595Y-45.286
X142.6Y-71.996
X142.6Y-72.446
X142.601Y-72.876
X142.601Y-73.306
X142.635Y-82.821
X142.725Y-59.171
X142.73Y-54.276
X142.765Y-70.726
X142.79Y-80.101
X142.845Y-81.226
X142.845Y-82.211
X142.96Y-77.856
X142.965Y-60.401
X142.98Y-45.676
X143.015Y-46.226
X143.075Y-68.666
X143.135Y-44.461
X143.225Y-57.237
X143.391Y-49.876
X143.43Y-70.156
X143.45Y-67.451
X143.675Y-59.451
X143.865Y-61.646
X143.9Y-62.311
X143.995Y-67.831
X144.07Y-82.821
X144.095Y-68.411
X144.225Y-78.731
X144.23Y-45.426
X144.25Y-68.986
X144.286Y-46.368
X144.305Y-44.451
X144.375Y-61.791
X144.47Y-77.471
X144.52Y-79.991
X144.695Y-62.811
X144.7Y-51.906
X144.7Y-52.406
X144.705Y-49.876
X144.737Y-59.245
X144.751Y-54.321
X144.79Y-57.071
X144.82Y-46.901
X144.83Y-70.176
X144.88Y-46.351
X144.93Y-82.406
X144.945Y-59.911
X144.96Y-54.936
X144.97Y-55.651
X144.975Y-56.421
X145.27Y-76.271
X145.275Y-80.891
X145.505Y-48.731
X145.575Y-66.511
X145.63Y-77.471
X145.825Y-79.551
X145.825Y-80.196
X145.825Y-80.821
X145.915Y-78.931
X146.0Y-82.821
X146.03Y-49.056
X146.14Y-70.081
X146.185Y-65.836
X146.205Y-78.366
X146.4Y-82.361
X146.405Y-58.311
X146.452Y-49.55
X146.565Y-75.731
X146.575Y-69.701
X146.68Y-77.926
X146.891Y-72.369
X146.891Y-72.959
X146.96Y-48.914
X147.005Y-79.896
X147.01Y-80.466
X147.025Y-81.046
X147.09Y-79.371
X147.1Y-65.946
X147.241Y-72.669
X147.25Y-77.691
X147.295Y-82.821
X147.32Y-55.376
X147.33Y-66.426
X147.372Y-49.351
X147.372Y-49.826
X147.41Y-69.941
X147.415Y-78.981
X147.417Y-50.486
X147.495Y-80.686
X147.58Y-46.526
X147.58Y-47.526
X147.596Y-72.369
X147.596Y-72.959
X147.82Y-75.666
X147.84Y-77.626
X147.88Y-77.111
X147.92Y-68.911
X147.925Y-79.326
X147.94Y-78.826
X147.995Y-79.951
X148.0Y-74.311
X148.035Y-48.876
X148.035Y-65.406
X148.315Y-63.371
X148.39Y-68.556
X148.527Y-81.646
X148.56Y-48.551
X148.64Y-65.781
X149.027Y-48.876
X149.415Y-68.511
X149.53Y-48.576
X149.747Y-57.75
X149.925Y-45.676
X149.96Y-81.031
X149.97Y-58.901
X149.976Y-47.466
X149.976Y-49.026
X149.976Y-50.941
X149.976Y-53.251
X149.976Y-55.041
X149.976Y-56.246
X149.976Y-57.236
X149.976Y-60.161
X149.976Y-63.131
X149.976Y-64.661
X149.976Y-66.356
X149.976Y-67.906
X149.976Y-69.406
X149.976Y-80.061
X149.976Y-82.261
X149.976Y-82.821
X149.976Y-61.938
M30
