%TF.GenerationSoftware,KiCad,Pcbnew,10.0.3*%
%TF.CreationDate,2026-09-06T18:49:29+02:00*%
%TF.ProjectId,LEVIA_H7_M2,4c455649-415f-4483-975f-4d322e6b6963,0.1*%
%TF.SameCoordinates,Original*%
%TF.FileFunction,Legend,Bot*%
%TF.FilePolarity,Positive*%
%FSLAX46Y46*%
G04 Gerber Fmt 4.6, Leading zero omitted, Abs format (unit mm)*
G04 Created by KiCad (PCBNEW 10.0.3) date 2026-09-06 18:49:29*
%MOMM*%
%LPD*%
G01*
G04 APERTURE LIST*
%ADD10C,0.010000*%
%ADD11C,0.150000*%
%ADD12C,0.060000*%
%ADD13C,0.120000*%
%ADD14C,0.100000*%
G04 APERTURE END LIST*
D10*
%TO.C,REF\u002A\u002A*%
X143748762Y-80843263D02*
X143691285Y-80860824D01*
X143654278Y-80883013D01*
X143642223Y-80900560D01*
X143645541Y-80921360D01*
X143667071Y-80954037D01*
X143685276Y-80977180D01*
X143722806Y-81019020D01*
X143751002Y-81036623D01*
X143775039Y-81035474D01*
X143846342Y-81017328D01*
X143898708Y-81018152D01*
X143941232Y-81038716D01*
X143955508Y-81050752D01*
X144001203Y-81093101D01*
X144001203Y-81646144D01*
X144185019Y-81646144D01*
X144185019Y-80844039D01*
X144093111Y-80844039D01*
X144037931Y-80846221D01*
X144009462Y-80853969D01*
X144001207Y-80869086D01*
X144001203Y-80869534D01*
X143997305Y-80885367D01*
X143979676Y-80883302D01*
X143955249Y-80871879D01*
X143904800Y-80850623D01*
X143863834Y-80837834D01*
X143811122Y-80834556D01*
X143748762Y-80843263D01*
G36*
X143863834Y-80837834D02*
G01*
X143904800Y-80850623D01*
X143955249Y-80871879D01*
X143979676Y-80883302D01*
X143997305Y-80885367D01*
X144001203Y-80869534D01*
X144001207Y-80869086D01*
X144009462Y-80853969D01*
X144037931Y-80846221D01*
X144093111Y-80844039D01*
X144185019Y-80844039D01*
X144185019Y-81646144D01*
X144001203Y-81646144D01*
X144001203Y-81093101D01*
X143955508Y-81050752D01*
X143941232Y-81038716D01*
X143898708Y-81018152D01*
X143846342Y-81017328D01*
X143775039Y-81035474D01*
X143751002Y-81036623D01*
X143722806Y-81019020D01*
X143685276Y-80977180D01*
X143667071Y-80954037D01*
X143645541Y-80921360D01*
X143642223Y-80900560D01*
X143654278Y-80883013D01*
X143691285Y-80860824D01*
X143748762Y-80843263D01*
X143811122Y-80834556D01*
X143863834Y-80837834D01*
G37*
X143966983Y-82097065D02*
X143902742Y-82109730D01*
X143866170Y-82128482D01*
X143827697Y-82159635D01*
X143882433Y-82228745D01*
X143916181Y-82270597D01*
X143939097Y-82291016D01*
X143961871Y-82294135D01*
X143995194Y-82284090D01*
X144010836Y-82278407D01*
X144074608Y-82270022D01*
X144133010Y-82287996D01*
X144175886Y-82328600D01*
X144182851Y-82341547D01*
X144190437Y-82375842D01*
X144196291Y-82439045D01*
X144200139Y-82526678D01*
X144201707Y-82634258D01*
X144201729Y-82649562D01*
X144201729Y-82916144D01*
X144385545Y-82916144D01*
X144385545Y-82097328D01*
X144293637Y-82097328D01*
X144240643Y-82098712D01*
X144213035Y-82104870D01*
X144202826Y-82118812D01*
X144201729Y-82131962D01*
X144201729Y-82166596D01*
X144157700Y-82131962D01*
X144107213Y-82108334D01*
X144039390Y-82096651D01*
X143966983Y-82097065D01*
G36*
X144107213Y-82108334D02*
G01*
X144157700Y-82131962D01*
X144201729Y-82166596D01*
X144201729Y-82131962D01*
X144202826Y-82118812D01*
X144213035Y-82104870D01*
X144240643Y-82098712D01*
X144293637Y-82097328D01*
X144385545Y-82097328D01*
X144385545Y-82916144D01*
X144201729Y-82916144D01*
X144201729Y-82649562D01*
X144201707Y-82634258D01*
X144200139Y-82526678D01*
X144196291Y-82439045D01*
X144190437Y-82375842D01*
X144182851Y-82341547D01*
X144175886Y-82328600D01*
X144133010Y-82287996D01*
X144074608Y-82270022D01*
X144010836Y-82278407D01*
X143995194Y-82284090D01*
X143961871Y-82294135D01*
X143939097Y-82291016D01*
X143916181Y-82270597D01*
X143882433Y-82228745D01*
X143827697Y-82159635D01*
X143866170Y-82128482D01*
X143902742Y-82109730D01*
X143966983Y-82097065D01*
X144039390Y-82096651D01*
X144107213Y-82108334D01*
G37*
X147460269Y-82099104D02*
X147435262Y-82106600D01*
X147427200Y-82123069D01*
X147426861Y-82130504D01*
X147425414Y-82151212D01*
X147415452Y-82154463D01*
X147388538Y-82140266D01*
X147372552Y-82130566D01*
X147322117Y-82109793D01*
X147261878Y-82099522D01*
X147198716Y-82098732D01*
X147139513Y-82106404D01*
X147091148Y-82121516D01*
X147060504Y-82143050D01*
X147054461Y-82169984D01*
X147057511Y-82177278D01*
X147079744Y-82207555D01*
X147114220Y-82244793D01*
X147120456Y-82250813D01*
X147153317Y-82278493D01*
X147181670Y-82287436D01*
X147221323Y-82281194D01*
X147237208Y-82277047D01*
X147286641Y-82267085D01*
X147321398Y-82271565D01*
X147350750Y-82287364D01*
X147377637Y-82308567D01*
X147397440Y-82335232D01*
X147411202Y-82372445D01*
X147419966Y-82425291D01*
X147424776Y-82498855D01*
X147426676Y-82598223D01*
X147426861Y-82658219D01*
X147426861Y-82916144D01*
X147593966Y-82916144D01*
X147593966Y-82097328D01*
X147510414Y-82097328D01*
X147460269Y-82099104D01*
G36*
X147593966Y-82916144D02*
G01*
X147426861Y-82916144D01*
X147426861Y-82658219D01*
X147426676Y-82598223D01*
X147424776Y-82498855D01*
X147419966Y-82425291D01*
X147411202Y-82372445D01*
X147397440Y-82335232D01*
X147377637Y-82308567D01*
X147350750Y-82287364D01*
X147321398Y-82271565D01*
X147286641Y-82267085D01*
X147237208Y-82277047D01*
X147221323Y-82281194D01*
X147181670Y-82287436D01*
X147153317Y-82278493D01*
X147120456Y-82250813D01*
X147114220Y-82244793D01*
X147079744Y-82207555D01*
X147057511Y-82177278D01*
X147054461Y-82169984D01*
X147060504Y-82143050D01*
X147091148Y-82121516D01*
X147139513Y-82106404D01*
X147198716Y-82098732D01*
X147261878Y-82099522D01*
X147322117Y-82109793D01*
X147372552Y-82130566D01*
X147388538Y-82140266D01*
X147415452Y-82154463D01*
X147425414Y-82151212D01*
X147426861Y-82130504D01*
X147427200Y-82123069D01*
X147435262Y-82106600D01*
X147460269Y-82099104D01*
X147510414Y-82097328D01*
X147593966Y-82097328D01*
X147593966Y-82916144D01*
G37*
X144820019Y-81104151D02*
X144818440Y-81226707D01*
X144812669Y-81319797D01*
X144801159Y-81387269D01*
X144782360Y-81432973D01*
X144754724Y-81460757D01*
X144716702Y-81474472D01*
X144669624Y-81477976D01*
X144620318Y-81474050D01*
X144582867Y-81459707D01*
X144555722Y-81431096D01*
X144537335Y-81384369D01*
X144526157Y-81315676D01*
X144520639Y-81221168D01*
X144519229Y-81104151D01*
X144519229Y-80844039D01*
X144335414Y-80844039D01*
X144335414Y-81646144D01*
X144427322Y-81646144D01*
X144482728Y-81643899D01*
X144511259Y-81636014D01*
X144519229Y-81621046D01*
X144524030Y-81607715D01*
X144543136Y-81610535D01*
X144581646Y-81629401D01*
X144669911Y-81658505D01*
X144763527Y-81656443D01*
X144853229Y-81624839D01*
X144895946Y-81599875D01*
X144928529Y-81572844D01*
X144952333Y-81539023D01*
X144968711Y-81493686D01*
X144979019Y-81432107D01*
X144984609Y-81349561D01*
X144986838Y-81241323D01*
X144987124Y-81157622D01*
X144987124Y-80844039D01*
X144820019Y-80844039D01*
X144820019Y-81104151D01*
G36*
X144519229Y-81104151D02*
G01*
X144520639Y-81221168D01*
X144526157Y-81315676D01*
X144537335Y-81384369D01*
X144555722Y-81431096D01*
X144582867Y-81459707D01*
X144620318Y-81474050D01*
X144669624Y-81477976D01*
X144716702Y-81474472D01*
X144754724Y-81460757D01*
X144782360Y-81432973D01*
X144801159Y-81387269D01*
X144812669Y-81319797D01*
X144818440Y-81226707D01*
X144820019Y-81104151D01*
X144820019Y-80844039D01*
X144987124Y-80844039D01*
X144987124Y-81157622D01*
X144986838Y-81241323D01*
X144984609Y-81349561D01*
X144979019Y-81432107D01*
X144968711Y-81493686D01*
X144952333Y-81539023D01*
X144928529Y-81572844D01*
X144895946Y-81599875D01*
X144853229Y-81624839D01*
X144763527Y-81656443D01*
X144669911Y-81658505D01*
X144581646Y-81629401D01*
X144543136Y-81610535D01*
X144524030Y-81607715D01*
X144519229Y-81621046D01*
X144511259Y-81636014D01*
X144482728Y-81643899D01*
X144427322Y-81646144D01*
X144335414Y-81646144D01*
X144335414Y-80844039D01*
X144519229Y-80844039D01*
X144519229Y-81104151D01*
G37*
X147142193Y-80857844D02*
X147100604Y-80877708D01*
X147060325Y-80906402D01*
X147029640Y-80939427D01*
X147007289Y-80981549D01*
X146992014Y-81037533D01*
X146982558Y-81112146D01*
X146977663Y-81210153D01*
X146976069Y-81336320D01*
X146976044Y-81349532D01*
X146975677Y-81646144D01*
X147159493Y-81646144D01*
X147159493Y-81372699D01*
X147159623Y-81271395D01*
X147160529Y-81197971D01*
X147162977Y-81146889D01*
X147167736Y-81112608D01*
X147175576Y-81089589D01*
X147187265Y-81072291D01*
X147203548Y-81055199D01*
X147260516Y-81018475D01*
X147322705Y-81011660D01*
X147381951Y-81034879D01*
X147402555Y-81052161D01*
X147417680Y-81068409D01*
X147428540Y-81085809D01*
X147435840Y-81109830D01*
X147440287Y-81145940D01*
X147442586Y-81199606D01*
X147443446Y-81276298D01*
X147443572Y-81369661D01*
X147443572Y-81646144D01*
X147627387Y-81646144D01*
X147627387Y-80844039D01*
X147535479Y-80844039D01*
X147480299Y-80846221D01*
X147451830Y-80853969D01*
X147443575Y-80869086D01*
X147443572Y-80869534D01*
X147439742Y-80884338D01*
X147422849Y-80882658D01*
X147389262Y-80866391D01*
X147313087Y-80842458D01*
X147225950Y-80839796D01*
X147142193Y-80857844D01*
G36*
X147313087Y-80842458D02*
G01*
X147389262Y-80866391D01*
X147422849Y-80882658D01*
X147439742Y-80884338D01*
X147443572Y-80869534D01*
X147443575Y-80869086D01*
X147451830Y-80853969D01*
X147480299Y-80846221D01*
X147535479Y-80844039D01*
X147627387Y-80844039D01*
X147627387Y-81646144D01*
X147443572Y-81646144D01*
X147443572Y-81369661D01*
X147443446Y-81276298D01*
X147442586Y-81199606D01*
X147440287Y-81145940D01*
X147435840Y-81109830D01*
X147428540Y-81085809D01*
X147417680Y-81068409D01*
X147402555Y-81052161D01*
X147381951Y-81034879D01*
X147322705Y-81011660D01*
X147260516Y-81018475D01*
X147203548Y-81055199D01*
X147187265Y-81072291D01*
X147175576Y-81089589D01*
X147167736Y-81112608D01*
X147162977Y-81146889D01*
X147160529Y-81197971D01*
X147159623Y-81271395D01*
X147159493Y-81372699D01*
X147159493Y-81646144D01*
X146975677Y-81646144D01*
X146976044Y-81349532D01*
X146976069Y-81336320D01*
X146977663Y-81210153D01*
X146982558Y-81112146D01*
X146992014Y-81037533D01*
X147007289Y-80981549D01*
X147029640Y-80939427D01*
X147060325Y-80906402D01*
X147100604Y-80877708D01*
X147142193Y-80857844D01*
X147225950Y-80839796D01*
X147313087Y-80842458D01*
G37*
X143193574Y-80851037D02*
X143096755Y-80892167D01*
X143066260Y-80912189D01*
X143027285Y-80942958D01*
X143002819Y-80967151D01*
X142998572Y-80975031D01*
X143010566Y-80992517D01*
X143041263Y-81022188D01*
X143065838Y-81042897D01*
X143133104Y-81096954D01*
X143186220Y-81052260D01*
X143227266Y-81023407D01*
X143267287Y-81013447D01*
X143313091Y-81015879D01*
X143385826Y-81033963D01*
X143435894Y-81071499D01*
X143466321Y-81132180D01*
X143480133Y-81219699D01*
X143480137Y-81219754D01*
X143478942Y-81317576D01*
X143460378Y-81389348D01*
X143423346Y-81438213D01*
X143398100Y-81454761D01*
X143331053Y-81475367D01*
X143259441Y-81475380D01*
X143197135Y-81455386D01*
X143182387Y-81445618D01*
X143145400Y-81420665D01*
X143116482Y-81416576D01*
X143085294Y-81435148D01*
X143050814Y-81468505D01*
X142996238Y-81524814D01*
X143056832Y-81574760D01*
X143150452Y-81631131D01*
X143256025Y-81658911D01*
X143366352Y-81656900D01*
X143438807Y-81638480D01*
X143523494Y-81592928D01*
X143591223Y-81521268D01*
X143621993Y-81470684D01*
X143646914Y-81398106D01*
X143659384Y-81306187D01*
X143659480Y-81206566D01*
X143647280Y-81110885D01*
X143622860Y-81030787D01*
X143619014Y-81022574D01*
X143562057Y-80942031D01*
X143484941Y-80883389D01*
X143393760Y-80847865D01*
X143294607Y-80836675D01*
X143193574Y-80851037D01*
G36*
X143393760Y-80847865D02*
G01*
X143484941Y-80883389D01*
X143562057Y-80942031D01*
X143619014Y-81022574D01*
X143622860Y-81030787D01*
X143647280Y-81110885D01*
X143659480Y-81206566D01*
X143659384Y-81306187D01*
X143646914Y-81398106D01*
X143621993Y-81470684D01*
X143591223Y-81521268D01*
X143523494Y-81592928D01*
X143438807Y-81638480D01*
X143366352Y-81656900D01*
X143256025Y-81658911D01*
X143150452Y-81631131D01*
X143056832Y-81574760D01*
X142996238Y-81524814D01*
X143050814Y-81468505D01*
X143085294Y-81435148D01*
X143116482Y-81416576D01*
X143145400Y-81420665D01*
X143182387Y-81445618D01*
X143197135Y-81455386D01*
X143259441Y-81475380D01*
X143331053Y-81475367D01*
X143398100Y-81454761D01*
X143423346Y-81438213D01*
X143460378Y-81389348D01*
X143478942Y-81317576D01*
X143480137Y-81219754D01*
X143480133Y-81219699D01*
X143466321Y-81132180D01*
X143435894Y-81071499D01*
X143385826Y-81033963D01*
X143313091Y-81015879D01*
X143267287Y-81013447D01*
X143227266Y-81023407D01*
X143186220Y-81052260D01*
X143133104Y-81096954D01*
X143065838Y-81042897D01*
X143041263Y-81022188D01*
X143010566Y-80992517D01*
X142998572Y-80975031D01*
X143002819Y-80967151D01*
X143027285Y-80942958D01*
X143066260Y-80912189D01*
X143096755Y-80892167D01*
X143193574Y-80851037D01*
X143294607Y-80836675D01*
X143393760Y-80847865D01*
G37*
X145328481Y-80853928D02*
X145243958Y-80899958D01*
X145177829Y-80972624D01*
X145146672Y-81031724D01*
X145133295Y-81083923D01*
X145124628Y-81158337D01*
X145120913Y-81244060D01*
X145122396Y-81330187D01*
X145129319Y-81405811D01*
X145137405Y-81446202D01*
X145164685Y-81501458D01*
X145211930Y-81560148D01*
X145268868Y-81611470D01*
X145325226Y-81644623D01*
X145326600Y-81645149D01*
X145396534Y-81659636D01*
X145479413Y-81659995D01*
X145558173Y-81646806D01*
X145588584Y-81636235D01*
X145666911Y-81591819D01*
X145723007Y-81533625D01*
X145759864Y-81456583D01*
X145780470Y-81355619D01*
X145785132Y-81302734D01*
X145784537Y-81236281D01*
X145605414Y-81236281D01*
X145599380Y-81333248D01*
X145582012Y-81407141D01*
X145554410Y-81454354D01*
X145534746Y-81467855D01*
X145484363Y-81477269D01*
X145424477Y-81474482D01*
X145372701Y-81460934D01*
X145359123Y-81453480D01*
X145323301Y-81410069D01*
X145299657Y-81343632D01*
X145289592Y-81262779D01*
X145294508Y-81176120D01*
X145305495Y-81123967D01*
X145337041Y-81063569D01*
X145386839Y-81025815D01*
X145446813Y-81012761D01*
X145508886Y-81026467D01*
X145556568Y-81059990D01*
X145581625Y-81087649D01*
X145596250Y-81114912D01*
X145603221Y-81151808D01*
X145605317Y-81208368D01*
X145605414Y-81236281D01*
X145784537Y-81236281D01*
X145783868Y-81161612D01*
X145760885Y-81045889D01*
X145716178Y-80955559D01*
X145649745Y-80890618D01*
X145561585Y-80851063D01*
X145542655Y-80846476D01*
X145428884Y-80835708D01*
X145328481Y-80853928D01*
G36*
X145785132Y-81302734D02*
G01*
X145780470Y-81355619D01*
X145759864Y-81456583D01*
X145723007Y-81533625D01*
X145666911Y-81591819D01*
X145588584Y-81636235D01*
X145558173Y-81646806D01*
X145479413Y-81659995D01*
X145396534Y-81659636D01*
X145326600Y-81645149D01*
X145325226Y-81644623D01*
X145268868Y-81611470D01*
X145211930Y-81560148D01*
X145164685Y-81501458D01*
X145137405Y-81446202D01*
X145129319Y-81405811D01*
X145122396Y-81330187D01*
X145121235Y-81262779D01*
X145289592Y-81262779D01*
X145299657Y-81343632D01*
X145323301Y-81410069D01*
X145359123Y-81453480D01*
X145372701Y-81460934D01*
X145424477Y-81474482D01*
X145484363Y-81477269D01*
X145534746Y-81467855D01*
X145554410Y-81454354D01*
X145582012Y-81407141D01*
X145599380Y-81333248D01*
X145605414Y-81236281D01*
X145605317Y-81208368D01*
X145603221Y-81151808D01*
X145596250Y-81114912D01*
X145581625Y-81087649D01*
X145556568Y-81059990D01*
X145508886Y-81026467D01*
X145446813Y-81012761D01*
X145386839Y-81025815D01*
X145337041Y-81063569D01*
X145305495Y-81123967D01*
X145294508Y-81176120D01*
X145289592Y-81262779D01*
X145121235Y-81262779D01*
X145120913Y-81244060D01*
X145124628Y-81158337D01*
X145133295Y-81083923D01*
X145146672Y-81031724D01*
X145177829Y-80972624D01*
X145243958Y-80899958D01*
X145328481Y-80853928D01*
X145428884Y-80835708D01*
X145542655Y-80846476D01*
X145561585Y-80851063D01*
X145649745Y-80890618D01*
X145716178Y-80955559D01*
X145760885Y-81045889D01*
X145783868Y-81161612D01*
X145784537Y-81236281D01*
X145785132Y-81302734D01*
G37*
X145766020Y-82100722D02*
X145699930Y-82105684D01*
X145613524Y-82364697D01*
X145527119Y-82623710D01*
X145500026Y-82531802D01*
X145483722Y-82475002D01*
X145462275Y-82398243D01*
X145439115Y-82313869D01*
X145426870Y-82268611D01*
X145380806Y-82097328D01*
X145190763Y-82097328D01*
X145247568Y-82276967D01*
X145275543Y-82365322D01*
X145309337Y-82471899D01*
X145344630Y-82583072D01*
X145376137Y-82682197D01*
X145447900Y-82907789D01*
X145602864Y-82917871D01*
X145644880Y-82779146D01*
X145670791Y-82692969D01*
X145699067Y-82597965D01*
X145723781Y-82514059D01*
X145724756Y-82510720D01*
X145743215Y-82453866D01*
X145759501Y-82415074D01*
X145770908Y-82400405D01*
X145773252Y-82402101D01*
X145781479Y-82424843D01*
X145797112Y-82473558D01*
X145818246Y-82542120D01*
X145842980Y-82624403D01*
X145856363Y-82669664D01*
X145928839Y-82916144D01*
X146082655Y-82916144D01*
X146205619Y-82527624D01*
X146240162Y-82418640D01*
X146271629Y-82319666D01*
X146298534Y-82235354D01*
X146319391Y-82170352D01*
X146332712Y-82129310D01*
X146336762Y-82117319D01*
X146333556Y-82105041D01*
X146308385Y-82099664D01*
X146256004Y-82100202D01*
X146247805Y-82100608D01*
X146150668Y-82105684D01*
X146087050Y-82339631D01*
X146063666Y-82424951D01*
X146042769Y-82499953D01*
X146026199Y-82558125D01*
X146015796Y-82592955D01*
X146013874Y-82598634D01*
X146005909Y-82592104D01*
X145989846Y-82558272D01*
X145967529Y-82501745D01*
X145940805Y-82427128D01*
X145918213Y-82359725D01*
X145832109Y-82095761D01*
X145766020Y-82100722D01*
G36*
X145918213Y-82359725D02*
G01*
X145940805Y-82427128D01*
X145967529Y-82501745D01*
X145989846Y-82558272D01*
X146005909Y-82592104D01*
X146013874Y-82598634D01*
X146015796Y-82592955D01*
X146026199Y-82558125D01*
X146042769Y-82499953D01*
X146063666Y-82424951D01*
X146087050Y-82339631D01*
X146150668Y-82105684D01*
X146247805Y-82100608D01*
X146256004Y-82100202D01*
X146308385Y-82099664D01*
X146333556Y-82105041D01*
X146336762Y-82117319D01*
X146332712Y-82129310D01*
X146319391Y-82170352D01*
X146298534Y-82235354D01*
X146271629Y-82319666D01*
X146240162Y-82418640D01*
X146205619Y-82527624D01*
X146082655Y-82916144D01*
X145928839Y-82916144D01*
X145856363Y-82669664D01*
X145842980Y-82624403D01*
X145818246Y-82542120D01*
X145797112Y-82473558D01*
X145781479Y-82424843D01*
X145773252Y-82402101D01*
X145770908Y-82400405D01*
X145759501Y-82415074D01*
X145743215Y-82453866D01*
X145724756Y-82510720D01*
X145723781Y-82514059D01*
X145699067Y-82597965D01*
X145670791Y-82692969D01*
X145644880Y-82779146D01*
X145602864Y-82917871D01*
X145447900Y-82907789D01*
X145376137Y-82682197D01*
X145344630Y-82583072D01*
X145309337Y-82471899D01*
X145275543Y-82365322D01*
X145247568Y-82276967D01*
X145190763Y-82097328D01*
X145380806Y-82097328D01*
X145426870Y-82268611D01*
X145439115Y-82313869D01*
X145462275Y-82398243D01*
X145483722Y-82475002D01*
X145500026Y-82531802D01*
X145527119Y-82623710D01*
X145613524Y-82364697D01*
X145699930Y-82105684D01*
X145766020Y-82100722D01*
X145832109Y-82095761D01*
X145918213Y-82359725D01*
G37*
X149513366Y-80852722D02*
X149425945Y-80891372D01*
X149359580Y-80955908D01*
X149314174Y-81046430D01*
X149289632Y-81163036D01*
X149287873Y-81181242D01*
X149286494Y-81309602D01*
X149304366Y-81422114D01*
X149340400Y-81513306D01*
X149359695Y-81542640D01*
X149426905Y-81604724D01*
X149512500Y-81644934D01*
X149608260Y-81661621D01*
X149705963Y-81653135D01*
X149780233Y-81626998D01*
X149844103Y-81582953D01*
X149896304Y-81525205D01*
X149897207Y-81523854D01*
X149918406Y-81488211D01*
X149932183Y-81452370D01*
X149940526Y-81407137D01*
X149945423Y-81343319D01*
X149947581Y-81290986D01*
X149948479Y-81243528D01*
X149781407Y-81243528D01*
X149779774Y-81290772D01*
X149773846Y-81353664D01*
X149763389Y-81394025D01*
X149744531Y-81422740D01*
X149726869Y-81439514D01*
X149664256Y-81474634D01*
X149598742Y-81479328D01*
X149537729Y-81454058D01*
X149507222Y-81425742D01*
X149485239Y-81397207D01*
X149472381Y-81369902D01*
X149466738Y-81334368D01*
X149466399Y-81281142D01*
X149468138Y-81232124D01*
X149471879Y-81162100D01*
X149477809Y-81116682D01*
X149488497Y-81087058D01*
X149506511Y-81064415D01*
X149520787Y-81051473D01*
X149580499Y-81017478D01*
X149644916Y-81015783D01*
X149698931Y-81035919D01*
X149745010Y-81077970D01*
X149772461Y-81147046D01*
X149781407Y-81243528D01*
X149948479Y-81243528D01*
X149949551Y-81186917D01*
X149946186Y-81109086D01*
X149936105Y-81050548D01*
X149917924Y-81004355D01*
X149890260Y-80963560D01*
X149880004Y-80951446D01*
X149815872Y-80891092D01*
X149747084Y-80855838D01*
X149662961Y-80841068D01*
X149621941Y-80839861D01*
X149513366Y-80852722D01*
G36*
X149947581Y-81290986D02*
G01*
X149945423Y-81343319D01*
X149940526Y-81407137D01*
X149932183Y-81452370D01*
X149918406Y-81488211D01*
X149897207Y-81523854D01*
X149896304Y-81525205D01*
X149844103Y-81582953D01*
X149780233Y-81626998D01*
X149705963Y-81653135D01*
X149608260Y-81661621D01*
X149512500Y-81644934D01*
X149426905Y-81604724D01*
X149359695Y-81542640D01*
X149340400Y-81513306D01*
X149304366Y-81422114D01*
X149286494Y-81309602D01*
X149286800Y-81281142D01*
X149466399Y-81281142D01*
X149466738Y-81334368D01*
X149472381Y-81369902D01*
X149485239Y-81397207D01*
X149507222Y-81425742D01*
X149537729Y-81454058D01*
X149598742Y-81479328D01*
X149664256Y-81474634D01*
X149726869Y-81439514D01*
X149744531Y-81422740D01*
X149763389Y-81394025D01*
X149773846Y-81353664D01*
X149779774Y-81290772D01*
X149781407Y-81243528D01*
X149772461Y-81147046D01*
X149745010Y-81077970D01*
X149698931Y-81035919D01*
X149644916Y-81015783D01*
X149580499Y-81017478D01*
X149520787Y-81051473D01*
X149506511Y-81064415D01*
X149488497Y-81087058D01*
X149477809Y-81116682D01*
X149471879Y-81162100D01*
X149468138Y-81232124D01*
X149466399Y-81281142D01*
X149286800Y-81281142D01*
X149287873Y-81181242D01*
X149289632Y-81163036D01*
X149314174Y-81046430D01*
X149359580Y-80955908D01*
X149425945Y-80891372D01*
X149513366Y-80852722D01*
X149621941Y-80839861D01*
X149662961Y-80841068D01*
X149747084Y-80855838D01*
X149815872Y-80891092D01*
X149880004Y-80951446D01*
X149890260Y-80963560D01*
X149917924Y-81004355D01*
X149936105Y-81050548D01*
X149946186Y-81109086D01*
X149949551Y-81186917D01*
X149948479Y-81243528D01*
X149947581Y-81290986D01*
G37*
X146407519Y-82916144D02*
X146499427Y-82916144D01*
X146552773Y-82914580D01*
X146580557Y-82908103D01*
X146590560Y-82894036D01*
X146591335Y-82884524D01*
X146593022Y-82865450D01*
X146603660Y-82861792D01*
X146631615Y-82873550D01*
X146653355Y-82884524D01*
X146736818Y-82910529D01*
X146827546Y-82912034D01*
X146901308Y-82892639D01*
X146969996Y-82845783D01*
X147022356Y-82776622D01*
X147051028Y-82695045D01*
X147051758Y-82690484D01*
X147056018Y-82640719D01*
X147058136Y-82569277D01*
X147057966Y-82515244D01*
X146875430Y-82515244D01*
X146871201Y-82587059D01*
X146861582Y-82646252D01*
X146848560Y-82679678D01*
X146799294Y-82725358D01*
X146740800Y-82741733D01*
X146680479Y-82728491D01*
X146628933Y-82688991D01*
X146609412Y-82662425D01*
X146597998Y-82630724D01*
X146592652Y-82584450D01*
X146591335Y-82514946D01*
X146593692Y-82446117D01*
X146599917Y-82385644D01*
X146608742Y-82345174D01*
X146610213Y-82341547D01*
X146645803Y-82298420D01*
X146697750Y-82274742D01*
X146755872Y-82270919D01*
X146809990Y-82287356D01*
X146849924Y-82324458D01*
X146854067Y-82331840D01*
X146867034Y-82376857D01*
X146874098Y-82441585D01*
X146875430Y-82515244D01*
X147057966Y-82515244D01*
X147057879Y-82487848D01*
X147056678Y-82444023D01*
X147048505Y-82335606D01*
X147031520Y-82254206D01*
X147003263Y-82194030D01*
X146961278Y-82149284D01*
X146920518Y-82123018D01*
X146863569Y-82104553D01*
X146792739Y-82098220D01*
X146720209Y-82103378D01*
X146658164Y-82119387D01*
X146625382Y-82138538D01*
X146591335Y-82169350D01*
X146591335Y-81779828D01*
X146407519Y-81779828D01*
X146407519Y-82916144D01*
G36*
X147058136Y-82569277D02*
G01*
X147056018Y-82640719D01*
X147051758Y-82690484D01*
X147051028Y-82695045D01*
X147022356Y-82776622D01*
X146969996Y-82845783D01*
X146901308Y-82892639D01*
X146827546Y-82912034D01*
X146736818Y-82910529D01*
X146653355Y-82884524D01*
X146631615Y-82873550D01*
X146603660Y-82861792D01*
X146593022Y-82865450D01*
X146591335Y-82884524D01*
X146590560Y-82894036D01*
X146580557Y-82908103D01*
X146552773Y-82914580D01*
X146499427Y-82916144D01*
X146407519Y-82916144D01*
X146407519Y-82514946D01*
X146591335Y-82514946D01*
X146592652Y-82584450D01*
X146597998Y-82630724D01*
X146609412Y-82662425D01*
X146628933Y-82688991D01*
X146680479Y-82728491D01*
X146740800Y-82741733D01*
X146799294Y-82725358D01*
X146848560Y-82679678D01*
X146861582Y-82646252D01*
X146871201Y-82587059D01*
X146875430Y-82515244D01*
X146874098Y-82441585D01*
X146867034Y-82376857D01*
X146854067Y-82331840D01*
X146849924Y-82324458D01*
X146809990Y-82287356D01*
X146755872Y-82270919D01*
X146697750Y-82274742D01*
X146645803Y-82298420D01*
X146610213Y-82341547D01*
X146608742Y-82345174D01*
X146599917Y-82385644D01*
X146593692Y-82446117D01*
X146591335Y-82514946D01*
X146407519Y-82514946D01*
X146407519Y-81779828D01*
X146591335Y-81779828D01*
X146591335Y-82169350D01*
X146625382Y-82138538D01*
X146658164Y-82119387D01*
X146720209Y-82103378D01*
X146792739Y-82098220D01*
X146863569Y-82104553D01*
X146920518Y-82123018D01*
X146961278Y-82149284D01*
X147003263Y-82194030D01*
X147031520Y-82254206D01*
X147048505Y-82335606D01*
X147056678Y-82444023D01*
X147057879Y-82487848D01*
X147057966Y-82515244D01*
X147058136Y-82569277D01*
G37*
X142581366Y-80841172D02*
X142538576Y-80851567D01*
X142456541Y-80889631D01*
X142386393Y-80947767D01*
X142337845Y-81017470D01*
X142331175Y-81033120D01*
X142322026Y-81074114D01*
X142315621Y-81134756D01*
X142313440Y-81196048D01*
X142313440Y-81311934D01*
X142555743Y-81311934D01*
X142655679Y-81312311D01*
X142726081Y-81314605D01*
X142770837Y-81320556D01*
X142793835Y-81331903D01*
X142798961Y-81350389D01*
X142790102Y-81377754D01*
X142774233Y-81409773D01*
X142729966Y-81463210D01*
X142668451Y-81489833D01*
X142593265Y-81488965D01*
X142508097Y-81459989D01*
X142434491Y-81424229D01*
X142373416Y-81472522D01*
X142312340Y-81520815D01*
X142369799Y-81573903D01*
X142446509Y-81624063D01*
X142540848Y-81654306D01*
X142642323Y-81662769D01*
X142740439Y-81647592D01*
X142756269Y-81642442D01*
X142842503Y-81597409D01*
X142906649Y-81530270D01*
X142950059Y-81439023D01*
X142974086Y-81321662D01*
X142974366Y-81319147D01*
X142976517Y-81191245D01*
X142967821Y-81145615D01*
X142798045Y-81145615D01*
X142782453Y-81152631D01*
X142740121Y-81158006D01*
X142677716Y-81161075D01*
X142638169Y-81161539D01*
X142564422Y-81161248D01*
X142518310Y-81159401D01*
X142494050Y-81154530D01*
X142485856Y-81145173D01*
X142487944Y-81129863D01*
X142489695Y-81123940D01*
X142519590Y-81068286D01*
X142566608Y-81023433D01*
X142608101Y-81003723D01*
X142663224Y-81004913D01*
X142719082Y-81029493D01*
X142765938Y-81070188D01*
X142794056Y-81119726D01*
X142798045Y-81145615D01*
X142967821Y-81145615D01*
X142955076Y-81078751D01*
X142912539Y-80984345D01*
X142851403Y-80910706D01*
X142774165Y-80860511D01*
X142683320Y-80836440D01*
X142581366Y-80841172D01*
G36*
X142976517Y-81191245D02*
G01*
X142974366Y-81319147D01*
X142974086Y-81321662D01*
X142950059Y-81439023D01*
X142906649Y-81530270D01*
X142842503Y-81597409D01*
X142756269Y-81642442D01*
X142740439Y-81647592D01*
X142642323Y-81662769D01*
X142540848Y-81654306D01*
X142446509Y-81624063D01*
X142369799Y-81573903D01*
X142312340Y-81520815D01*
X142373416Y-81472522D01*
X142434491Y-81424229D01*
X142508097Y-81459989D01*
X142593265Y-81488965D01*
X142668451Y-81489833D01*
X142729966Y-81463210D01*
X142774233Y-81409773D01*
X142790102Y-81377754D01*
X142798961Y-81350389D01*
X142793835Y-81331903D01*
X142770837Y-81320556D01*
X142726081Y-81314605D01*
X142655679Y-81312311D01*
X142555743Y-81311934D01*
X142313440Y-81311934D01*
X142313440Y-81196048D01*
X142315250Y-81145173D01*
X142485856Y-81145173D01*
X142494050Y-81154530D01*
X142518310Y-81159401D01*
X142564422Y-81161248D01*
X142638169Y-81161539D01*
X142677716Y-81161075D01*
X142740121Y-81158006D01*
X142782453Y-81152631D01*
X142798045Y-81145615D01*
X142794056Y-81119726D01*
X142765938Y-81070188D01*
X142719082Y-81029493D01*
X142663224Y-81004913D01*
X142608101Y-81003723D01*
X142566608Y-81023433D01*
X142519590Y-81068286D01*
X142489695Y-81123940D01*
X142487944Y-81129863D01*
X142485856Y-81145173D01*
X142315250Y-81145173D01*
X142315621Y-81134756D01*
X142322026Y-81074114D01*
X142331175Y-81033120D01*
X142337845Y-81017470D01*
X142386393Y-80947767D01*
X142456541Y-80889631D01*
X142538576Y-80851567D01*
X142581366Y-80841172D01*
X142683320Y-80836440D01*
X142774165Y-80860511D01*
X142851403Y-80910706D01*
X142912539Y-80984345D01*
X142955076Y-81078751D01*
X142967821Y-81145615D01*
X142976517Y-81191245D01*
G37*
X146121522Y-80841165D02*
X146058242Y-80853166D01*
X145992593Y-80878266D01*
X145985578Y-80881466D01*
X145935794Y-80907644D01*
X145901316Y-80931971D01*
X145890172Y-80947555D01*
X145900784Y-80972971D01*
X145926562Y-81010471D01*
X145938004Y-81024470D01*
X145985158Y-81079572D01*
X146045949Y-81043704D01*
X146103803Y-81019810D01*
X146170650Y-81007038D01*
X146234756Y-81006231D01*
X146284386Y-81018233D01*
X146296296Y-81025723D01*
X146318978Y-81060068D01*
X146321734Y-81099631D01*
X146304762Y-81130538D01*
X146294723Y-81136531D01*
X146264640Y-81143975D01*
X146211761Y-81152724D01*
X146146575Y-81161085D01*
X146134550Y-81162396D01*
X146029853Y-81180506D01*
X145953918Y-81211269D01*
X145903558Y-81257525D01*
X145875586Y-81322115D01*
X145866872Y-81401005D01*
X145878910Y-81490683D01*
X145917999Y-81561104D01*
X145984295Y-81612395D01*
X146077956Y-81644685D01*
X146181927Y-81657425D01*
X146266712Y-81657272D01*
X146335485Y-81645701D01*
X146382453Y-81629727D01*
X146441800Y-81601893D01*
X146496644Y-81569591D01*
X146516137Y-81555373D01*
X146566269Y-81514453D01*
X146445347Y-81392095D01*
X146376607Y-81437585D01*
X146307662Y-81471751D01*
X146234039Y-81489622D01*
X146163267Y-81491507D01*
X146102876Y-81477719D01*
X146060393Y-81448567D01*
X146046676Y-81423970D01*
X146048733Y-81384522D01*
X146082820Y-81354355D01*
X146148842Y-81333524D01*
X146221176Y-81323897D01*
X146332498Y-81305528D01*
X146415198Y-81270872D01*
X146470385Y-81218915D01*
X146499162Y-81148641D01*
X146503149Y-81065325D01*
X146483457Y-80978299D01*
X146438561Y-80912520D01*
X146368059Y-80867686D01*
X146271549Y-80843497D01*
X146200050Y-80838755D01*
X146121522Y-80841165D01*
G36*
X146271549Y-80843497D02*
G01*
X146368059Y-80867686D01*
X146438561Y-80912520D01*
X146483457Y-80978299D01*
X146503149Y-81065325D01*
X146499162Y-81148641D01*
X146470385Y-81218915D01*
X146415198Y-81270872D01*
X146332498Y-81305528D01*
X146221176Y-81323897D01*
X146148842Y-81333524D01*
X146082820Y-81354355D01*
X146048733Y-81384522D01*
X146046676Y-81423970D01*
X146060393Y-81448567D01*
X146102876Y-81477719D01*
X146163267Y-81491507D01*
X146234039Y-81489622D01*
X146307662Y-81471751D01*
X146376607Y-81437585D01*
X146445347Y-81392095D01*
X146566269Y-81514453D01*
X146516137Y-81555373D01*
X146496644Y-81569591D01*
X146441800Y-81601893D01*
X146382453Y-81629727D01*
X146335485Y-81645701D01*
X146266712Y-81657272D01*
X146181927Y-81657425D01*
X146077956Y-81644685D01*
X145984295Y-81612395D01*
X145917999Y-81561104D01*
X145878910Y-81490683D01*
X145866872Y-81401005D01*
X145875586Y-81322115D01*
X145903558Y-81257525D01*
X145953918Y-81211269D01*
X146029853Y-81180506D01*
X146134550Y-81162396D01*
X146146575Y-81161085D01*
X146211761Y-81152724D01*
X146264640Y-81143975D01*
X146294723Y-81136531D01*
X146304762Y-81130538D01*
X146321734Y-81099631D01*
X146318978Y-81060068D01*
X146296296Y-81025723D01*
X146284386Y-81018233D01*
X146234756Y-81006231D01*
X146170650Y-81007038D01*
X146103803Y-81019810D01*
X146045949Y-81043704D01*
X145985158Y-81079572D01*
X145938004Y-81024470D01*
X145926562Y-81010471D01*
X145900784Y-80972971D01*
X145890172Y-80947555D01*
X145901316Y-80931971D01*
X145935794Y-80907644D01*
X145985578Y-80881466D01*
X145992593Y-80878266D01*
X146058242Y-80853166D01*
X146121522Y-80841165D01*
X146200050Y-80838755D01*
X146271549Y-80843497D01*
G37*
X143438957Y-82101696D02*
X143359082Y-82122463D01*
X143292188Y-82165323D01*
X143259799Y-82197341D01*
X143206705Y-82273031D01*
X143176277Y-82360834D01*
X143165823Y-82468768D01*
X143165770Y-82477493D01*
X143165677Y-82565223D01*
X143670616Y-82565223D01*
X143659852Y-82611177D01*
X143640418Y-82652796D01*
X143606405Y-82696162D01*
X143599290Y-82703085D01*
X143538147Y-82740553D01*
X143468421Y-82746907D01*
X143388163Y-82722256D01*
X143374558Y-82715618D01*
X143332831Y-82695437D01*
X143304882Y-82683939D01*
X143300005Y-82682876D01*
X143282982Y-82693201D01*
X143250517Y-82718463D01*
X143234036Y-82732268D01*
X143199886Y-82763979D01*
X143188672Y-82784917D01*
X143196455Y-82804178D01*
X143200615Y-82809445D01*
X143228793Y-82832496D01*
X143275288Y-82860510D01*
X143307716Y-82876864D01*
X143399765Y-82905677D01*
X143501674Y-82915013D01*
X143598187Y-82903950D01*
X143625216Y-82896030D01*
X143708874Y-82851199D01*
X143770884Y-82782216D01*
X143811605Y-82688412D01*
X143831395Y-82569116D01*
X143833568Y-82506736D01*
X143827224Y-82415916D01*
X143666993Y-82415916D01*
X143651495Y-82422630D01*
X143609838Y-82427898D01*
X143549274Y-82431007D01*
X143508243Y-82431539D01*
X143434439Y-82431026D01*
X143387857Y-82428624D01*
X143362302Y-82423040D01*
X143351581Y-82412979D01*
X143349493Y-82398381D01*
X143363819Y-82353414D01*
X143399888Y-82308971D01*
X143447335Y-82274860D01*
X143494801Y-82260906D01*
X143559271Y-82273284D01*
X143615080Y-82309070D01*
X143653776Y-82360651D01*
X143666993Y-82415916D01*
X143827224Y-82415916D01*
X143824329Y-82374484D01*
X143795814Y-82269116D01*
X143747421Y-82189796D01*
X143678546Y-82135689D01*
X143588585Y-82105961D01*
X143539850Y-82100236D01*
X143438957Y-82101696D01*
G36*
X143833568Y-82506736D02*
G01*
X143831395Y-82569116D01*
X143811605Y-82688412D01*
X143770884Y-82782216D01*
X143708874Y-82851199D01*
X143625216Y-82896030D01*
X143598187Y-82903950D01*
X143501674Y-82915013D01*
X143399765Y-82905677D01*
X143307716Y-82876864D01*
X143275288Y-82860510D01*
X143228793Y-82832496D01*
X143200615Y-82809445D01*
X143196455Y-82804178D01*
X143188672Y-82784917D01*
X143199886Y-82763979D01*
X143234036Y-82732268D01*
X143250517Y-82718463D01*
X143282982Y-82693201D01*
X143300005Y-82682876D01*
X143304882Y-82683939D01*
X143332831Y-82695437D01*
X143374558Y-82715618D01*
X143388163Y-82722256D01*
X143468421Y-82746907D01*
X143538147Y-82740553D01*
X143599290Y-82703085D01*
X143606405Y-82696162D01*
X143640418Y-82652796D01*
X143659852Y-82611177D01*
X143670616Y-82565223D01*
X143165677Y-82565223D01*
X143165770Y-82477493D01*
X143165823Y-82468768D01*
X143172640Y-82398381D01*
X143349493Y-82398381D01*
X143351581Y-82412979D01*
X143362302Y-82423040D01*
X143387857Y-82428624D01*
X143434439Y-82431026D01*
X143508243Y-82431539D01*
X143549274Y-82431007D01*
X143609838Y-82427898D01*
X143651495Y-82422630D01*
X143666993Y-82415916D01*
X143653776Y-82360651D01*
X143615080Y-82309070D01*
X143559271Y-82273284D01*
X143494801Y-82260906D01*
X143447335Y-82274860D01*
X143399888Y-82308971D01*
X143363819Y-82353414D01*
X143349493Y-82398381D01*
X143172640Y-82398381D01*
X143176277Y-82360834D01*
X143206705Y-82273031D01*
X143259799Y-82197341D01*
X143292188Y-82165323D01*
X143359082Y-82122463D01*
X143438957Y-82101696D01*
X143539850Y-82100236D01*
X143588585Y-82105961D01*
X143678546Y-82135689D01*
X143747421Y-82189796D01*
X143795814Y-82269116D01*
X143824329Y-82374484D01*
X143827224Y-82415916D01*
X143833568Y-82506736D01*
G37*
X147943132Y-80862645D02*
X147926480Y-80870484D01*
X147868845Y-80912704D01*
X147814345Y-80974318D01*
X147773651Y-81042161D01*
X147762076Y-81073352D01*
X147751516Y-81129067D01*
X147745219Y-81196399D01*
X147744454Y-81224203D01*
X147744361Y-81311934D01*
X148249300Y-81311934D01*
X148238537Y-81357888D01*
X148212117Y-81412238D01*
X148165928Y-81459209D01*
X148110978Y-81489466D01*
X148075961Y-81495749D01*
X148028473Y-81488124D01*
X147971815Y-81469001D01*
X147952568Y-81460202D01*
X147881391Y-81424654D01*
X147820648Y-81470985D01*
X147785598Y-81502321D01*
X147766948Y-81528185D01*
X147766003Y-81535776D01*
X147782665Y-81554174D01*
X147819180Y-81582133D01*
X147852322Y-81603945D01*
X147941757Y-81643155D01*
X148042021Y-81660903D01*
X148141396Y-81656288D01*
X148220611Y-81632169D01*
X148302270Y-81580502D01*
X148360301Y-81512474D01*
X148396604Y-81424461D01*
X148413078Y-81312834D01*
X148414539Y-81261756D01*
X148408693Y-81144709D01*
X148407975Y-81141304D01*
X148240661Y-81141304D01*
X148236053Y-81152280D01*
X148217114Y-81158333D01*
X148178052Y-81160928D01*
X148113073Y-81161528D01*
X148088053Y-81161539D01*
X148011929Y-81160632D01*
X147963654Y-81157338D01*
X147937690Y-81150799D01*
X147928502Y-81140155D01*
X147928177Y-81136737D01*
X147938663Y-81109574D01*
X147964908Y-81071521D01*
X147976191Y-81058197D01*
X148018078Y-81020514D01*
X148061741Y-81005698D01*
X148085265Y-81004460D01*
X148148907Y-81019947D01*
X148202277Y-81061548D01*
X148236131Y-81121971D01*
X148236731Y-81123940D01*
X148240661Y-81141304D01*
X148407975Y-81141304D01*
X148389251Y-81052546D01*
X148354228Y-80978808D01*
X148311394Y-80926466D01*
X148232202Y-80869710D01*
X148139110Y-80839380D01*
X148040095Y-80836639D01*
X147943132Y-80862645D01*
G36*
X148408693Y-81144709D02*
G01*
X148414539Y-81261756D01*
X148413078Y-81312834D01*
X148396604Y-81424461D01*
X148360301Y-81512474D01*
X148302270Y-81580502D01*
X148220611Y-81632169D01*
X148141396Y-81656288D01*
X148042021Y-81660903D01*
X147941757Y-81643155D01*
X147852322Y-81603945D01*
X147819180Y-81582133D01*
X147782665Y-81554174D01*
X147766003Y-81535776D01*
X147766948Y-81528185D01*
X147785598Y-81502321D01*
X147820648Y-81470985D01*
X147881391Y-81424654D01*
X147952568Y-81460202D01*
X147971815Y-81469001D01*
X148028473Y-81488124D01*
X148075961Y-81495749D01*
X148110978Y-81489466D01*
X148165928Y-81459209D01*
X148212117Y-81412238D01*
X148238537Y-81357888D01*
X148249300Y-81311934D01*
X147744361Y-81311934D01*
X147744454Y-81224203D01*
X147745219Y-81196399D01*
X147750799Y-81136737D01*
X147928177Y-81136737D01*
X147928502Y-81140155D01*
X147937690Y-81150799D01*
X147963654Y-81157338D01*
X148011929Y-81160632D01*
X148088053Y-81161539D01*
X148113073Y-81161528D01*
X148178052Y-81160928D01*
X148217114Y-81158333D01*
X148236053Y-81152280D01*
X148240661Y-81141304D01*
X148236731Y-81123940D01*
X148236131Y-81121971D01*
X148202277Y-81061548D01*
X148148907Y-81019947D01*
X148085265Y-81004460D01*
X148061741Y-81005698D01*
X148018078Y-81020514D01*
X147976191Y-81058197D01*
X147964908Y-81071521D01*
X147938663Y-81109574D01*
X147928177Y-81136737D01*
X147750799Y-81136737D01*
X147751516Y-81129067D01*
X147762076Y-81073352D01*
X147773651Y-81042161D01*
X147814345Y-80974318D01*
X147868845Y-80912704D01*
X147926480Y-80870484D01*
X147943132Y-80862645D01*
X148040095Y-80836639D01*
X148139110Y-80839380D01*
X148232202Y-80869710D01*
X148311394Y-80926466D01*
X148354228Y-80978808D01*
X148389251Y-81052546D01*
X148407975Y-81141304D01*
X148408693Y-81144709D01*
G37*
X144760158Y-82102291D02*
X144689723Y-82119398D01*
X144669363Y-82128462D01*
X144629897Y-82152201D01*
X144599609Y-82178939D01*
X144577198Y-82213317D01*
X144561364Y-82259978D01*
X144550807Y-82323564D01*
X144544226Y-82408717D01*
X144540322Y-82520080D01*
X144538840Y-82594467D01*
X144533385Y-82916144D01*
X144626570Y-82916144D01*
X144683103Y-82913774D01*
X144712228Y-82905673D01*
X144719756Y-82892069D01*
X144723730Y-82877359D01*
X144741498Y-82880172D01*
X144765710Y-82891966D01*
X144826322Y-82910045D01*
X144904221Y-82914917D01*
X144986155Y-82906948D01*
X145058869Y-82886507D01*
X145065391Y-82883669D01*
X145131848Y-82836983D01*
X145175659Y-82772082D01*
X145195818Y-82696218D01*
X145194278Y-82668962D01*
X145029805Y-82668962D01*
X145015313Y-82705642D01*
X144972345Y-82731927D01*
X144903021Y-82746035D01*
X144865973Y-82747908D01*
X144804231Y-82743112D01*
X144763190Y-82724476D01*
X144753177Y-82715618D01*
X144726050Y-82667424D01*
X144719756Y-82623710D01*
X144719756Y-82565223D01*
X144801220Y-82565223D01*
X144895916Y-82570050D01*
X144962337Y-82585231D01*
X145004304Y-82611818D01*
X145013701Y-82623670D01*
X145029805Y-82668962D01*
X145194278Y-82668962D01*
X145191321Y-82616644D01*
X145161165Y-82540613D01*
X145120019Y-82489230D01*
X145095098Y-82467015D01*
X145070702Y-82452416D01*
X145038959Y-82443515D01*
X144991998Y-82438393D01*
X144921946Y-82435133D01*
X144894160Y-82434195D01*
X144719756Y-82428497D01*
X144720012Y-82375709D01*
X144726766Y-82320221D01*
X144751186Y-82286670D01*
X144800520Y-82265236D01*
X144801844Y-82264854D01*
X144871790Y-82256426D01*
X144940236Y-82267434D01*
X144991103Y-82294203D01*
X145011513Y-82307421D01*
X145033496Y-82305592D01*
X145067324Y-82286442D01*
X145087189Y-82272926D01*
X145126044Y-82244050D01*
X145150112Y-82222404D01*
X145153974Y-82216207D01*
X145138071Y-82184137D01*
X145091085Y-82145837D01*
X145070677Y-82132915D01*
X145012007Y-82110659D01*
X144932938Y-82098050D01*
X144845109Y-82095218D01*
X144760158Y-82102291D01*
G36*
X145195818Y-82696218D02*
G01*
X145175659Y-82772082D01*
X145131848Y-82836983D01*
X145065391Y-82883669D01*
X145058869Y-82886507D01*
X144986155Y-82906948D01*
X144904221Y-82914917D01*
X144826322Y-82910045D01*
X144765710Y-82891966D01*
X144741498Y-82880172D01*
X144723730Y-82877359D01*
X144719756Y-82892069D01*
X144712228Y-82905673D01*
X144683103Y-82913774D01*
X144626570Y-82916144D01*
X144533385Y-82916144D01*
X144538840Y-82594467D01*
X144539423Y-82565223D01*
X144719756Y-82565223D01*
X144719756Y-82623710D01*
X144726050Y-82667424D01*
X144753177Y-82715618D01*
X144763190Y-82724476D01*
X144804231Y-82743112D01*
X144865973Y-82747908D01*
X144903021Y-82746035D01*
X144972345Y-82731927D01*
X145015313Y-82705642D01*
X145029805Y-82668962D01*
X145013701Y-82623670D01*
X145004304Y-82611818D01*
X144962337Y-82585231D01*
X144895916Y-82570050D01*
X144801220Y-82565223D01*
X144719756Y-82565223D01*
X144539423Y-82565223D01*
X144540322Y-82520080D01*
X144544226Y-82408717D01*
X144550807Y-82323564D01*
X144561364Y-82259978D01*
X144577198Y-82213317D01*
X144599609Y-82178939D01*
X144629897Y-82152201D01*
X144669363Y-82128462D01*
X144689723Y-82119398D01*
X144760158Y-82102291D01*
X144845109Y-82095218D01*
X144932938Y-82098050D01*
X145012007Y-82110659D01*
X145070677Y-82132915D01*
X145091085Y-82145837D01*
X145138071Y-82184137D01*
X145153974Y-82216207D01*
X145150112Y-82222404D01*
X145126044Y-82244050D01*
X145087189Y-82272926D01*
X145067324Y-82286442D01*
X145033496Y-82305592D01*
X145011513Y-82307421D01*
X144991103Y-82294203D01*
X144940236Y-82267434D01*
X144871790Y-82256426D01*
X144801844Y-82264854D01*
X144800520Y-82265236D01*
X144751186Y-82286670D01*
X144726766Y-82320221D01*
X144720012Y-82375709D01*
X144719756Y-82428497D01*
X144894160Y-82434195D01*
X144921946Y-82435133D01*
X144991998Y-82438393D01*
X145038959Y-82443515D01*
X145070702Y-82452416D01*
X145095098Y-82467015D01*
X145120019Y-82489230D01*
X145161165Y-82540613D01*
X145191321Y-82616644D01*
X145194278Y-82668962D01*
X145195818Y-82696218D01*
G37*
X147979693Y-82103802D02*
X147901080Y-82124778D01*
X147841234Y-82162798D01*
X147799003Y-82212596D01*
X147785875Y-82233848D01*
X147776182Y-82256110D01*
X147769406Y-82284588D01*
X147765027Y-82324489D01*
X147762526Y-82381019D01*
X147761382Y-82459385D01*
X147761078Y-82564794D01*
X147761072Y-82592760D01*
X147761072Y-82916144D01*
X147841282Y-82916144D01*
X147892444Y-82912561D01*
X147930273Y-82903484D01*
X147939751Y-82897886D01*
X147965662Y-82888224D01*
X147992126Y-82897886D01*
X148035698Y-82909948D01*
X148098990Y-82914803D01*
X148169140Y-82912696D01*
X148233290Y-82903874D01*
X148270743Y-82892555D01*
X148343217Y-82846030D01*
X148388510Y-82781464D01*
X148408872Y-82695618D01*
X148409062Y-82693414D01*
X148407275Y-82655331D01*
X148245677Y-82655331D01*
X148231549Y-82698648D01*
X148208538Y-82723026D01*
X148162346Y-82741463D01*
X148101375Y-82748823D01*
X148039201Y-82745201D01*
X147989399Y-82730692D01*
X147975447Y-82721383D01*
X147951065Y-82678371D01*
X147944887Y-82629475D01*
X147944887Y-82565223D01*
X148037332Y-82565223D01*
X148125155Y-82571984D01*
X148191732Y-82591138D01*
X148233148Y-82620994D01*
X148245677Y-82655331D01*
X148407275Y-82655331D01*
X148404660Y-82599622D01*
X148373726Y-82525465D01*
X148315569Y-82469385D01*
X148307530Y-82464283D01*
X148272987Y-82447673D01*
X148230232Y-82437614D01*
X148170464Y-82432725D01*
X148099460Y-82431601D01*
X147944887Y-82431539D01*
X147944887Y-82366743D01*
X147951444Y-82316468D01*
X147968175Y-82282787D01*
X147970134Y-82280994D01*
X148007367Y-82266260D01*
X148063570Y-82260549D01*
X148125683Y-82263355D01*
X148180640Y-82274174D01*
X148213251Y-82290400D01*
X148230922Y-82303398D01*
X148249581Y-82305880D01*
X148275331Y-82295231D01*
X148314277Y-82268836D01*
X148372520Y-82224083D01*
X148377866Y-82219891D01*
X148375127Y-82204378D01*
X148352274Y-82178578D01*
X148317541Y-82149907D01*
X148279160Y-82125784D01*
X148267102Y-82120088D01*
X148223116Y-82108721D01*
X148158663Y-82100613D01*
X148086653Y-82097361D01*
X148083286Y-82097354D01*
X147979693Y-82103802D01*
G36*
X148409062Y-82693414D02*
G01*
X148408872Y-82695618D01*
X148388510Y-82781464D01*
X148343217Y-82846030D01*
X148270743Y-82892555D01*
X148233290Y-82903874D01*
X148169140Y-82912696D01*
X148098990Y-82914803D01*
X148035698Y-82909948D01*
X147992126Y-82897886D01*
X147965662Y-82888224D01*
X147939751Y-82897886D01*
X147930273Y-82903484D01*
X147892444Y-82912561D01*
X147841282Y-82916144D01*
X147761072Y-82916144D01*
X147761072Y-82592760D01*
X147761078Y-82565223D01*
X147944887Y-82565223D01*
X147944887Y-82629475D01*
X147951065Y-82678371D01*
X147975447Y-82721383D01*
X147989399Y-82730692D01*
X148039201Y-82745201D01*
X148101375Y-82748823D01*
X148162346Y-82741463D01*
X148208538Y-82723026D01*
X148231549Y-82698648D01*
X148245677Y-82655331D01*
X148233148Y-82620994D01*
X148191732Y-82591138D01*
X148125155Y-82571984D01*
X148037332Y-82565223D01*
X147944887Y-82565223D01*
X147761078Y-82565223D01*
X147761078Y-82564794D01*
X147761382Y-82459385D01*
X147762526Y-82381019D01*
X147765027Y-82324489D01*
X147769406Y-82284588D01*
X147776182Y-82256110D01*
X147785875Y-82233848D01*
X147799003Y-82212596D01*
X147841234Y-82162798D01*
X147901080Y-82124778D01*
X147979693Y-82103802D01*
X148083286Y-82097354D01*
X148086653Y-82097361D01*
X148158663Y-82100613D01*
X148223116Y-82108721D01*
X148267102Y-82120088D01*
X148279160Y-82125784D01*
X148317541Y-82149907D01*
X148352274Y-82178578D01*
X148375127Y-82204378D01*
X148377866Y-82219891D01*
X148372520Y-82224083D01*
X148314277Y-82268836D01*
X148275331Y-82295231D01*
X148249581Y-82305880D01*
X148230922Y-82303398D01*
X148213251Y-82290400D01*
X148180640Y-82274174D01*
X148125683Y-82263355D01*
X148063570Y-82260549D01*
X148007367Y-82266260D01*
X147970134Y-82280994D01*
X147968175Y-82282787D01*
X147951444Y-82316468D01*
X147944887Y-82366743D01*
X147944887Y-82431539D01*
X148099460Y-82431601D01*
X148170464Y-82432725D01*
X148230232Y-82437614D01*
X148272987Y-82447673D01*
X148307530Y-82464283D01*
X148315569Y-82469385D01*
X148373726Y-82525465D01*
X148404660Y-82599622D01*
X148407275Y-82655331D01*
X148409062Y-82693414D01*
G37*
X148676790Y-80858086D02*
X148641558Y-80875492D01*
X148598110Y-80905824D01*
X148566444Y-80938901D01*
X148544756Y-80980435D01*
X148531247Y-81036140D01*
X148524112Y-81111729D01*
X148521550Y-81212914D01*
X148521400Y-81256415D01*
X148521838Y-81351753D01*
X148523654Y-81419889D01*
X148527605Y-81467036D01*
X148534448Y-81499408D01*
X148544939Y-81523218D01*
X148555854Y-81539461D01*
X148625531Y-81608570D01*
X148707584Y-81650139D01*
X148796100Y-81662641D01*
X148885169Y-81644552D01*
X148913387Y-81631760D01*
X148980940Y-81596549D01*
X148980940Y-82148318D01*
X148931638Y-82122823D01*
X148866677Y-82103098D01*
X148786830Y-82098045D01*
X148707098Y-82107374D01*
X148646885Y-82128332D01*
X148596942Y-82168245D01*
X148554269Y-82225359D01*
X148551060Y-82231223D01*
X148537528Y-82258845D01*
X148527645Y-82286686D01*
X148520841Y-82320412D01*
X148516549Y-82365689D01*
X148514199Y-82428180D01*
X148513222Y-82513553D01*
X148513045Y-82609628D01*
X148513045Y-82916144D01*
X148696861Y-82916144D01*
X148696861Y-82350957D01*
X148748275Y-82307695D01*
X148801684Y-82273090D01*
X148852262Y-82266798D01*
X148903120Y-82282990D01*
X148930225Y-82298845D01*
X148950399Y-82321428D01*
X148964747Y-82355558D01*
X148974374Y-82406052D01*
X148980387Y-82477729D01*
X148983890Y-82575406D01*
X148985124Y-82640420D01*
X148989295Y-82907789D01*
X149077025Y-82912840D01*
X149164756Y-82917891D01*
X149164756Y-81258719D01*
X148980940Y-81258719D01*
X148976254Y-81351218D01*
X148960462Y-81415427D01*
X148930967Y-81455377D01*
X148885170Y-81475098D01*
X148838900Y-81479039D01*
X148786522Y-81474510D01*
X148751760Y-81456687D01*
X148730022Y-81433137D01*
X148712910Y-81407807D01*
X148702723Y-81379587D01*
X148698190Y-81340049D01*
X148698041Y-81280760D01*
X148699566Y-81231116D01*
X148703069Y-81156328D01*
X148708283Y-81107229D01*
X148717063Y-81076085D01*
X148731264Y-81055163D01*
X148744666Y-81043070D01*
X148800663Y-81016699D01*
X148866939Y-81012440D01*
X148904994Y-81021524D01*
X148942673Y-81053814D01*
X148967631Y-81116624D01*
X148979728Y-81209512D01*
X148980940Y-81258719D01*
X149164756Y-81258719D01*
X149164756Y-80844039D01*
X149072848Y-80844039D01*
X149017667Y-80846221D01*
X148989198Y-80853969D01*
X148980944Y-80869086D01*
X148980940Y-80869534D01*
X148977110Y-80884338D01*
X148960217Y-80882657D01*
X148926631Y-80866390D01*
X148848372Y-80841505D01*
X148760323Y-80838889D01*
X148676790Y-80858086D01*
G36*
X149164756Y-82917891D02*
G01*
X149077025Y-82912840D01*
X148989295Y-82907789D01*
X148985124Y-82640420D01*
X148983890Y-82575406D01*
X148980387Y-82477729D01*
X148974374Y-82406052D01*
X148964747Y-82355558D01*
X148950399Y-82321428D01*
X148930225Y-82298845D01*
X148903120Y-82282990D01*
X148852262Y-82266798D01*
X148801684Y-82273090D01*
X148748275Y-82307695D01*
X148696861Y-82350957D01*
X148696861Y-82916144D01*
X148513045Y-82916144D01*
X148513045Y-82609628D01*
X148513222Y-82513553D01*
X148514199Y-82428180D01*
X148516549Y-82365689D01*
X148520841Y-82320412D01*
X148527645Y-82286686D01*
X148537528Y-82258845D01*
X148551060Y-82231223D01*
X148554269Y-82225359D01*
X148596942Y-82168245D01*
X148646885Y-82128332D01*
X148707098Y-82107374D01*
X148786830Y-82098045D01*
X148866677Y-82103098D01*
X148931638Y-82122823D01*
X148980940Y-82148318D01*
X148980940Y-81596549D01*
X148913387Y-81631760D01*
X148885169Y-81644552D01*
X148796100Y-81662641D01*
X148707584Y-81650139D01*
X148625531Y-81608570D01*
X148555854Y-81539461D01*
X148544939Y-81523218D01*
X148534448Y-81499408D01*
X148527605Y-81467036D01*
X148523654Y-81419889D01*
X148521838Y-81351753D01*
X148521512Y-81280760D01*
X148698041Y-81280760D01*
X148698190Y-81340049D01*
X148702723Y-81379587D01*
X148712910Y-81407807D01*
X148730022Y-81433137D01*
X148751760Y-81456687D01*
X148786522Y-81474510D01*
X148838900Y-81479039D01*
X148885170Y-81475098D01*
X148930967Y-81455377D01*
X148960462Y-81415427D01*
X148976254Y-81351218D01*
X148980940Y-81258719D01*
X148979728Y-81209512D01*
X148967631Y-81116624D01*
X148942673Y-81053814D01*
X148904994Y-81021524D01*
X148866939Y-81012440D01*
X148800663Y-81016699D01*
X148744666Y-81043070D01*
X148731264Y-81055163D01*
X148717063Y-81076085D01*
X148708283Y-81107229D01*
X148703069Y-81156328D01*
X148699566Y-81231116D01*
X148698041Y-81280760D01*
X148521512Y-81280760D01*
X148521400Y-81256415D01*
X148521550Y-81212914D01*
X148524112Y-81111729D01*
X148531247Y-81036140D01*
X148544756Y-80980435D01*
X148566444Y-80938901D01*
X148598110Y-80905824D01*
X148641558Y-80875492D01*
X148676790Y-80858086D01*
X148760323Y-80838889D01*
X148848372Y-80841505D01*
X148926631Y-80866390D01*
X148960217Y-80882657D01*
X148977110Y-80884338D01*
X148980940Y-80869534D01*
X148980944Y-80869086D01*
X148989198Y-80853969D01*
X149017667Y-80846221D01*
X149072848Y-80844039D01*
X149164756Y-80844039D01*
X149164756Y-81258719D01*
X149164756Y-82917891D01*
G37*
X145639186Y-75304194D02*
X145563637Y-75704940D01*
X145006109Y-75934772D01*
X144671685Y-75707366D01*
X144578028Y-75644049D01*
X144493368Y-75587514D01*
X144421655Y-75540345D01*
X144366839Y-75505120D01*
X144332870Y-75484423D01*
X144323620Y-75479960D01*
X144306955Y-75491438D01*
X144271344Y-75523169D01*
X144220779Y-75571101D01*
X144159250Y-75631180D01*
X144090751Y-75699351D01*
X144019271Y-75771563D01*
X143948803Y-75843760D01*
X143883339Y-75911891D01*
X143826870Y-75971901D01*
X143783387Y-76019737D01*
X143756882Y-76051345D01*
X143750545Y-76061923D01*
X143759664Y-76081424D01*
X143785230Y-76124149D01*
X143824553Y-76185916D01*
X143874947Y-76262549D01*
X143933723Y-76349866D01*
X143967782Y-76399670D01*
X144029861Y-76490611D01*
X144085024Y-76572677D01*
X144130596Y-76641781D01*
X144163900Y-76693840D01*
X144182260Y-76724768D01*
X144185019Y-76731268D01*
X144178765Y-76749739D01*
X144161716Y-76792790D01*
X144136447Y-76854367D01*
X144105528Y-76928417D01*
X144071532Y-77008888D01*
X144037032Y-77089725D01*
X144004599Y-77164876D01*
X143976807Y-77228289D01*
X143956227Y-77273911D01*
X143945431Y-77295687D01*
X143944794Y-77296544D01*
X143927843Y-77300702D01*
X143882699Y-77309979D01*
X143814040Y-77323462D01*
X143726548Y-77340239D01*
X143624900Y-77359399D01*
X143565594Y-77370448D01*
X143456978Y-77391128D01*
X143358873Y-77410807D01*
X143276241Y-77428407D01*
X143214046Y-77442851D01*
X143177251Y-77453064D01*
X143169854Y-77456304D01*
X143162610Y-77478235D01*
X143156765Y-77527765D01*
X143152315Y-77599103D01*
X143149257Y-77686457D01*
X143147585Y-77784035D01*
X143147297Y-77886044D01*
X143148389Y-77986693D01*
X143150856Y-78080190D01*
X143154694Y-78160743D01*
X143159900Y-78222560D01*
X143166469Y-78259848D01*
X143170409Y-78267611D01*
X143193962Y-78276916D01*
X143243868Y-78290218D01*
X143313527Y-78305955D01*
X143396337Y-78322564D01*
X143425245Y-78327937D01*
X143564619Y-78353466D01*
X143674714Y-78374026D01*
X143759168Y-78390433D01*
X143821620Y-78403505D01*
X143865706Y-78414059D01*
X143895065Y-78422912D01*
X143913335Y-78430881D01*
X143924152Y-78438783D01*
X143925665Y-78440345D01*
X143940773Y-78465504D01*
X143963821Y-78514468D01*
X143992506Y-78581239D01*
X144024528Y-78659823D01*
X144057585Y-78744225D01*
X144089377Y-78828448D01*
X144117601Y-78906497D01*
X144139957Y-78972377D01*
X144154143Y-79020091D01*
X144157857Y-79043645D01*
X144157548Y-79044470D01*
X144144961Y-79063722D01*
X144116406Y-79106081D01*
X144074883Y-79167139D01*
X144023394Y-79242486D01*
X143964939Y-79327714D01*
X143948292Y-79351933D01*
X143888935Y-79439741D01*
X143836703Y-79519856D01*
X143794442Y-79587680D01*
X143764997Y-79638611D01*
X143751213Y-79668049D01*
X143750545Y-79671666D01*
X143762126Y-79690675D01*
X143794126Y-79728332D01*
X143842432Y-79780591D01*
X143902930Y-79843404D01*
X143971506Y-79912724D01*
X144044046Y-79984503D01*
X144116438Y-80054695D01*
X144184566Y-80119253D01*
X144244318Y-80174128D01*
X144291579Y-80215274D01*
X144322237Y-80238644D01*
X144330718Y-80242460D01*
X144350459Y-80233473D01*
X144390876Y-80209234D01*
X144445387Y-80173827D01*
X144487327Y-80145329D01*
X144563321Y-80093036D01*
X144653316Y-80031463D01*
X144743586Y-79969988D01*
X144792118Y-79937087D01*
X144956388Y-79825977D01*
X145094281Y-79900534D01*
X145157101Y-79933196D01*
X145210521Y-79958584D01*
X145246666Y-79973064D01*
X145255866Y-79975078D01*
X145266929Y-79960202D01*
X145288756Y-79918165D01*
X145319716Y-79852845D01*
X145358180Y-79768118D01*
X145402518Y-79667863D01*
X145451103Y-79555957D01*
X145502304Y-79436277D01*
X145554491Y-79312702D01*
X145606037Y-79189109D01*
X145655310Y-79069375D01*
X145700683Y-78957377D01*
X145740525Y-78856995D01*
X145773208Y-78772104D01*
X145797101Y-78706583D01*
X145810576Y-78664308D01*
X145812744Y-78649790D01*
X145795567Y-78631271D01*
X145757960Y-78601208D01*
X145707784Y-78565850D01*
X145703572Y-78563052D01*
X145573886Y-78459243D01*
X145469316Y-78338133D01*
X145390769Y-78203594D01*
X145339151Y-78059500D01*
X145315368Y-77909723D01*
X145320327Y-77758135D01*
X145354933Y-77608610D01*
X145420093Y-77465018D01*
X145439264Y-77433602D01*
X145538976Y-77306743D01*
X145656773Y-77204873D01*
X145788579Y-77128522D01*
X145930317Y-77078220D01*
X146077908Y-77054497D01*
X146227277Y-77057883D01*
X146374347Y-77088906D01*
X146515039Y-77148098D01*
X146645277Y-77235987D01*
X146685564Y-77271660D01*
X146788095Y-77383324D01*
X146862809Y-77500875D01*
X146914060Y-77632638D01*
X146942604Y-77763125D01*
X146949650Y-77909834D01*
X146926154Y-78057271D01*
X146874501Y-78200452D01*
X146797079Y-78334395D01*
X146696275Y-78454116D01*
X146574474Y-78554632D01*
X146558466Y-78565227D01*
X146507752Y-78599924D01*
X146469200Y-78629988D01*
X146450769Y-78649183D01*
X146450501Y-78649790D01*
X146454458Y-78670554D01*
X146470143Y-78717680D01*
X146495928Y-78787291D01*
X146530181Y-78875511D01*
X146571273Y-78978462D01*
X146617574Y-79092268D01*
X146667454Y-79213053D01*
X146719283Y-79336939D01*
X146771431Y-79460050D01*
X146822268Y-79578509D01*
X146870163Y-79688441D01*
X146913488Y-79785967D01*
X146950612Y-79867211D01*
X146979906Y-79928297D01*
X146999738Y-79965348D01*
X147007724Y-79975078D01*
X147032129Y-79967501D01*
X147077792Y-79947178D01*
X147136840Y-79917743D01*
X147169310Y-79900534D01*
X147307203Y-79825977D01*
X147471473Y-79937087D01*
X147555329Y-79994008D01*
X147647137Y-80056648D01*
X147733170Y-80115629D01*
X147776263Y-80145329D01*
X147836873Y-80186028D01*
X147888195Y-80218281D01*
X147923535Y-80238002D01*
X147935013Y-80242172D01*
X147951720Y-80230925D01*
X147988696Y-80199529D01*
X148042355Y-80151242D01*
X148109112Y-80089326D01*
X148185384Y-80017039D01*
X148233623Y-79970626D01*
X148318017Y-79887705D01*
X148390953Y-79813538D01*
X148449481Y-79751298D01*
X148490653Y-79704159D01*
X148511522Y-79675291D01*
X148513524Y-79669433D01*
X148504233Y-79647150D01*
X148478559Y-79602095D01*
X148439350Y-79538829D01*
X148389453Y-79461913D01*
X148331717Y-79375910D01*
X148315299Y-79351933D01*
X148255473Y-79264788D01*
X148201800Y-79186328D01*
X148157280Y-79120963D01*
X148124915Y-79073102D01*
X148107705Y-79047153D01*
X148106043Y-79044470D01*
X148108529Y-79023790D01*
X148121727Y-78978322D01*
X148143336Y-78914062D01*
X148171054Y-78837005D01*
X148202580Y-78753147D01*
X148235613Y-78668484D01*
X148267851Y-78589010D01*
X148296993Y-78520722D01*
X148320738Y-78469615D01*
X148336785Y-78441685D01*
X148337925Y-78440345D01*
X148347738Y-78432363D01*
X148364311Y-78424469D01*
X148391282Y-78415847D01*
X148432289Y-78405680D01*
X148490970Y-78393149D01*
X148570963Y-78377439D01*
X148675905Y-78357731D01*
X148809435Y-78333210D01*
X148838346Y-78327937D01*
X148924032Y-78311382D01*
X148998732Y-78295187D01*
X149055844Y-78280914D01*
X149088767Y-78270126D01*
X149093181Y-78267611D01*
X149100456Y-78245314D01*
X149106369Y-78195487D01*
X149110916Y-78123922D01*
X149114095Y-78036411D01*
X149115899Y-77938746D01*
X149116327Y-77836719D01*
X149115373Y-77736121D01*
X149113034Y-77642745D01*
X149109306Y-77562383D01*
X149104184Y-77500827D01*
X149097666Y-77463868D01*
X149093736Y-77456304D01*
X149071858Y-77448674D01*
X149022041Y-77436260D01*
X148949247Y-77420140D01*
X148858439Y-77401391D01*
X148754581Y-77381089D01*
X148697996Y-77370448D01*
X148590636Y-77350378D01*
X148494896Y-77332198D01*
X148415456Y-77316817D01*
X148356996Y-77305149D01*
X148324195Y-77298106D01*
X148318796Y-77296544D01*
X148309672Y-77278940D01*
X148290385Y-77236536D01*
X148263505Y-77175390D01*
X148231604Y-77101561D01*
X148197252Y-77021107D01*
X148163021Y-76940086D01*
X148131481Y-76864555D01*
X148105204Y-76800573D01*
X148086761Y-76754198D01*
X148078721Y-76731487D01*
X148078572Y-76730494D01*
X148087685Y-76712579D01*
X148113236Y-76671351D01*
X148152538Y-76610909D01*
X148202907Y-76535349D01*
X148261656Y-76448770D01*
X148295808Y-76399039D01*
X148358040Y-76307854D01*
X148413314Y-76225067D01*
X148458932Y-76154867D01*
X148492198Y-76101442D01*
X148510414Y-76068979D01*
X148513045Y-76061701D01*
X148501736Y-76044763D01*
X148470469Y-76008596D01*
X148423240Y-75957253D01*
X148364042Y-75894785D01*
X148296869Y-75825244D01*
X148225716Y-75752683D01*
X148154576Y-75681153D01*
X148087443Y-75614705D01*
X148028311Y-75557392D01*
X147981175Y-75513265D01*
X147950027Y-75486377D01*
X147939607Y-75479960D01*
X147922641Y-75488983D01*
X147882061Y-75514333D01*
X147821813Y-75553428D01*
X147745843Y-75603689D01*
X147658096Y-75662535D01*
X147591906Y-75707366D01*
X147257482Y-75934772D01*
X146978717Y-75819856D01*
X146699953Y-75704940D01*
X146624404Y-75304194D01*
X146548856Y-74903447D01*
X145714735Y-74903447D01*
X145639186Y-75304194D01*
G36*
X146624404Y-75304194D02*
G01*
X146699953Y-75704940D01*
X146978717Y-75819856D01*
X147257482Y-75934772D01*
X147591906Y-75707366D01*
X147658096Y-75662535D01*
X147745843Y-75603689D01*
X147821813Y-75553428D01*
X147882061Y-75514333D01*
X147922641Y-75488983D01*
X147939607Y-75479960D01*
X147950027Y-75486377D01*
X147981175Y-75513265D01*
X148028311Y-75557392D01*
X148087443Y-75614705D01*
X148154576Y-75681153D01*
X148225716Y-75752683D01*
X148296869Y-75825244D01*
X148364042Y-75894785D01*
X148423240Y-75957253D01*
X148470469Y-76008596D01*
X148501736Y-76044763D01*
X148513045Y-76061701D01*
X148510414Y-76068979D01*
X148492198Y-76101442D01*
X148458932Y-76154867D01*
X148413314Y-76225067D01*
X148358040Y-76307854D01*
X148295808Y-76399039D01*
X148261656Y-76448770D01*
X148202907Y-76535349D01*
X148152538Y-76610909D01*
X148113236Y-76671351D01*
X148087685Y-76712579D01*
X148078572Y-76730494D01*
X148078721Y-76731487D01*
X148086761Y-76754198D01*
X148105204Y-76800573D01*
X148131481Y-76864555D01*
X148163021Y-76940086D01*
X148197252Y-77021107D01*
X148231604Y-77101561D01*
X148263505Y-77175390D01*
X148290385Y-77236536D01*
X148309672Y-77278940D01*
X148318796Y-77296544D01*
X148324195Y-77298106D01*
X148356996Y-77305149D01*
X148415456Y-77316817D01*
X148494896Y-77332198D01*
X148590636Y-77350378D01*
X148697996Y-77370448D01*
X148754581Y-77381089D01*
X148858439Y-77401391D01*
X148949247Y-77420140D01*
X149022041Y-77436260D01*
X149071858Y-77448674D01*
X149093736Y-77456304D01*
X149097666Y-77463868D01*
X149104184Y-77500827D01*
X149109306Y-77562383D01*
X149113034Y-77642745D01*
X149115373Y-77736121D01*
X149116327Y-77836719D01*
X149115899Y-77938746D01*
X149114095Y-78036411D01*
X149110916Y-78123922D01*
X149106369Y-78195487D01*
X149100456Y-78245314D01*
X149093181Y-78267611D01*
X149088767Y-78270126D01*
X149055844Y-78280914D01*
X148998732Y-78295187D01*
X148924032Y-78311382D01*
X148838346Y-78327937D01*
X148809435Y-78333210D01*
X148675905Y-78357731D01*
X148570963Y-78377439D01*
X148490970Y-78393149D01*
X148432289Y-78405680D01*
X148391282Y-78415847D01*
X148364311Y-78424469D01*
X148347738Y-78432363D01*
X148337925Y-78440345D01*
X148336785Y-78441685D01*
X148320738Y-78469615D01*
X148296993Y-78520722D01*
X148267851Y-78589010D01*
X148235613Y-78668484D01*
X148202580Y-78753147D01*
X148171054Y-78837005D01*
X148143336Y-78914062D01*
X148121727Y-78978322D01*
X148108529Y-79023790D01*
X148106043Y-79044470D01*
X148107705Y-79047153D01*
X148124915Y-79073102D01*
X148157280Y-79120963D01*
X148201800Y-79186328D01*
X148255473Y-79264788D01*
X148315299Y-79351933D01*
X148331717Y-79375910D01*
X148389453Y-79461913D01*
X148439350Y-79538829D01*
X148478559Y-79602095D01*
X148504233Y-79647150D01*
X148513524Y-79669433D01*
X148511522Y-79675291D01*
X148490653Y-79704159D01*
X148449481Y-79751298D01*
X148390953Y-79813538D01*
X148318017Y-79887705D01*
X148233623Y-79970626D01*
X148185384Y-80017039D01*
X148109112Y-80089326D01*
X148042355Y-80151242D01*
X147988696Y-80199529D01*
X147951720Y-80230925D01*
X147935013Y-80242172D01*
X147923535Y-80238002D01*
X147888195Y-80218281D01*
X147836873Y-80186028D01*
X147776263Y-80145329D01*
X147733170Y-80115629D01*
X147647137Y-80056648D01*
X147555329Y-79994008D01*
X147471473Y-79937087D01*
X147307203Y-79825977D01*
X147169310Y-79900534D01*
X147136840Y-79917743D01*
X147077792Y-79947178D01*
X147032129Y-79967501D01*
X147007724Y-79975078D01*
X146999738Y-79965348D01*
X146979906Y-79928297D01*
X146950612Y-79867211D01*
X146913488Y-79785967D01*
X146870163Y-79688441D01*
X146822268Y-79578509D01*
X146771431Y-79460050D01*
X146719283Y-79336939D01*
X146667454Y-79213053D01*
X146617574Y-79092268D01*
X146571273Y-78978462D01*
X146530181Y-78875511D01*
X146495928Y-78787291D01*
X146470143Y-78717680D01*
X146454458Y-78670554D01*
X146450501Y-78649790D01*
X146450769Y-78649183D01*
X146469200Y-78629988D01*
X146507752Y-78599924D01*
X146558466Y-78565227D01*
X146574474Y-78554632D01*
X146696275Y-78454116D01*
X146797079Y-78334395D01*
X146874501Y-78200452D01*
X146926154Y-78057271D01*
X146949650Y-77909834D01*
X146942604Y-77763125D01*
X146914060Y-77632638D01*
X146862809Y-77500875D01*
X146788095Y-77383324D01*
X146685564Y-77271660D01*
X146645277Y-77235987D01*
X146515039Y-77148098D01*
X146374347Y-77088906D01*
X146227277Y-77057883D01*
X146077908Y-77054497D01*
X145930317Y-77078220D01*
X145788579Y-77128522D01*
X145656773Y-77204873D01*
X145538976Y-77306743D01*
X145439264Y-77433602D01*
X145420093Y-77465018D01*
X145354933Y-77608610D01*
X145320327Y-77758135D01*
X145315368Y-77909723D01*
X145339151Y-78059500D01*
X145390769Y-78203594D01*
X145469316Y-78338133D01*
X145573886Y-78459243D01*
X145703572Y-78563052D01*
X145707784Y-78565850D01*
X145757960Y-78601208D01*
X145795567Y-78631271D01*
X145812744Y-78649790D01*
X145810576Y-78664308D01*
X145797101Y-78706583D01*
X145773208Y-78772104D01*
X145740525Y-78856995D01*
X145700683Y-78957377D01*
X145655310Y-79069375D01*
X145606037Y-79189109D01*
X145554491Y-79312702D01*
X145502304Y-79436277D01*
X145451103Y-79555957D01*
X145402518Y-79667863D01*
X145358180Y-79768118D01*
X145319716Y-79852845D01*
X145288756Y-79918165D01*
X145266929Y-79960202D01*
X145255866Y-79975078D01*
X145246666Y-79973064D01*
X145210521Y-79958584D01*
X145157101Y-79933196D01*
X145094281Y-79900534D01*
X144956388Y-79825977D01*
X144792118Y-79937087D01*
X144743586Y-79969988D01*
X144653316Y-80031463D01*
X144563321Y-80093036D01*
X144487327Y-80145329D01*
X144445387Y-80173827D01*
X144390876Y-80209234D01*
X144350459Y-80233473D01*
X144330718Y-80242460D01*
X144322237Y-80238644D01*
X144291579Y-80215274D01*
X144244318Y-80174128D01*
X144184566Y-80119253D01*
X144116438Y-80054695D01*
X144044046Y-79984503D01*
X143971506Y-79912724D01*
X143902930Y-79843404D01*
X143842432Y-79780591D01*
X143794126Y-79728332D01*
X143762126Y-79690675D01*
X143750545Y-79671666D01*
X143751213Y-79668049D01*
X143764997Y-79638611D01*
X143794442Y-79587680D01*
X143836703Y-79519856D01*
X143888935Y-79439741D01*
X143948292Y-79351933D01*
X143964939Y-79327714D01*
X144023394Y-79242486D01*
X144074883Y-79167139D01*
X144116406Y-79106081D01*
X144144961Y-79063722D01*
X144157548Y-79044470D01*
X144157857Y-79043645D01*
X144154143Y-79020091D01*
X144139957Y-78972377D01*
X144117601Y-78906497D01*
X144089377Y-78828448D01*
X144057585Y-78744225D01*
X144024528Y-78659823D01*
X143992506Y-78581239D01*
X143963821Y-78514468D01*
X143940773Y-78465504D01*
X143925665Y-78440345D01*
X143924152Y-78438783D01*
X143913335Y-78430881D01*
X143895065Y-78422912D01*
X143865706Y-78414059D01*
X143821620Y-78403505D01*
X143759168Y-78390433D01*
X143674714Y-78374026D01*
X143564619Y-78353466D01*
X143425245Y-78327937D01*
X143396337Y-78322564D01*
X143313527Y-78305955D01*
X143243868Y-78290218D01*
X143193962Y-78276916D01*
X143170409Y-78267611D01*
X143166469Y-78259848D01*
X143159900Y-78222560D01*
X143154694Y-78160743D01*
X143150856Y-78080190D01*
X143148389Y-77986693D01*
X143147297Y-77886044D01*
X143147585Y-77784035D01*
X143149257Y-77686457D01*
X143152315Y-77599103D01*
X143156765Y-77527765D01*
X143162610Y-77478235D01*
X143169854Y-77456304D01*
X143177251Y-77453064D01*
X143214046Y-77442851D01*
X143276241Y-77428407D01*
X143358873Y-77410807D01*
X143456978Y-77391128D01*
X143565594Y-77370448D01*
X143624900Y-77359399D01*
X143726548Y-77340239D01*
X143814040Y-77323462D01*
X143882699Y-77309979D01*
X143927843Y-77300702D01*
X143944794Y-77296544D01*
X143945431Y-77295687D01*
X143956227Y-77273911D01*
X143976807Y-77228289D01*
X144004599Y-77164876D01*
X144037032Y-77089725D01*
X144071532Y-77008888D01*
X144105528Y-76928417D01*
X144136447Y-76854367D01*
X144161716Y-76792790D01*
X144178765Y-76749739D01*
X144185019Y-76731268D01*
X144182260Y-76724768D01*
X144163900Y-76693840D01*
X144130596Y-76641781D01*
X144085024Y-76572677D01*
X144029861Y-76490611D01*
X143967782Y-76399670D01*
X143933723Y-76349866D01*
X143874947Y-76262549D01*
X143824553Y-76185916D01*
X143785230Y-76124149D01*
X143759664Y-76081424D01*
X143750545Y-76061923D01*
X143756882Y-76051345D01*
X143783387Y-76019737D01*
X143826870Y-75971901D01*
X143883339Y-75911891D01*
X143948803Y-75843760D01*
X144019271Y-75771563D01*
X144090751Y-75699351D01*
X144159250Y-75631180D01*
X144220779Y-75571101D01*
X144271344Y-75523169D01*
X144306955Y-75491438D01*
X144323620Y-75479960D01*
X144332870Y-75484423D01*
X144366839Y-75505120D01*
X144421655Y-75540345D01*
X144493368Y-75587514D01*
X144578028Y-75644049D01*
X144671685Y-75707366D01*
X145006109Y-75934772D01*
X145563637Y-75704940D01*
X145639186Y-75304194D01*
X145714735Y-74903447D01*
X146548856Y-74903447D01*
X146624404Y-75304194D01*
G37*
%TO.C,U8*%
D11*
X145244999Y-66820117D02*
X144495000Y-66820117D01*
X144495000Y-66820117D02*
X144495000Y-67070117D01*
X145244999Y-69480117D02*
X144495000Y-69480117D01*
X144495000Y-69480117D02*
X144495000Y-69230117D01*
X146905001Y-66820117D02*
X147655000Y-66820117D01*
X147655000Y-66820117D02*
X147655000Y-67070117D01*
X146905001Y-69480117D02*
X147655000Y-69480117D01*
X147655000Y-69480117D02*
X147655000Y-69230117D01*
D12*
X147605000Y-66900117D02*
G75*
G02*
X147545000Y-66900117I-30000J0D01*
G01*
X147545000Y-66900117D02*
G75*
G02*
X147605000Y-66900117I30000J0D01*
G01*
D11*
X147875000Y-67410117D02*
G75*
G02*
X147735000Y-67410117I-70000J0D01*
G01*
X147735000Y-67410117D02*
G75*
G02*
X147875000Y-67410117I70000J0D01*
G01*
%TO.C,U7*%
X135102000Y-74630618D02*
X135102000Y-75380617D01*
X135102000Y-75380617D02*
X135352000Y-75380617D01*
X137762000Y-74630618D02*
X137762000Y-75380617D01*
X137762000Y-75380617D02*
X137512000Y-75380617D01*
X135102000Y-72970616D02*
X135102000Y-72220617D01*
X135102000Y-72220617D02*
X135352000Y-72220617D01*
X137762000Y-72970616D02*
X137762000Y-72220617D01*
X137762000Y-72220617D02*
X137512000Y-72220617D01*
D12*
X135212000Y-72300617D02*
G75*
G02*
X135152000Y-72300617I-30000J0D01*
G01*
X135152000Y-72300617D02*
G75*
G02*
X135212000Y-72300617I30000J0D01*
G01*
D11*
X135762000Y-72070617D02*
G75*
G02*
X135622000Y-72070617I-70000J0D01*
G01*
X135622000Y-72070617D02*
G75*
G02*
X135762000Y-72070617I70000J0D01*
G01*
D13*
%TO.C,U12*%
X133151999Y-79328117D02*
X132912000Y-79658117D01*
X133392000Y-79658117D01*
X133151999Y-79328117D01*
G36*
X133392000Y-79658117D02*
G01*
X132912000Y-79658117D01*
X133151999Y-79328117D01*
X133392000Y-79658117D01*
G37*
X133852000Y-79118117D02*
X133852000Y-72898117D01*
X133852000Y-72898117D02*
X133657000Y-72898117D01*
X133657000Y-79118117D02*
X133852000Y-79118117D01*
X128827000Y-72898117D02*
X128632000Y-72898117D01*
X128632000Y-79118117D02*
X128827000Y-79118117D01*
X128632000Y-72898117D02*
X128632000Y-79118117D01*
%TO.C,Q1*%
X147322000Y-50845617D02*
X147322000Y-50895617D01*
X147322000Y-52015617D02*
X147322000Y-52795617D01*
X147322000Y-53915617D02*
X147322000Y-53965617D01*
X147322000Y-53965617D02*
X148842000Y-53965617D01*
X148842000Y-50845617D02*
X147322000Y-50845617D01*
X148842000Y-51845617D02*
X148842000Y-50845617D01*
X148842000Y-53965617D02*
X148842000Y-52965617D01*
X146782000Y-52785617D02*
X147022000Y-52455617D01*
X146542000Y-52455617D01*
X146782000Y-52785617D01*
G36*
X146782000Y-52785617D02*
G01*
X146542000Y-52455617D01*
X147022000Y-52455617D01*
X146782000Y-52785617D01*
G37*
%TO.C,R16*%
X149112000Y-54376976D02*
X149112000Y-54684258D01*
X149872000Y-54376976D02*
X149872000Y-54684258D01*
%TO.C,C14*%
D14*
X136207314Y-59875618D02*
X136422986Y-59875618D01*
X136207314Y-60595618D02*
X136422986Y-60595618D01*
%TO.C,C10*%
X136305150Y-64897782D02*
X136305150Y-65113454D01*
X137025150Y-64897782D02*
X137025150Y-65113454D01*
%TO.C,R45*%
D13*
X130863359Y-79418116D02*
X131170641Y-79418116D01*
X130863359Y-80178116D02*
X131170641Y-80178116D01*
%TO.C,R15*%
X147128791Y-54185618D02*
X146821509Y-54185618D01*
X147128791Y-54945618D02*
X146821509Y-54945618D01*
%TO.C,R34*%
D14*
X131158791Y-57150618D02*
X130851509Y-57150618D01*
X131158791Y-57910618D02*
X130851509Y-57910618D01*
%TO.C,R2*%
X129085000Y-65899258D02*
X129085000Y-65591976D01*
X129845000Y-65899258D02*
X129845000Y-65591976D01*
%TO.C,C11*%
X136192314Y-60790618D02*
X136407986Y-60790618D01*
X136192314Y-61510618D02*
X136407986Y-61510618D01*
%TO.C,R31*%
X137216995Y-54058644D02*
X137216995Y-53751362D01*
X137976995Y-54058644D02*
X137976995Y-53751362D01*
%TO.C,C37*%
X146840150Y-64012782D02*
X146840150Y-64228454D01*
X147560150Y-64012782D02*
X147560150Y-64228454D01*
%TO.C,C21*%
X142377000Y-53423453D02*
X142377000Y-53207781D01*
X143097000Y-53423453D02*
X143097000Y-53207781D01*
%TO.C,C27*%
X138737314Y-51525618D02*
X138952986Y-51525618D01*
X138737314Y-52245618D02*
X138952986Y-52245618D01*
%TO.C,C18*%
X146491471Y-73458678D02*
X146210309Y-73458678D01*
X146491471Y-74478678D02*
X146210309Y-74478678D01*
%TO.C,R3*%
X132728359Y-79418117D02*
X133035641Y-79418117D01*
X132728359Y-80178117D02*
X133035641Y-80178117D01*
%TO.C,C22*%
X143020150Y-50717782D02*
X143020150Y-50933454D01*
X143740150Y-50717782D02*
X143740150Y-50933454D01*
%TO.C,C35*%
X149232000Y-62123453D02*
X149232000Y-61907781D01*
X149952000Y-62123453D02*
X149952000Y-61907781D01*
%TO.C,C5*%
X140702164Y-66900617D02*
X140917836Y-66900617D01*
X140702164Y-67620617D02*
X140917836Y-67620617D01*
%TO.C,C32*%
X138240150Y-73662782D02*
X138240150Y-73878454D01*
X138960150Y-73662782D02*
X138960150Y-73878454D01*
%TO.C,C12*%
X136172164Y-62115617D02*
X136387836Y-62115617D01*
X136172164Y-62835617D02*
X136387836Y-62835617D01*
%TO.C,R19*%
X146872450Y-71170036D02*
X146872450Y-71477318D01*
X147632450Y-71170036D02*
X147632450Y-71477318D01*
%TO.C,C15*%
X134797836Y-63860617D02*
X134582164Y-63860617D01*
X134797836Y-64580617D02*
X134582164Y-64580617D01*
%TO.C,R1*%
X130290000Y-67359258D02*
X130290000Y-67051976D01*
X131050000Y-67359258D02*
X131050000Y-67051976D01*
%TO.C,R32*%
X138266995Y-54058644D02*
X138266995Y-53751362D01*
X139026995Y-54058644D02*
X139026995Y-53751362D01*
%TO.C,R25*%
X145085000Y-62429258D02*
X145085000Y-62121976D01*
X145845000Y-62429258D02*
X145845000Y-62121976D01*
%TO.C,R33*%
X131163791Y-55885618D02*
X130856509Y-55885618D01*
X131163791Y-56645618D02*
X130856509Y-56645618D01*
%TO.C,R17*%
X130841509Y-58095618D02*
X131148791Y-58095618D01*
X130841509Y-58855618D02*
X131148791Y-58855618D01*
%TO.C,R48*%
D13*
X130220000Y-71704258D02*
X130220000Y-71396976D01*
X130980000Y-71704258D02*
X130980000Y-71396976D01*
%TO.C,C45*%
X132820150Y-71683454D02*
X132820150Y-71467782D01*
X133540150Y-71683454D02*
X133540150Y-71467782D01*
%TO.C,R20*%
D14*
X145075000Y-58396976D02*
X145075000Y-58704258D01*
X145835000Y-58396976D02*
X145835000Y-58704258D01*
%TO.C,U3*%
X128491998Y-46945617D02*
X128491998Y-46945617D01*
X128491998Y-46945617D02*
X128721998Y-46955617D01*
X128491998Y-50105617D02*
X128491998Y-46945617D01*
X128491998Y-50105617D02*
X128491998Y-50105617D01*
X128751998Y-50095617D02*
X128491998Y-50105617D01*
X131391998Y-46955617D02*
X131651998Y-46945617D01*
X131651998Y-46945617D02*
X131651998Y-46945617D01*
X131651998Y-46945617D02*
X131651998Y-50105617D01*
X131651998Y-50105617D02*
X131421998Y-50095617D01*
X131651998Y-50105617D02*
X131651998Y-50105617D01*
X131611998Y-50455617D02*
G75*
G02*
X131471998Y-50455617I-70000J0D01*
G01*
X131471998Y-50455617D02*
G75*
G02*
X131611998Y-50455617I70000J0D01*
G01*
X131601998Y-50025617D02*
G75*
G02*
X131541998Y-50025617I-30000J0D01*
G01*
X131541998Y-50025617D02*
G75*
G02*
X131601998Y-50025617I30000J0D01*
G01*
%TO.C,C34*%
X148944164Y-59775617D02*
X149159836Y-59775617D01*
X148944164Y-60495617D02*
X149159836Y-60495617D01*
%TO.C,U4*%
X143250150Y-70103676D02*
X143250150Y-70103676D01*
X143250150Y-70103676D02*
X146410150Y-70103676D01*
X143250150Y-73263676D02*
X143250150Y-73263676D01*
X143250150Y-73263676D02*
X143260150Y-73033676D01*
X143260150Y-70363676D02*
X143250150Y-70103676D01*
X146400150Y-73003676D02*
X146410150Y-73263676D01*
X146410150Y-70103676D02*
X146400150Y-70333676D01*
X146410150Y-70103676D02*
X146410150Y-70103676D01*
X146410150Y-73263676D02*
X143250150Y-73263676D01*
X146410150Y-73263676D02*
X146410150Y-73263676D01*
X142970150Y-73153676D02*
G75*
G02*
X142830150Y-73153676I-70000J0D01*
G01*
X142830150Y-73153676D02*
G75*
G02*
X142970150Y-73153676I70000J0D01*
G01*
X143360150Y-73183676D02*
G75*
G02*
X143300150Y-73183676I-30000J0D01*
G01*
X143300150Y-73183676D02*
G75*
G02*
X143360150Y-73183676I30000J0D01*
G01*
%TO.C,C20*%
X144345150Y-50717782D02*
X144345150Y-50933454D01*
X145065150Y-50717782D02*
X145065150Y-50933454D01*
%TO.C,RN2*%
D13*
X145140150Y-47725618D02*
X145140150Y-47225618D01*
X147420150Y-47725618D02*
X147420150Y-47225618D01*
%TO.C,C9*%
D14*
X134657836Y-66900617D02*
X134442164Y-66900617D01*
X134657836Y-67620617D02*
X134442164Y-67620617D01*
%TO.C,R27*%
X143916509Y-66010618D02*
X144223791Y-66010618D01*
X143916509Y-66770618D02*
X144223791Y-66770618D01*
%TO.C,RN1*%
D13*
X147637000Y-47725618D02*
X147637000Y-47225618D01*
X149917000Y-47725618D02*
X149917000Y-47225618D01*
%TO.C,C8*%
D14*
X138202164Y-67710617D02*
X138417836Y-67710617D01*
X138202164Y-68430617D02*
X138417836Y-68430617D01*
%TO.C,R28*%
X145531509Y-63290618D02*
X145838791Y-63290618D01*
X145531509Y-64050618D02*
X145838791Y-64050618D01*
%TO.C,C13*%
X137432164Y-63225617D02*
X137647836Y-63225617D01*
X137432164Y-63945617D02*
X137647836Y-63945617D01*
%TO.C,D2*%
D13*
X136445000Y-48860618D02*
X136445000Y-48060618D01*
%TO.C,C17*%
D14*
X130215581Y-50530617D02*
X129934419Y-50530617D01*
X130215581Y-51550617D02*
X129934419Y-51550617D01*
%TO.C,U9*%
X146457000Y-56425617D02*
X146457000Y-56835617D01*
X146467000Y-59225617D02*
X146467000Y-59635617D01*
X146467000Y-59635617D02*
X146877000Y-59635617D01*
X146867000Y-56425617D02*
X146457000Y-56425617D01*
X149257000Y-59625617D02*
X149667000Y-59625617D01*
X149667000Y-56415617D02*
X149257000Y-56415617D01*
X149667000Y-56825617D02*
X149667000Y-56415617D01*
X149667000Y-59625617D02*
X149667000Y-59215617D01*
X146366975Y-58828046D02*
G75*
G02*
X146367000Y-58825617I-119975J2449D01*
G01*
X146597000Y-59525617D02*
G75*
G02*
X146537000Y-59525617I-30000J0D01*
G01*
X146537000Y-59525617D02*
G75*
G02*
X146597000Y-59525617I30000J0D01*
G01*
%TO.C,U10*%
X146242001Y-62955617D02*
X146242001Y-60755617D01*
X146302000Y-60755617D02*
X146242001Y-60755617D01*
X146302000Y-62955617D02*
X146242001Y-62955617D01*
X149042001Y-60755617D02*
X148982002Y-60755617D01*
X149042001Y-62955617D02*
X148982002Y-62955617D01*
X149042001Y-62955617D02*
X149042001Y-60755617D01*
X148742001Y-60555617D02*
G75*
G02*
X148542001Y-60555617I-100000J0D01*
G01*
X148542001Y-60555617D02*
G75*
G02*
X148742001Y-60555617I100000J0D01*
G01*
X148922001Y-60855617D02*
G75*
G02*
X148862001Y-60855617I-30000J0D01*
G01*
X148862001Y-60855617D02*
G75*
G02*
X148922001Y-60855617I30000J0D01*
G01*
%TO.C,C19*%
X143235308Y-73457518D02*
X143516470Y-73457518D01*
X143235308Y-74477518D02*
X143516470Y-74477518D01*
%TO.C,R24*%
X145085000Y-60266976D02*
X145085000Y-60574258D01*
X145845000Y-60266976D02*
X145845000Y-60574258D01*
%TO.C,R29*%
X134970150Y-54084259D02*
X134970150Y-53776977D01*
X135730150Y-54084259D02*
X135730150Y-53776977D01*
%TD*%
M02*
