%TF.GenerationSoftware,KiCad,Pcbnew,10.0.3*%
%TF.CreationDate,2026-09-06T18:49:29+02:00*%
%TF.ProjectId,LEVIA_H7_M2,4c455649-415f-4483-975f-4d322e6b6963,0.1*%
%TF.SameCoordinates,Original*%
%TF.FileFunction,Legend,Top*%
%TF.FilePolarity,Positive*%
%FSLAX46Y46*%
G04 Gerber Fmt 4.6, Leading zero omitted, Abs format (unit mm)*
G04 Created by KiCad (PCBNEW 10.0.3) date 2026-09-06 18:49:29*
%MOMM*%
%LPD*%
G01*
G04 APERTURE LIST*
%ADD10C,0.000000*%
%ADD11C,0.120000*%
%ADD12C,0.200000*%
%ADD13C,0.250000*%
%ADD14C,0.100000*%
%ADD15C,0.060000*%
%ADD16C,0.130000*%
G04 APERTURE END LIST*
D10*
G36*
X145715975Y-66061609D02*
G01*
X145614410Y-66061609D01*
X145664204Y-65804756D01*
X145666185Y-65804755D01*
X145715975Y-66061609D01*
G37*
G36*
X145309535Y-58901589D02*
G01*
X142375956Y-64031320D01*
X142362185Y-64057189D01*
X142353242Y-64074892D01*
X142350750Y-64080342D01*
X142349723Y-64083314D01*
X142374211Y-64087222D01*
X145498359Y-64106261D01*
X146158406Y-65248113D01*
X146159029Y-65249929D01*
X140334378Y-65263997D01*
X143975538Y-58891979D01*
X145309535Y-58901589D01*
G37*
G36*
X145412452Y-58957976D02*
G01*
X145414349Y-58958923D01*
X145416618Y-58960587D01*
X145419247Y-58962934D01*
X145422180Y-58965919D01*
X145425389Y-58969511D01*
X149114764Y-65302497D01*
X148461607Y-66422095D01*
X148457831Y-66426617D01*
X148454378Y-66430506D01*
X148451257Y-66433724D01*
X148448513Y-66436218D01*
X148447290Y-66437175D01*
X148446191Y-66437969D01*
X148445173Y-66438517D01*
X148444281Y-66438875D01*
X148443269Y-66438801D01*
X148441884Y-66438062D01*
X148438083Y-66434714D01*
X148432978Y-66428953D01*
X148426603Y-66420877D01*
X145423742Y-61298651D01*
X145419272Y-61295320D01*
X145417461Y-61294487D01*
X145415959Y-61294195D01*
X145414657Y-61294230D01*
X145413332Y-61294371D01*
X145410574Y-61294937D01*
X145409175Y-61295334D01*
X145407750Y-61295843D01*
X145401922Y-61298629D01*
X143844733Y-64003781D01*
X142543041Y-63996573D01*
X142530601Y-63994740D01*
X142523168Y-63992754D01*
X142521323Y-63991701D01*
X142520703Y-63990609D01*
X142525581Y-63976125D01*
X144468067Y-60574897D01*
X145393029Y-58976114D01*
X145398497Y-58969374D01*
X145403242Y-58964099D01*
X145405333Y-58962034D01*
X145407191Y-58960389D01*
X145408841Y-58959134D01*
X145410267Y-58958320D01*
X145411487Y-58957924D01*
X145412452Y-58957976D01*
G37*
G36*
X142241526Y-65696300D02*
G01*
X142247734Y-65696639D01*
X142253673Y-65697177D01*
X142259340Y-65697957D01*
X142264740Y-65698935D01*
X142269879Y-65700120D01*
X142274732Y-65701552D01*
X142277092Y-65702333D01*
X142279346Y-65703180D01*
X142281564Y-65704057D01*
X142283718Y-65705043D01*
X142285775Y-65706042D01*
X142287789Y-65707109D01*
X142289739Y-65708222D01*
X142291596Y-65709385D01*
X142293418Y-65710626D01*
X142295164Y-65711906D01*
X142296821Y-65713239D01*
X142298446Y-65714623D01*
X142299970Y-65716069D01*
X142301479Y-65717566D01*
X142302886Y-65719126D01*
X142304225Y-65720724D01*
X142305525Y-65722386D01*
X142306729Y-65724098D01*
X142307832Y-65725990D01*
X142308884Y-65727932D01*
X142309882Y-65729918D01*
X142310840Y-65731936D01*
X142311751Y-65734019D01*
X142312605Y-65736145D01*
X142313432Y-65738317D01*
X142314196Y-65740527D01*
X142314939Y-65742787D01*
X142315607Y-65745088D01*
X142316226Y-65747461D01*
X142316824Y-65749863D01*
X142317340Y-65752309D01*
X142317845Y-65754814D01*
X142318297Y-65757355D01*
X142318684Y-65759923D01*
X142319400Y-65765038D01*
X142319998Y-65770328D01*
X142320522Y-65775861D01*
X142320941Y-65781606D01*
X142321282Y-65787565D01*
X142321515Y-65793740D01*
X142321666Y-65800146D01*
X142321700Y-65806747D01*
X142321666Y-65813385D01*
X142321515Y-65819821D01*
X142321282Y-65826068D01*
X142320941Y-65832149D01*
X142320522Y-65838026D01*
X142319998Y-65843718D01*
X142319400Y-65849235D01*
X142318684Y-65854541D01*
X142318299Y-65857002D01*
X142317867Y-65859430D01*
X142317394Y-65861813D01*
X142316879Y-65864119D01*
X142316336Y-65866400D01*
X142315757Y-65868640D01*
X142315142Y-65870827D01*
X142314460Y-65872954D01*
X142313765Y-65875049D01*
X142313032Y-65877086D01*
X142312244Y-65879084D01*
X142311421Y-65881042D01*
X142310562Y-65882944D01*
X142309660Y-65884820D01*
X142308725Y-65886635D01*
X142307746Y-65888384D01*
X142306606Y-65890099D01*
X142305400Y-65891777D01*
X142304147Y-65893394D01*
X142302841Y-65894974D01*
X142301479Y-65896504D01*
X142300039Y-65897991D01*
X142298569Y-65899433D01*
X142297032Y-65900820D01*
X142295455Y-65902145D01*
X142293812Y-65903446D01*
X142292137Y-65904695D01*
X142290389Y-65905913D01*
X142288586Y-65907068D01*
X142286744Y-65908176D01*
X142284827Y-65909234D01*
X142282860Y-65910269D01*
X142280816Y-65911113D01*
X142278714Y-65911903D01*
X142276498Y-65912628D01*
X142274210Y-65913311D01*
X142271828Y-65913945D01*
X142269371Y-65914520D01*
X142266818Y-65915035D01*
X142264182Y-65915498D01*
X142261465Y-65915907D01*
X142258657Y-65916269D01*
X142252789Y-65916821D01*
X142246590Y-65917154D01*
X142240022Y-65917256D01*
X142182270Y-65917256D01*
X142182270Y-65696191D01*
X142235065Y-65696191D01*
X142241526Y-65696300D01*
G37*
G36*
X141261975Y-65696232D02*
G01*
X141265548Y-65696348D01*
X141269004Y-65696530D01*
X141272363Y-65696764D01*
X141275600Y-65697076D01*
X141278741Y-65697464D01*
X141281748Y-65697936D01*
X141284682Y-65698461D01*
X141287498Y-65699054D01*
X141290182Y-65699717D01*
X141292783Y-65700462D01*
X141295258Y-65701265D01*
X141297634Y-65702152D01*
X141299897Y-65703091D01*
X141302043Y-65704091D01*
X141304083Y-65705182D01*
X141306068Y-65706350D01*
X141307957Y-65707558D01*
X141309789Y-65708837D01*
X141311577Y-65710167D01*
X141313280Y-65711558D01*
X141314926Y-65713015D01*
X141316508Y-65714539D01*
X141318049Y-65716141D01*
X141319522Y-65717780D01*
X141320904Y-65719501D01*
X141322245Y-65721256D01*
X141323529Y-65723104D01*
X141324743Y-65724991D01*
X141325898Y-65726941D01*
X141326980Y-65728965D01*
X141328012Y-65731066D01*
X141328977Y-65733197D01*
X141329899Y-65735389D01*
X141330761Y-65737604D01*
X141331559Y-65739894D01*
X141332298Y-65742210D01*
X141333011Y-65744595D01*
X141333653Y-65747008D01*
X141334229Y-65749461D01*
X141334757Y-65751978D01*
X141335222Y-65754531D01*
X141335671Y-65757149D01*
X141336052Y-65759807D01*
X141336352Y-65762493D01*
X141336600Y-65765249D01*
X141336965Y-65770881D01*
X141337390Y-65782022D01*
X141337695Y-65793533D01*
X141337877Y-65805427D01*
X141337926Y-65817689D01*
X141337898Y-65824336D01*
X141337808Y-65830819D01*
X141337662Y-65837156D01*
X141337431Y-65843323D01*
X141337153Y-65849337D01*
X141336817Y-65855199D01*
X141336400Y-65860913D01*
X141335944Y-65866460D01*
X141335788Y-65869158D01*
X141335578Y-65871835D01*
X141335328Y-65874430D01*
X141335002Y-65876973D01*
X141334630Y-65879465D01*
X141334209Y-65881913D01*
X141333748Y-65884303D01*
X141333211Y-65886637D01*
X141332624Y-65888909D01*
X141331983Y-65891131D01*
X141331288Y-65893299D01*
X141330537Y-65895410D01*
X141329733Y-65897466D01*
X141328879Y-65899472D01*
X141327969Y-65901390D01*
X141326980Y-65903306D01*
X141325959Y-65905281D01*
X141324853Y-65907176D01*
X141323687Y-65909043D01*
X141322451Y-65910848D01*
X141321141Y-65912577D01*
X141319761Y-65914269D01*
X141318305Y-65915907D01*
X141316791Y-65917493D01*
X141315193Y-65919034D01*
X141313535Y-65920495D01*
X141311817Y-65921916D01*
X141310001Y-65923277D01*
X141308138Y-65924588D01*
X141306193Y-65925845D01*
X141304168Y-65927049D01*
X141302105Y-65928200D01*
X141299933Y-65929283D01*
X141297650Y-65930294D01*
X141295259Y-65931240D01*
X141292781Y-65932115D01*
X141290170Y-65932924D01*
X141287445Y-65933669D01*
X141284621Y-65934313D01*
X141281690Y-65934907D01*
X141278644Y-65935439D01*
X141275499Y-65935881D01*
X141272240Y-65936261D01*
X141268879Y-65936592D01*
X141265394Y-65936834D01*
X141261820Y-65937014D01*
X141254315Y-65937133D01*
X141205486Y-65937133D01*
X141205486Y-65696191D01*
X141258297Y-65696191D01*
X141261975Y-65696232D01*
G37*
G36*
X144886039Y-65696271D02*
G01*
X144889437Y-65696475D01*
X144892747Y-65696828D01*
X144896021Y-65697321D01*
X144899236Y-65697972D01*
X144902366Y-65698721D01*
X144905434Y-65699651D01*
X144908472Y-65700681D01*
X144911401Y-65701871D01*
X144914306Y-65703222D01*
X144917142Y-65704686D01*
X144919915Y-65706299D01*
X144922609Y-65708035D01*
X144925266Y-65709940D01*
X144927840Y-65711974D01*
X144930357Y-65714133D01*
X144932891Y-65716334D01*
X144935273Y-65718693D01*
X144937480Y-65721192D01*
X144939506Y-65723854D01*
X144941401Y-65726661D01*
X144943128Y-65729628D01*
X144944657Y-65732757D01*
X144946050Y-65736051D01*
X144947260Y-65739484D01*
X144948335Y-65743087D01*
X144949223Y-65746828D01*
X144949965Y-65750731D01*
X144950540Y-65754800D01*
X144950940Y-65759011D01*
X144951189Y-65763386D01*
X144951271Y-65767913D01*
X144951271Y-66142255D01*
X144951190Y-66146797D01*
X144950940Y-66151177D01*
X144950540Y-66155417D01*
X144949965Y-66159502D01*
X144949223Y-66163447D01*
X144948335Y-66167246D01*
X144947260Y-66170898D01*
X144946050Y-66174369D01*
X144944657Y-66177729D01*
X144943128Y-66180934D01*
X144941401Y-66183998D01*
X144939506Y-66186917D01*
X144937480Y-66189674D01*
X144935273Y-66192275D01*
X144932891Y-66194735D01*
X144930357Y-66197061D01*
X144927834Y-66199097D01*
X144925266Y-66201022D01*
X144922609Y-66202809D01*
X144919915Y-66204473D01*
X144917142Y-66205977D01*
X144914302Y-66207361D01*
X144911401Y-66208628D01*
X144908472Y-66209731D01*
X144905434Y-66210740D01*
X144902366Y-66211602D01*
X144899233Y-66212318D01*
X144896021Y-66212914D01*
X144892747Y-66213383D01*
X144889437Y-66213705D01*
X144886038Y-66213909D01*
X144882581Y-66213966D01*
X144879117Y-66213909D01*
X144875715Y-66213705D01*
X144872357Y-66213383D01*
X144869060Y-66212914D01*
X144865830Y-66212318D01*
X144862637Y-66211602D01*
X144859498Y-66210740D01*
X144856433Y-66209731D01*
X144853401Y-66208628D01*
X144850423Y-66207361D01*
X144847525Y-66205977D01*
X144844653Y-66204473D01*
X144841848Y-66202809D01*
X144839100Y-66201022D01*
X144836411Y-66199095D01*
X144833761Y-66197061D01*
X144831355Y-66194735D01*
X144829104Y-66192275D01*
X144826993Y-66189673D01*
X144825056Y-66186912D01*
X144823276Y-66183998D01*
X144821634Y-66180934D01*
X144820163Y-66177729D01*
X144818843Y-66174369D01*
X144817679Y-66170898D01*
X144816661Y-66167246D01*
X144815815Y-66163447D01*
X144815118Y-66159502D01*
X144814578Y-66155417D01*
X144814183Y-66151177D01*
X144813957Y-66146797D01*
X144813876Y-66142255D01*
X144813876Y-65767913D01*
X144813957Y-65763386D01*
X144814183Y-65759011D01*
X144814578Y-65754800D01*
X144815118Y-65750731D01*
X144815815Y-65746828D01*
X144816658Y-65743087D01*
X144817670Y-65739484D01*
X144818843Y-65736051D01*
X144820163Y-65732757D01*
X144821634Y-65729628D01*
X144823276Y-65726661D01*
X144825056Y-65723854D01*
X144826993Y-65721192D01*
X144829104Y-65718693D01*
X144831355Y-65716334D01*
X144833761Y-65714133D01*
X144836411Y-65711974D01*
X144839100Y-65709940D01*
X144841850Y-65708035D01*
X144844653Y-65706299D01*
X144847525Y-65704686D01*
X144850423Y-65703222D01*
X144853401Y-65701871D01*
X144856433Y-65700681D01*
X144859498Y-65699651D01*
X144862637Y-65698721D01*
X144865830Y-65697972D01*
X144869060Y-65697321D01*
X144872357Y-65696828D01*
X144875715Y-65696475D01*
X144879117Y-65696271D01*
X144882581Y-65696191D01*
X144886039Y-65696271D01*
G37*
G36*
X145422951Y-61489586D02*
G01*
X145434512Y-61504097D01*
X145450660Y-61527068D01*
X148337033Y-66502087D01*
X140988229Y-66535537D01*
X140857544Y-66309553D01*
X140452907Y-65600618D01*
X141103976Y-65600618D01*
X141103976Y-66309553D01*
X141512175Y-66309553D01*
X141613750Y-66309548D01*
X141712333Y-66309548D01*
X142015027Y-66309553D01*
X142080704Y-66309553D01*
X142182270Y-66309553D01*
X142182270Y-66006859D01*
X142243034Y-66006859D01*
X142337597Y-66309553D01*
X142445142Y-66309553D01*
X142504889Y-66309553D01*
X142807582Y-66309553D01*
X142807582Y-66207991D01*
X142606451Y-66207991D01*
X142606451Y-66150233D01*
X142606451Y-65600611D01*
X142873268Y-65600611D01*
X142873268Y-66150233D01*
X142873318Y-66154576D01*
X142873471Y-66158852D01*
X142873717Y-66163120D01*
X142874082Y-66167338D01*
X142874543Y-66171531D01*
X142875100Y-66175663D01*
X142875757Y-66179768D01*
X142876524Y-66183821D01*
X142877383Y-66187866D01*
X142878367Y-66191843D01*
X142879422Y-66195795D01*
X142880586Y-66199705D01*
X142881840Y-66203576D01*
X142883208Y-66207395D01*
X142884690Y-66211186D01*
X142886247Y-66214942D01*
X142887905Y-66218533D01*
X142889650Y-66222065D01*
X142891462Y-66225574D01*
X142893344Y-66229017D01*
X142895313Y-66232427D01*
X142897355Y-66235766D01*
X142899476Y-66239068D01*
X142901676Y-66242311D01*
X142903951Y-66245555D01*
X142906314Y-66248702D01*
X142908746Y-66251836D01*
X142911260Y-66254905D01*
X142913836Y-66257927D01*
X142916507Y-66260901D01*
X142919256Y-66263840D01*
X142922072Y-66266722D01*
X142924977Y-66269558D01*
X142927912Y-66272303D01*
X142930875Y-66274966D01*
X142933899Y-66277549D01*
X142936982Y-66280077D01*
X142940100Y-66282515D01*
X142943256Y-66284863D01*
X142946482Y-66287156D01*
X142949740Y-66289352D01*
X142953043Y-66291480D01*
X142956388Y-66293528D01*
X142959791Y-66295510D01*
X142963245Y-66297414D01*
X142966743Y-66299210D01*
X142970277Y-66300941D01*
X142973862Y-66302604D01*
X142977624Y-66304170D01*
X142981397Y-66305640D01*
X142985197Y-66307010D01*
X142989042Y-66308261D01*
X142992929Y-66309424D01*
X142996820Y-66310485D01*
X143000756Y-66311448D01*
X143004735Y-66312305D01*
X143008726Y-66313065D01*
X143012757Y-66313712D01*
X143016834Y-66314277D01*
X143020907Y-66314732D01*
X143025046Y-66315098D01*
X143029204Y-66315335D01*
X143033380Y-66315491D01*
X143037602Y-66315535D01*
X143041808Y-66315491D01*
X143046000Y-66315335D01*
X143050152Y-66315098D01*
X143054266Y-66314732D01*
X143058364Y-66314277D01*
X143062404Y-66313712D01*
X143066442Y-66313065D01*
X143070436Y-66312305D01*
X143074395Y-66311448D01*
X143078335Y-66310485D01*
X143081782Y-66309548D01*
X143082236Y-66309424D01*
X143086108Y-66308261D01*
X143089943Y-66307010D01*
X143093755Y-66305640D01*
X143097530Y-66304170D01*
X143101293Y-66302604D01*
X143104981Y-66300941D01*
X143108644Y-66299210D01*
X143112258Y-66297414D01*
X143115783Y-66295510D01*
X143119286Y-66293528D01*
X143122709Y-66291480D01*
X143126099Y-66289357D01*
X143129428Y-66287156D01*
X143132699Y-66284869D01*
X143135926Y-66282515D01*
X143139086Y-66280077D01*
X143142195Y-66277556D01*
X143145251Y-66274966D01*
X143148255Y-66272303D01*
X143151195Y-66269559D01*
X143154093Y-66266722D01*
X143156897Y-66263840D01*
X143159625Y-66260901D01*
X143162281Y-66257927D01*
X143164858Y-66254905D01*
X143167328Y-66251836D01*
X143169728Y-66248702D01*
X143172029Y-66245555D01*
X143174251Y-66242310D01*
X143176384Y-66239066D01*
X143178425Y-66235766D01*
X143180406Y-66232427D01*
X143182284Y-66229017D01*
X143184071Y-66225567D01*
X143185774Y-66222065D01*
X143187399Y-66218533D01*
X143188949Y-66214942D01*
X143190518Y-66211186D01*
X143191968Y-66207395D01*
X143193334Y-66203576D01*
X143194592Y-66199705D01*
X143195758Y-66195795D01*
X143196821Y-66191843D01*
X143197777Y-66187866D01*
X143198632Y-66183821D01*
X143199395Y-66179768D01*
X143200044Y-66175663D01*
X143200605Y-66171531D01*
X143201059Y-66167338D01*
X143201411Y-66163120D01*
X143201677Y-66158852D01*
X143201818Y-66154576D01*
X143201875Y-66150233D01*
X143201875Y-65600618D01*
X143300427Y-65600618D01*
X143300427Y-66309548D01*
X143401988Y-66309553D01*
X143401988Y-66142255D01*
X143494600Y-66142255D01*
X143494651Y-66147822D01*
X143494828Y-66153262D01*
X143495124Y-66158610D01*
X143495531Y-66163870D01*
X143496054Y-66168986D01*
X143496697Y-66174056D01*
X143497462Y-66178992D01*
X143498318Y-66183821D01*
X143499316Y-66188569D01*
X143500425Y-66193219D01*
X143501659Y-66197745D01*
X143502999Y-66202189D01*
X143504447Y-66206523D01*
X143506008Y-66210769D01*
X143507700Y-66214902D01*
X143509528Y-66218918D01*
X143511430Y-66222870D01*
X143513415Y-66226727D01*
X143515478Y-66230502D01*
X143517614Y-66234182D01*
X143519833Y-66237792D01*
X143522132Y-66241300D01*
X143524488Y-66244735D01*
X143526945Y-66248069D01*
X143529477Y-66251329D01*
X143532094Y-66254499D01*
X143534751Y-66257594D01*
X143537524Y-66260600D01*
X143540357Y-66263504D01*
X143543278Y-66266333D01*
X143546268Y-66269074D01*
X143549332Y-66271734D01*
X143552351Y-66274430D01*
X143555406Y-66277022D01*
X143558521Y-66279559D01*
X143561666Y-66281999D01*
X143564864Y-66284341D01*
X143568095Y-66286601D01*
X143571401Y-66288785D01*
X143574734Y-66290876D01*
X143578127Y-66292872D01*
X143581548Y-66294811D01*
X143585034Y-66296639D01*
X143588545Y-66298389D01*
X143592115Y-66300061D01*
X143595754Y-66301647D01*
X143599399Y-66303136D01*
X143603115Y-66304535D01*
X143610823Y-66307121D01*
X143618558Y-66309337D01*
X143622408Y-66310338D01*
X143626269Y-66311232D01*
X143630115Y-66312042D01*
X143633985Y-66312776D01*
X143637843Y-66313422D01*
X143641700Y-66313972D01*
X143645569Y-66314442D01*
X143649413Y-66314835D01*
X143653276Y-66315149D01*
X143657126Y-66315369D01*
X143660994Y-66315510D01*
X143664851Y-66315535D01*
X143668717Y-66315510D01*
X143672568Y-66315376D01*
X143676385Y-66315149D01*
X143680227Y-66314835D01*
X143684051Y-66314442D01*
X143687863Y-66313972D01*
X143691667Y-66313422D01*
X143695467Y-66312776D01*
X143699259Y-66312042D01*
X143703035Y-66311232D01*
X143706812Y-66310342D01*
X143709773Y-66309553D01*
X143710572Y-66309337D01*
X143714337Y-66308275D01*
X143718096Y-66307121D01*
X143721836Y-66305873D01*
X143725585Y-66304535D01*
X143729424Y-66303145D01*
X143733198Y-66301648D01*
X143736944Y-66300061D01*
X143740636Y-66298389D01*
X143744300Y-66296639D01*
X143747897Y-66294811D01*
X143751451Y-66292872D01*
X143754950Y-66290876D01*
X143758410Y-66288785D01*
X143761837Y-66286601D01*
X143765198Y-66284341D01*
X143768534Y-66281999D01*
X143771787Y-66279558D01*
X143775029Y-66277022D01*
X143778205Y-66274430D01*
X143781346Y-66271734D01*
X143784295Y-66269071D01*
X143787179Y-66266332D01*
X143790001Y-66263504D01*
X143792734Y-66260600D01*
X143795410Y-66257594D01*
X143798016Y-66254499D01*
X143800544Y-66251329D01*
X143803001Y-66248069D01*
X143805407Y-66244735D01*
X143807725Y-66241300D01*
X143809977Y-66237792D01*
X143812156Y-66234182D01*
X143814277Y-66230502D01*
X143816314Y-66226719D01*
X143818291Y-66222870D01*
X143820188Y-66218918D01*
X143821992Y-66214902D01*
X143823701Y-66210769D01*
X143825265Y-66206523D01*
X143826722Y-66202189D01*
X143828055Y-66197745D01*
X143829276Y-66193219D01*
X143830405Y-66188569D01*
X143831388Y-66183821D01*
X143832272Y-66178992D01*
X143833013Y-66174056D01*
X143833654Y-66168986D01*
X143834187Y-66163870D01*
X143834594Y-66158610D01*
X143834881Y-66153262D01*
X143835053Y-66147822D01*
X143835108Y-66142255D01*
X143835108Y-65919258D01*
X143652897Y-65919258D01*
X143652897Y-66008865D01*
X143733551Y-66008865D01*
X143733551Y-66142260D01*
X143733479Y-66146806D01*
X143733218Y-66151178D01*
X143732824Y-66155417D01*
X143732249Y-66159502D01*
X143731520Y-66163447D01*
X143730621Y-66167246D01*
X143729548Y-66170898D01*
X143728345Y-66174369D01*
X143726935Y-66177729D01*
X143725388Y-66180934D01*
X143723669Y-66183998D01*
X143721794Y-66186912D01*
X143719759Y-66189673D01*
X143717546Y-66192275D01*
X143715176Y-66194735D01*
X143712656Y-66197061D01*
X143710137Y-66199095D01*
X143707548Y-66201020D01*
X143704887Y-66202809D01*
X143702187Y-66204473D01*
X143699436Y-66205973D01*
X143696592Y-66207361D01*
X143693694Y-66208628D01*
X143690740Y-66209731D01*
X143687726Y-66210736D01*
X143684637Y-66211602D01*
X143681494Y-66212318D01*
X143678305Y-66212914D01*
X143675029Y-66213383D01*
X143671709Y-66213705D01*
X143668306Y-66213909D01*
X143664851Y-66213976D01*
X143661402Y-66213909D01*
X143657985Y-66213705D01*
X143654651Y-66213385D01*
X143651331Y-66212914D01*
X143648110Y-66212318D01*
X143644919Y-66211602D01*
X143641786Y-66210740D01*
X143638713Y-66209731D01*
X143635674Y-66208628D01*
X143632715Y-66207363D01*
X143629801Y-66205977D01*
X143626936Y-66204473D01*
X143624132Y-66202809D01*
X143621375Y-66201022D01*
X143618692Y-66199097D01*
X143616051Y-66197061D01*
X143613633Y-66194735D01*
X143611376Y-66192275D01*
X143609282Y-66189674D01*
X143607344Y-66186917D01*
X143605547Y-66183998D01*
X143603906Y-66180934D01*
X143602461Y-66177729D01*
X143601124Y-66174369D01*
X143599957Y-66170898D01*
X143598953Y-66167246D01*
X143598105Y-66163447D01*
X143597405Y-66159502D01*
X143596852Y-66155417D01*
X143596474Y-66151177D01*
X143596239Y-66146797D01*
X143596164Y-66142255D01*
X143596164Y-65767913D01*
X143596239Y-65763386D01*
X143596474Y-65759011D01*
X143596852Y-65754800D01*
X143597405Y-65750731D01*
X143598105Y-65746828D01*
X143598953Y-65743087D01*
X143599957Y-65739484D01*
X143601124Y-65736051D01*
X143602461Y-65732755D01*
X143603906Y-65729628D01*
X143605547Y-65726661D01*
X143607344Y-65723854D01*
X143609282Y-65721192D01*
X143611376Y-65718693D01*
X143613633Y-65716334D01*
X143616051Y-65714133D01*
X143618702Y-65711974D01*
X143621375Y-65709940D01*
X143624132Y-65708035D01*
X143626936Y-65706299D01*
X143629801Y-65704685D01*
X143632715Y-65703222D01*
X143635674Y-65701871D01*
X143638713Y-65700681D01*
X143641786Y-65699651D01*
X143644919Y-65698721D01*
X143648110Y-65697971D01*
X143651331Y-65697321D01*
X143654651Y-65696828D01*
X143657985Y-65696475D01*
X143661402Y-65696271D01*
X143664851Y-65696191D01*
X143668306Y-65696271D01*
X143671709Y-65696475D01*
X143675029Y-65696828D01*
X143678305Y-65697321D01*
X143681494Y-65697971D01*
X143684637Y-65698721D01*
X143687726Y-65699651D01*
X143690740Y-65700681D01*
X143693694Y-65701871D01*
X143696589Y-65703222D01*
X143699436Y-65704685D01*
X143702187Y-65706299D01*
X143704887Y-65708035D01*
X143707548Y-65709940D01*
X143710137Y-65711974D01*
X143712656Y-65714133D01*
X143715176Y-65716334D01*
X143717546Y-65718693D01*
X143719749Y-65721192D01*
X143721794Y-65723854D01*
X143723669Y-65726661D01*
X143725388Y-65729628D01*
X143726935Y-65732757D01*
X143728333Y-65736051D01*
X143729547Y-65739484D01*
X143730621Y-65743087D01*
X143731520Y-65746828D01*
X143732249Y-65750731D01*
X143732824Y-65754800D01*
X143733218Y-65759011D01*
X143733479Y-65763386D01*
X143733551Y-65767913D01*
X143733551Y-65803745D01*
X143835111Y-65803745D01*
X143835108Y-65767913D01*
X143835053Y-65762579D01*
X143834881Y-65757377D01*
X143834594Y-65752201D01*
X143834187Y-65747124D01*
X143833654Y-65742111D01*
X143833013Y-65737194D01*
X143832272Y-65732336D01*
X143831388Y-65727570D01*
X143830405Y-65722889D01*
X143829276Y-65718275D01*
X143828055Y-65713729D01*
X143826722Y-65709263D01*
X143825265Y-65704883D01*
X143823701Y-65700603D01*
X143821992Y-65696358D01*
X143820188Y-65692222D01*
X143818291Y-65688151D01*
X143816314Y-65684170D01*
X143814277Y-65680280D01*
X143812156Y-65676463D01*
X143809977Y-65672753D01*
X143807725Y-65669112D01*
X143805407Y-65665571D01*
X143803001Y-65662101D01*
X143800544Y-65658722D01*
X143798016Y-65655434D01*
X143795410Y-65652216D01*
X143792734Y-65649112D01*
X143790001Y-65646067D01*
X143787179Y-65643104D01*
X143784295Y-65640254D01*
X143781346Y-65637474D01*
X143778205Y-65634888D01*
X143775029Y-65632402D01*
X143771787Y-65629970D01*
X143768534Y-65627644D01*
X143765198Y-65625365D01*
X143761837Y-65623191D01*
X143758410Y-65621086D01*
X143754950Y-65619043D01*
X143751451Y-65617114D01*
X143747897Y-65615239D01*
X143744300Y-65613449D01*
X143740636Y-65611717D01*
X143736944Y-65610078D01*
X143733198Y-65608532D01*
X143729424Y-65607025D01*
X143725585Y-65605633D01*
X143721836Y-65604299D01*
X143718096Y-65603058D01*
X143714337Y-65601889D01*
X143710578Y-65600834D01*
X143709731Y-65600611D01*
X143927740Y-65600611D01*
X143927740Y-66309553D01*
X144029290Y-66309553D01*
X144029290Y-66148244D01*
X144029290Y-65757929D01*
X144307088Y-65757929D01*
X144307088Y-66148244D01*
X144307151Y-66154281D01*
X144307336Y-66160189D01*
X144307613Y-66165950D01*
X144308022Y-66171582D01*
X144308556Y-66177081D01*
X144309181Y-66182451D01*
X144309946Y-66187697D01*
X144310822Y-66192805D01*
X144311826Y-66197783D01*
X144312920Y-66202613D01*
X144314145Y-66207322D01*
X144315492Y-66211921D01*
X144316945Y-66216355D01*
X144318518Y-66220668D01*
X144320202Y-66224860D01*
X144322009Y-66228891D01*
X144324044Y-66232719D01*
X144326122Y-66236436D01*
X144328264Y-66240089D01*
X144330474Y-66243643D01*
X144332753Y-66247126D01*
X144335071Y-66250497D01*
X144337474Y-66253802D01*
X144339936Y-66257012D01*
X144342465Y-66260136D01*
X144345026Y-66263187D01*
X144347677Y-66266149D01*
X144350392Y-66269020D01*
X144353154Y-66271804D01*
X144355976Y-66274512D01*
X144358876Y-66277123D01*
X144361822Y-66279663D01*
X144364821Y-66282101D01*
X144367911Y-66284456D01*
X144371003Y-66286712D01*
X144374157Y-66288864D01*
X144377346Y-66290925D01*
X144380578Y-66292908D01*
X144383883Y-66294807D01*
X144387235Y-66296589D01*
X144390618Y-66298278D01*
X144394042Y-66299903D01*
X144397528Y-66301403D01*
X144401036Y-66302825D01*
X144404616Y-66304143D01*
X144408231Y-66305384D01*
X144411893Y-66306520D01*
X144415599Y-66307553D01*
X144423061Y-66309424D01*
X144430483Y-66311052D01*
X144437870Y-66312414D01*
X144445222Y-66313545D01*
X144452540Y-66314397D01*
X144459838Y-66315028D01*
X144467103Y-66315405D01*
X144474326Y-66315535D01*
X144478548Y-66315497D01*
X144482726Y-66315335D01*
X144486840Y-66315098D01*
X144490949Y-66314732D01*
X144495000Y-66314277D01*
X144499024Y-66313712D01*
X144502986Y-66313065D01*
X144506938Y-66312305D01*
X144510835Y-66311448D01*
X144514701Y-66310485D01*
X144518536Y-66309424D01*
X144522295Y-66308261D01*
X144526029Y-66307010D01*
X144529760Y-66305640D01*
X144533423Y-66304170D01*
X144537028Y-66302604D01*
X144540751Y-66300832D01*
X144544391Y-66298971D01*
X144547981Y-66297062D01*
X144551494Y-66295075D01*
X144554950Y-66293010D01*
X144558325Y-66290884D01*
X144561665Y-66288685D01*
X144564931Y-66286414D01*
X144568141Y-66284087D01*
X144571280Y-66281672D01*
X144574358Y-66279191D01*
X144577372Y-66276634D01*
X144580342Y-66274020D01*
X144583228Y-66271323D01*
X144586060Y-66268563D01*
X144588826Y-66265746D01*
X144591528Y-66262874D01*
X144594144Y-66259921D01*
X144596690Y-66256948D01*
X144599157Y-66253933D01*
X144601555Y-66250848D01*
X144603864Y-66247723D01*
X144606104Y-66244563D01*
X144608261Y-66241354D01*
X144610336Y-66238102D01*
X144612338Y-66234783D01*
X144614275Y-66231443D01*
X144616107Y-66228038D01*
X144617878Y-66224602D01*
X144619563Y-66221098D01*
X144621184Y-66217561D01*
X144622718Y-66213976D01*
X144624288Y-66210235D01*
X144625738Y-66206442D01*
X144627127Y-66202669D01*
X144628371Y-66198850D01*
X144629537Y-66195008D01*
X144630605Y-66191160D01*
X144631568Y-66187262D01*
X144632418Y-66183359D01*
X144633181Y-66179435D01*
X144633839Y-66175470D01*
X144634394Y-66171503D01*
X144634842Y-66167499D01*
X144635179Y-66163475D01*
X144635438Y-66159425D01*
X144635591Y-66155345D01*
X144635635Y-66151246D01*
X144635635Y-66142255D01*
X144712311Y-66142255D01*
X144712370Y-66147822D01*
X144712548Y-66153262D01*
X144712844Y-66158610D01*
X144713248Y-66163870D01*
X144713784Y-66168986D01*
X144714416Y-66174056D01*
X144715168Y-66178992D01*
X144716033Y-66183821D01*
X144717036Y-66188569D01*
X144718149Y-66193219D01*
X144719375Y-66197745D01*
X144720710Y-66202181D01*
X144722174Y-66206523D01*
X144723745Y-66210769D01*
X144725442Y-66214902D01*
X144727233Y-66218918D01*
X144729143Y-66222870D01*
X144731119Y-66226719D01*
X144733183Y-66230502D01*
X144735332Y-66234182D01*
X144737539Y-66237792D01*
X144739845Y-66241300D01*
X144742221Y-66244731D01*
X144744672Y-66248067D01*
X144747183Y-66251329D01*
X144749807Y-66254499D01*
X144752485Y-66257594D01*
X144755244Y-66260600D01*
X144758085Y-66263504D01*
X144760994Y-66266333D01*
X144763986Y-66269074D01*
X144767060Y-66271734D01*
X144770066Y-66274430D01*
X144773140Y-66277022D01*
X144776230Y-66279559D01*
X144779387Y-66281999D01*
X144782579Y-66284341D01*
X144785817Y-66286602D01*
X144789106Y-66288785D01*
X144792451Y-66290876D01*
X144795836Y-66292872D01*
X144799279Y-66294811D01*
X144802745Y-66296639D01*
X144806260Y-66298389D01*
X144809835Y-66300061D01*
X144813458Y-66301648D01*
X144817117Y-66303136D01*
X144820836Y-66304535D01*
X144828542Y-66307121D01*
X144836273Y-66309337D01*
X144840131Y-66310342D01*
X144843987Y-66311232D01*
X144847840Y-66312042D01*
X144851696Y-66312776D01*
X144855557Y-66313431D01*
X144859431Y-66313972D01*
X144863270Y-66314442D01*
X144867136Y-66314835D01*
X144870994Y-66315149D01*
X144874864Y-66315369D01*
X144878712Y-66315509D01*
X144882581Y-66315535D01*
X144886430Y-66315509D01*
X144890277Y-66315369D01*
X144894118Y-66315149D01*
X144897942Y-66314835D01*
X144901773Y-66314442D01*
X144905572Y-66313972D01*
X144909405Y-66313422D01*
X144913179Y-66312776D01*
X144916974Y-66312042D01*
X144920760Y-66311232D01*
X144924535Y-66310342D01*
X144927503Y-66309553D01*
X144928300Y-66309340D01*
X144932067Y-66308275D01*
X144935807Y-66307121D01*
X144939574Y-66305874D01*
X144943301Y-66304536D01*
X144947130Y-66303145D01*
X144950934Y-66301648D01*
X144954657Y-66300061D01*
X144958368Y-66298389D01*
X144962015Y-66296648D01*
X144965605Y-66294811D01*
X144969173Y-66292872D01*
X144972679Y-66290876D01*
X144976134Y-66288785D01*
X144979544Y-66286602D01*
X144982920Y-66284341D01*
X144986249Y-66281999D01*
X144989510Y-66279559D01*
X144992737Y-66277022D01*
X144995925Y-66274430D01*
X144999067Y-66271734D01*
X145002013Y-66269074D01*
X145004882Y-66266333D01*
X145007704Y-66263504D01*
X145010448Y-66260600D01*
X145013134Y-66257594D01*
X145015722Y-66254499D01*
X145018266Y-66251329D01*
X145020728Y-66248069D01*
X145023121Y-66244735D01*
X145025442Y-66241300D01*
X145027677Y-66237792D01*
X145029876Y-66234182D01*
X145031982Y-66230502D01*
X145034041Y-66226719D01*
X145036013Y-66222870D01*
X145037895Y-66218918D01*
X145039720Y-66214902D01*
X145041415Y-66210769D01*
X145042982Y-66206523D01*
X145044435Y-66202181D01*
X145045775Y-66197745D01*
X145047006Y-66193219D01*
X145048106Y-66188569D01*
X145049093Y-66183821D01*
X145049984Y-66178992D01*
X145050740Y-66174056D01*
X145051388Y-66168986D01*
X145051888Y-66163870D01*
X145052308Y-66158610D01*
X145052593Y-66153262D01*
X145052761Y-66147822D01*
X145052838Y-66142260D01*
X145052838Y-65767913D01*
X145052761Y-65762579D01*
X145052593Y-65757373D01*
X145052305Y-65752201D01*
X145051887Y-65747124D01*
X145051388Y-65742111D01*
X145050740Y-65737194D01*
X145049984Y-65732336D01*
X145049090Y-65727570D01*
X145048106Y-65722889D01*
X145047006Y-65718275D01*
X145045775Y-65713729D01*
X145044435Y-65709263D01*
X145042982Y-65704883D01*
X145041415Y-65700603D01*
X145039720Y-65696358D01*
X145037895Y-65692222D01*
X145036013Y-65688151D01*
X145034041Y-65684170D01*
X145031982Y-65680280D01*
X145029876Y-65676465D01*
X145027677Y-65672754D01*
X145025442Y-65669112D01*
X145023121Y-65665571D01*
X145020728Y-65662101D01*
X145018266Y-65658722D01*
X145015724Y-65655434D01*
X145013134Y-65652216D01*
X145010448Y-65649112D01*
X145007704Y-65646067D01*
X145004882Y-65643104D01*
X145002013Y-65640254D01*
X144999067Y-65637474D01*
X144995925Y-65634888D01*
X144992737Y-65632402D01*
X144989510Y-65629970D01*
X144986249Y-65627644D01*
X144982920Y-65625365D01*
X144979544Y-65623191D01*
X144976134Y-65621086D01*
X144972679Y-65619047D01*
X144969173Y-65617114D01*
X144965605Y-65615239D01*
X144962015Y-65613449D01*
X144958364Y-65611717D01*
X144954657Y-65610078D01*
X144950934Y-65608532D01*
X144947130Y-65607025D01*
X144943301Y-65605633D01*
X144939574Y-65604299D01*
X144935807Y-65603063D01*
X144932068Y-65601892D01*
X144928300Y-65600834D01*
X144927480Y-65600618D01*
X145142442Y-65600618D01*
X145142442Y-66309553D01*
X145445123Y-66309553D01*
X145465063Y-66309553D01*
X145566616Y-66309548D01*
X145596480Y-66157174D01*
X145734887Y-66157174D01*
X145764726Y-66309553D01*
X145866298Y-66309553D01*
X145707988Y-65600618D01*
X145912102Y-65600618D01*
X145912102Y-66309553D01*
X146013651Y-66309553D01*
X146013649Y-65883371D01*
X146015658Y-65883371D01*
X146170982Y-66309553D01*
X146266572Y-66309553D01*
X146266572Y-66142260D01*
X146266572Y-65767913D01*
X146352190Y-65767913D01*
X146352190Y-66142260D01*
X146352247Y-66147822D01*
X146352415Y-66153262D01*
X146352702Y-66158610D01*
X146353125Y-66163870D01*
X146353639Y-66168986D01*
X146354280Y-66174056D01*
X146355042Y-66178992D01*
X146355929Y-66183821D01*
X146356934Y-66188569D01*
X146358041Y-66193219D01*
X146359278Y-66197745D01*
X146360617Y-66202189D01*
X146362080Y-66206523D01*
X146363653Y-66210769D01*
X146365346Y-66214902D01*
X146367137Y-66218918D01*
X146369077Y-66222870D01*
X146371053Y-66226719D01*
X146373110Y-66230502D01*
X146375252Y-66234182D01*
X146377469Y-66237792D01*
X146379748Y-66241300D01*
X146382126Y-66244735D01*
X146384568Y-66248069D01*
X146387103Y-66251329D01*
X146389694Y-66254499D01*
X146392386Y-66257594D01*
X146395155Y-66260600D01*
X146397985Y-66263504D01*
X146400912Y-66266332D01*
X146403907Y-66269071D01*
X146406971Y-66271734D01*
X146409981Y-66274430D01*
X146413048Y-66277022D01*
X146416139Y-66279559D01*
X146419300Y-66281999D01*
X146422491Y-66284341D01*
X146425728Y-66286601D01*
X146429032Y-66288785D01*
X146432369Y-66290876D01*
X146435754Y-66292872D01*
X146439187Y-66294811D01*
X146442658Y-66296639D01*
X146446180Y-66298389D01*
X146449751Y-66300061D01*
X146453372Y-66301648D01*
X146457035Y-66303145D01*
X146460753Y-66304535D01*
X146468450Y-66307121D01*
X146476166Y-66309337D01*
X146480029Y-66310338D01*
X146483896Y-66311232D01*
X146487724Y-66312042D01*
X146491597Y-66312776D01*
X146495444Y-66313431D01*
X146499305Y-66313972D01*
X146503156Y-66314442D01*
X146506995Y-66314835D01*
X146510854Y-66315149D01*
X146514719Y-66315376D01*
X146518573Y-66315510D01*
X146522424Y-66315535D01*
X146526289Y-66315510D01*
X146530141Y-66315369D01*
X146533990Y-66315149D01*
X146537811Y-66314835D01*
X146541655Y-66314442D01*
X146545467Y-66313972D01*
X146549269Y-66313422D01*
X146553061Y-66312776D01*
X146556875Y-66312042D01*
X146560670Y-66311232D01*
X146564435Y-66310342D01*
X146567408Y-66309553D01*
X146568202Y-66309337D01*
X146571972Y-66308275D01*
X146575728Y-66307121D01*
X146579469Y-66305873D01*
X146583210Y-66304535D01*
X146587047Y-66303136D01*
X146590831Y-66301647D01*
X146594576Y-66300061D01*
X146598266Y-66298389D01*
X146601915Y-66296639D01*
X146605523Y-66294807D01*
X146609074Y-66292872D01*
X146612576Y-66290876D01*
X146616036Y-66288781D01*
X146619456Y-66286601D01*
X146622828Y-66284341D01*
X146626151Y-66281999D01*
X146629432Y-66279559D01*
X146632668Y-66277022D01*
X146635838Y-66274430D01*
X146638966Y-66271734D01*
X146641919Y-66269074D01*
X146644818Y-66266332D01*
X146647625Y-66263504D01*
X146650345Y-66260600D01*
X146653026Y-66257594D01*
X146655626Y-66254498D01*
X146658150Y-66251329D01*
X146660616Y-66248067D01*
X146663005Y-66244735D01*
X146665321Y-66241300D01*
X146667567Y-66237792D01*
X146669728Y-66234182D01*
X146671849Y-66230502D01*
X146673903Y-66226727D01*
X146675870Y-66222870D01*
X146677776Y-66218918D01*
X146679580Y-66214902D01*
X146681265Y-66210769D01*
X146682861Y-66206523D01*
X146684302Y-66202189D01*
X146685648Y-66197745D01*
X146686891Y-66193219D01*
X146687991Y-66188569D01*
X146688988Y-66183821D01*
X146689868Y-66178992D01*
X146690628Y-66174056D01*
X146691283Y-66168986D01*
X146691807Y-66163870D01*
X146692209Y-66158610D01*
X146692500Y-66153262D01*
X146692678Y-66147822D01*
X146692736Y-66142255D01*
X146692736Y-65919258D01*
X146510512Y-65919258D01*
X146510512Y-66008865D01*
X146591175Y-66008865D01*
X146591175Y-66142255D01*
X146591098Y-66146797D01*
X146590851Y-66151177D01*
X146590439Y-66155409D01*
X146589872Y-66159502D01*
X146589117Y-66163447D01*
X146588234Y-66167246D01*
X146587167Y-66170898D01*
X146585930Y-66174369D01*
X146584540Y-66177729D01*
X146582990Y-66180934D01*
X146581275Y-66183997D01*
X146579395Y-66186912D01*
X146577339Y-66189671D01*
X146575130Y-66192275D01*
X146572764Y-66194735D01*
X146570233Y-66197061D01*
X146567706Y-66199095D01*
X146565128Y-66201022D01*
X146562483Y-66202809D01*
X146559770Y-66204473D01*
X146556998Y-66205977D01*
X146554168Y-66207361D01*
X146551283Y-66208628D01*
X146548329Y-66209731D01*
X146545308Y-66210740D01*
X146542224Y-66211602D01*
X146539083Y-66212318D01*
X146535883Y-66212914D01*
X146532606Y-66213385D01*
X146529278Y-66213705D01*
X146525884Y-66213909D01*
X146522424Y-66213976D01*
X146518975Y-66213909D01*
X146515583Y-66213705D01*
X146512235Y-66213383D01*
X146508924Y-66212914D01*
X146505697Y-66212318D01*
X146502508Y-66211602D01*
X146499389Y-66210736D01*
X146496321Y-66209731D01*
X146493299Y-66208628D01*
X146490330Y-66207361D01*
X146487407Y-66205977D01*
X146484563Y-66204473D01*
X146481765Y-66202809D01*
X146479006Y-66201022D01*
X146476324Y-66199095D01*
X146473668Y-66197061D01*
X146471270Y-66194735D01*
X146469002Y-66192275D01*
X146466900Y-66189673D01*
X146464961Y-66186912D01*
X146463168Y-66183998D01*
X146461536Y-66180934D01*
X146460047Y-66177729D01*
X146458725Y-66174369D01*
X146457566Y-66170898D01*
X146456562Y-66167246D01*
X146455698Y-66163447D01*
X146455002Y-66159502D01*
X146454441Y-66155417D01*
X146454043Y-66151177D01*
X146453812Y-66146797D01*
X146453738Y-66142255D01*
X146453738Y-65767913D01*
X146453812Y-65763386D01*
X146454043Y-65759011D01*
X146454441Y-65754800D01*
X146455002Y-65750731D01*
X146455698Y-65746828D01*
X146456562Y-65743087D01*
X146457566Y-65739484D01*
X146458725Y-65736051D01*
X146460047Y-65732755D01*
X146461536Y-65729628D01*
X146463168Y-65726661D01*
X146464961Y-65723854D01*
X146466901Y-65721192D01*
X146469002Y-65718693D01*
X146471270Y-65716334D01*
X146473668Y-65714133D01*
X146476324Y-65711974D01*
X146479006Y-65709940D01*
X146481765Y-65708035D01*
X146484563Y-65706299D01*
X146487407Y-65704686D01*
X146490330Y-65703222D01*
X146493299Y-65701871D01*
X146496321Y-65700681D01*
X146499389Y-65699651D01*
X146502508Y-65698721D01*
X146505697Y-65697967D01*
X146508924Y-65697321D01*
X146512235Y-65696828D01*
X146515569Y-65696475D01*
X146518963Y-65696271D01*
X146522422Y-65696191D01*
X146525882Y-65696271D01*
X146529276Y-65696475D01*
X146532606Y-65696828D01*
X146535883Y-65697321D01*
X146539081Y-65697972D01*
X146542224Y-65698721D01*
X146545308Y-65699651D01*
X146548329Y-65700681D01*
X146551283Y-65701871D01*
X146554168Y-65703222D01*
X146556998Y-65704686D01*
X146559770Y-65706299D01*
X146562483Y-65708035D01*
X146565128Y-65709940D01*
X146567706Y-65711974D01*
X146570233Y-65714133D01*
X146572764Y-65716334D01*
X146575130Y-65718693D01*
X146577339Y-65721192D01*
X146579395Y-65723854D01*
X146581275Y-65726661D01*
X146582990Y-65729628D01*
X146584540Y-65732757D01*
X146585930Y-65736051D01*
X146587167Y-65739484D01*
X146588235Y-65743087D01*
X146589117Y-65746828D01*
X146589872Y-65750731D01*
X146590439Y-65754800D01*
X146590851Y-65759011D01*
X146591107Y-65763386D01*
X146591175Y-65767913D01*
X146591165Y-65803746D01*
X146692736Y-65803745D01*
X146692736Y-65767913D01*
X146692678Y-65762579D01*
X146692500Y-65757373D01*
X146692209Y-65752201D01*
X146691807Y-65747124D01*
X146691283Y-65742111D01*
X146690628Y-65737194D01*
X146689868Y-65732335D01*
X146688989Y-65727570D01*
X146687992Y-65722889D01*
X146686891Y-65718275D01*
X146685648Y-65713729D01*
X146684302Y-65709263D01*
X146682861Y-65704883D01*
X146681265Y-65700603D01*
X146679580Y-65696358D01*
X146677776Y-65692222D01*
X146675870Y-65688151D01*
X146673903Y-65684170D01*
X146671849Y-65680280D01*
X146669728Y-65676465D01*
X146667567Y-65672754D01*
X146665321Y-65669112D01*
X146663005Y-65665571D01*
X146660616Y-65662101D01*
X146658152Y-65658722D01*
X146655626Y-65655435D01*
X146653026Y-65652216D01*
X146650345Y-65649114D01*
X146647625Y-65646070D01*
X146644818Y-65643104D01*
X146641919Y-65640254D01*
X146638966Y-65637474D01*
X146635838Y-65634888D01*
X146632668Y-65632402D01*
X146629426Y-65629970D01*
X146626151Y-65627644D01*
X146622828Y-65625365D01*
X146619455Y-65623191D01*
X146616036Y-65621086D01*
X146612576Y-65619043D01*
X146609074Y-65617114D01*
X146605523Y-65615239D01*
X146601915Y-65613449D01*
X146598266Y-65611717D01*
X146594576Y-65610078D01*
X146590831Y-65608532D01*
X146587047Y-65607025D01*
X146583210Y-65605633D01*
X146579469Y-65604299D01*
X146575728Y-65603063D01*
X146571972Y-65601892D01*
X146568202Y-65600834D01*
X146567355Y-65600611D01*
X146782358Y-65600611D01*
X146782358Y-66309553D01*
X147085032Y-66309553D01*
X147085032Y-66309548D01*
X147085032Y-66207991D01*
X146883920Y-66207991D01*
X146883915Y-65999905D01*
X147059129Y-65999905D01*
X147059129Y-65904322D01*
X146883915Y-65904322D01*
X146883920Y-65696191D01*
X147085032Y-65696191D01*
X147085032Y-65600618D01*
X147150721Y-65600618D01*
X147150721Y-66309548D01*
X147453411Y-66309553D01*
X147522099Y-66309553D01*
X147623667Y-66309553D01*
X147623667Y-65600618D01*
X147522101Y-65600618D01*
X147522099Y-66309553D01*
X147453411Y-66309553D01*
X147453411Y-66207991D01*
X147252284Y-66207991D01*
X147252284Y-65600618D01*
X147150721Y-65600618D01*
X147085032Y-65600618D01*
X146782358Y-65600611D01*
X146567355Y-65600611D01*
X146564435Y-65599842D01*
X146560670Y-65598952D01*
X146556875Y-65598129D01*
X146553061Y-65597382D01*
X146549269Y-65596742D01*
X146545467Y-65596186D01*
X146541655Y-65595721D01*
X146537811Y-65595327D01*
X146533990Y-65595033D01*
X146530141Y-65594821D01*
X146526289Y-65594679D01*
X146522424Y-65594628D01*
X146518573Y-65594679D01*
X146514719Y-65594821D01*
X146510854Y-65595033D01*
X146506995Y-65595327D01*
X146503156Y-65595721D01*
X146499305Y-65596186D01*
X146495444Y-65596742D01*
X146491597Y-65597382D01*
X146487732Y-65598129D01*
X146483896Y-65598952D01*
X146480029Y-65599842D01*
X146476166Y-65600834D01*
X146468450Y-65603058D01*
X146460753Y-65605633D01*
X146457035Y-65607025D01*
X146453374Y-65608532D01*
X146449751Y-65610078D01*
X146446180Y-65611717D01*
X146442658Y-65613449D01*
X146439187Y-65615239D01*
X146435754Y-65617114D01*
X146432369Y-65619043D01*
X146429034Y-65621086D01*
X146425728Y-65623191D01*
X146422491Y-65625365D01*
X146419300Y-65627638D01*
X146416139Y-65629969D01*
X146413048Y-65632402D01*
X146409981Y-65634888D01*
X146406971Y-65637472D01*
X146403907Y-65640254D01*
X146400913Y-65643104D01*
X146397985Y-65646067D01*
X146395157Y-65649112D01*
X146392386Y-65652216D01*
X146389694Y-65655434D01*
X146387103Y-65658722D01*
X146384568Y-65662101D01*
X146382126Y-65665571D01*
X146379748Y-65669112D01*
X146377469Y-65672753D01*
X146375252Y-65676463D01*
X146373110Y-65680280D01*
X146371053Y-65684170D01*
X146369077Y-65688151D01*
X146367137Y-65692222D01*
X146365346Y-65696358D01*
X146363653Y-65700603D01*
X146362080Y-65704883D01*
X146360617Y-65709263D01*
X146359278Y-65713729D01*
X146358041Y-65718275D01*
X146356934Y-65722889D01*
X146355929Y-65727570D01*
X146355042Y-65732336D01*
X146354280Y-65737194D01*
X146353639Y-65742111D01*
X146353125Y-65747124D01*
X146352710Y-65752201D01*
X146352415Y-65757373D01*
X146352247Y-65762579D01*
X146352190Y-65767913D01*
X146266572Y-65767913D01*
X146266572Y-65600618D01*
X146164997Y-65600611D01*
X146164997Y-66027758D01*
X146163006Y-66027758D01*
X146009661Y-65600618D01*
X145912102Y-65600618D01*
X145707988Y-65600618D01*
X145623355Y-65600618D01*
X145465063Y-66309553D01*
X145445123Y-66309553D01*
X145445123Y-66207991D01*
X145243999Y-66207991D01*
X145243999Y-65600618D01*
X145142442Y-65600618D01*
X144927480Y-65600618D01*
X144924535Y-65599842D01*
X144920760Y-65598952D01*
X144916974Y-65598129D01*
X144913179Y-65597382D01*
X144909405Y-65596742D01*
X144905572Y-65596186D01*
X144901773Y-65595721D01*
X144897939Y-65595327D01*
X144894118Y-65595033D01*
X144890277Y-65594821D01*
X144886430Y-65594681D01*
X144882581Y-65594628D01*
X144878712Y-65594681D01*
X144874856Y-65594821D01*
X144870994Y-65595033D01*
X144867136Y-65595327D01*
X144863270Y-65595721D01*
X144859431Y-65596186D01*
X144855557Y-65596742D01*
X144851696Y-65597382D01*
X144847840Y-65598129D01*
X144843987Y-65598952D01*
X144840131Y-65599842D01*
X144836273Y-65600834D01*
X144828542Y-65603058D01*
X144820836Y-65605633D01*
X144817117Y-65607025D01*
X144813458Y-65608532D01*
X144809835Y-65610078D01*
X144806260Y-65611717D01*
X144802745Y-65613449D01*
X144799279Y-65615239D01*
X144795836Y-65617114D01*
X144792451Y-65619047D01*
X144789106Y-65621086D01*
X144785817Y-65623191D01*
X144782579Y-65625365D01*
X144779387Y-65627644D01*
X144776230Y-65629970D01*
X144773140Y-65632402D01*
X144770066Y-65634888D01*
X144767060Y-65637474D01*
X144763986Y-65640254D01*
X144760994Y-65643104D01*
X144758085Y-65646070D01*
X144755244Y-65649114D01*
X144752485Y-65652216D01*
X144749807Y-65655435D01*
X144747183Y-65658722D01*
X144744672Y-65662101D01*
X144742221Y-65665571D01*
X144739845Y-65669112D01*
X144737539Y-65672754D01*
X144735332Y-65676465D01*
X144733183Y-65680280D01*
X144731119Y-65684170D01*
X144729143Y-65688151D01*
X144727233Y-65692222D01*
X144725442Y-65696358D01*
X144723745Y-65700603D01*
X144722174Y-65704883D01*
X144720710Y-65709263D01*
X144719375Y-65713729D01*
X144718149Y-65718275D01*
X144717036Y-65722889D01*
X144716033Y-65727570D01*
X144715168Y-65732335D01*
X144714416Y-65737194D01*
X144713784Y-65742111D01*
X144713248Y-65747124D01*
X144712844Y-65752201D01*
X144712548Y-65757373D01*
X144712370Y-65762579D01*
X144712311Y-65767913D01*
X144712311Y-66142255D01*
X144635635Y-66142255D01*
X144635635Y-66107406D01*
X144534087Y-66107406D01*
X144534087Y-66142255D01*
X144534068Y-66144844D01*
X144533984Y-66147396D01*
X144533868Y-66149872D01*
X144533702Y-66152283D01*
X144533509Y-66154660D01*
X144533250Y-66156964D01*
X144532938Y-66159210D01*
X144532591Y-66161438D01*
X144532190Y-66163574D01*
X144531743Y-66165692D01*
X144531243Y-66167728D01*
X144530717Y-66169713D01*
X144530134Y-66171651D01*
X144529500Y-66173534D01*
X144528831Y-66175350D01*
X144528090Y-66177126D01*
X144527344Y-66178836D01*
X144526563Y-66180509D01*
X144525759Y-66182135D01*
X144524939Y-66183726D01*
X144524085Y-66185247D01*
X144523214Y-66186744D01*
X144522308Y-66188185D01*
X144521393Y-66189579D01*
X144520443Y-66190921D01*
X144519473Y-66192227D01*
X144518490Y-66193485D01*
X144517478Y-66194681D01*
X144516424Y-66195849D01*
X144515369Y-66196956D01*
X144514286Y-66198023D01*
X144513169Y-66199043D01*
X144511922Y-66200011D01*
X144510654Y-66200978D01*
X144509380Y-66201896D01*
X144508068Y-66202780D01*
X144506750Y-66203644D01*
X144505429Y-66204461D01*
X144504077Y-66205233D01*
X144502709Y-66205987D01*
X144501323Y-66206723D01*
X144499951Y-66207425D01*
X144498525Y-66208089D01*
X144497119Y-66208720D01*
X144495661Y-66209321D01*
X144494215Y-66209902D01*
X144492733Y-66210457D01*
X144491252Y-66210968D01*
X144488519Y-66211653D01*
X144485843Y-66212258D01*
X144483184Y-66212794D01*
X144480545Y-66213209D01*
X144477949Y-66213544D01*
X144475382Y-66213785D01*
X144472858Y-66213928D01*
X144470348Y-66213976D01*
X144466069Y-66213891D01*
X144461963Y-66213649D01*
X144458015Y-66213235D01*
X144454235Y-66212671D01*
X144450618Y-66211933D01*
X144447151Y-66211035D01*
X144445483Y-66210531D01*
X144443869Y-66209975D01*
X144442282Y-66209393D01*
X144440746Y-66208750D01*
X144439247Y-66208075D01*
X144437771Y-66207350D01*
X144436359Y-66206606D01*
X144434974Y-66205818D01*
X144433634Y-66204969D01*
X144432318Y-66204090D01*
X144431062Y-66203180D01*
X144429862Y-66202206D01*
X144428673Y-66201217D01*
X144427558Y-66200177D01*
X144426455Y-66199083D01*
X144425396Y-66197967D01*
X144424391Y-66196804D01*
X144423402Y-66195595D01*
X144422471Y-66194348D01*
X144421587Y-66193069D01*
X144420014Y-66190409D01*
X144418560Y-66187695D01*
X144417200Y-66184873D01*
X144415916Y-66182009D01*
X144414765Y-66179019D01*
X144413707Y-66175981D01*
X144412742Y-66172854D01*
X144411881Y-66169675D01*
X144411122Y-66166399D01*
X144410481Y-66163034D01*
X144409907Y-66159600D01*
X144409457Y-66156101D01*
X144409107Y-66152507D01*
X144408851Y-66148850D01*
X144408717Y-66145110D01*
X144408650Y-66141286D01*
X144408650Y-65778864D01*
X144408690Y-65774409D01*
X144408835Y-65770089D01*
X144409077Y-65765865D01*
X144409383Y-65761748D01*
X144409803Y-65757700D01*
X144410320Y-65753786D01*
X144410925Y-65749967D01*
X144411629Y-65746260D01*
X144412409Y-65742623D01*
X144413292Y-65739113D01*
X144414269Y-65735695D01*
X144415346Y-65732365D01*
X144416517Y-65729155D01*
X144417760Y-65726042D01*
X144419125Y-65723029D01*
X144420570Y-65720117D01*
X144422277Y-65717216D01*
X144424196Y-65714512D01*
X144426291Y-65711997D01*
X144428600Y-65709672D01*
X144431072Y-65707501D01*
X144433779Y-65705538D01*
X144436658Y-65703778D01*
X144439748Y-65702180D01*
X144443010Y-65700773D01*
X144446496Y-65699565D01*
X144450145Y-65698522D01*
X144454004Y-65697697D01*
X144458049Y-65697041D01*
X144462296Y-65696576D01*
X144466740Y-65696288D01*
X144471367Y-65696191D01*
X144474940Y-65696285D01*
X144478384Y-65696552D01*
X144481788Y-65696972D01*
X144485055Y-65697579D01*
X144488249Y-65698349D01*
X144491345Y-65699289D01*
X144494343Y-65700403D01*
X144497270Y-65701695D01*
X144500070Y-65703148D01*
X144502789Y-65704773D01*
X144505425Y-65706564D01*
X144507957Y-65708535D01*
X144510403Y-65710662D01*
X144512748Y-65712996D01*
X144514999Y-65715467D01*
X144517172Y-65718133D01*
X144519227Y-65720904D01*
X144521134Y-65723730D01*
X144522919Y-65726631D01*
X144524582Y-65729561D01*
X144526086Y-65732585D01*
X144527489Y-65735680D01*
X144528731Y-65738808D01*
X144529861Y-65742003D01*
X144530841Y-65745274D01*
X144531719Y-65748618D01*
X144532432Y-65752003D01*
X144533018Y-65755471D01*
X144533499Y-65758987D01*
X144533814Y-65762550D01*
X144534013Y-65766188D01*
X144534087Y-65769903D01*
X144534087Y-65803746D01*
X144635635Y-65803745D01*
X144635635Y-65767913D01*
X144635635Y-65763926D01*
X144635591Y-65759341D01*
X144635438Y-65754814D01*
X144635184Y-65750316D01*
X144634842Y-65745873D01*
X144634394Y-65741476D01*
X144633839Y-65737134D01*
X144633181Y-65732822D01*
X144632418Y-65728571D01*
X144631568Y-65724355D01*
X144630605Y-65720193D01*
X144629537Y-65716069D01*
X144628370Y-65712004D01*
X144627127Y-65707976D01*
X144625738Y-65704019D01*
X144624288Y-65700073D01*
X144622718Y-65696191D01*
X144621184Y-65692262D01*
X144619563Y-65688374D01*
X144617878Y-65684561D01*
X144616107Y-65680827D01*
X144614275Y-65677168D01*
X144612338Y-65673553D01*
X144610336Y-65670040D01*
X144608261Y-65666596D01*
X144606104Y-65663198D01*
X144603863Y-65659892D01*
X144601555Y-65656639D01*
X144599157Y-65653458D01*
X144596690Y-65650348D01*
X144594144Y-65647306D01*
X144591525Y-65644352D01*
X144588826Y-65641445D01*
X144583125Y-65635771D01*
X144577213Y-65630479D01*
X144571078Y-65625560D01*
X144564752Y-65620976D01*
X144558187Y-65616767D01*
X144551440Y-65612929D01*
X144544478Y-65609461D01*
X144537299Y-65606348D01*
X144529923Y-65603603D01*
X144522314Y-65601235D01*
X144514534Y-65599214D01*
X144506504Y-65597566D01*
X144498274Y-65596283D01*
X144489851Y-65595366D01*
X144481202Y-65594831D01*
X144472336Y-65594628D01*
X144467755Y-65594686D01*
X144463220Y-65594846D01*
X144458756Y-65595097D01*
X144454307Y-65595462D01*
X144449909Y-65595913D01*
X144445567Y-65596465D01*
X144441252Y-65597129D01*
X144437019Y-65597900D01*
X144432799Y-65598753D01*
X144428645Y-65599718D01*
X144424515Y-65600792D01*
X144420465Y-65601943D01*
X144416448Y-65603215D01*
X144412475Y-65604577D01*
X144408539Y-65606058D01*
X144404657Y-65607624D01*
X144400975Y-65609147D01*
X144397320Y-65610755D01*
X144393733Y-65612438D01*
X144390224Y-65614220D01*
X144386766Y-65616055D01*
X144383378Y-65617977D01*
X144380044Y-65619986D01*
X144376791Y-65622039D01*
X144373589Y-65624200D01*
X144370434Y-65626423D01*
X144367359Y-65628749D01*
X144364337Y-65631139D01*
X144361388Y-65633590D01*
X144358483Y-65636134D01*
X144355650Y-65638759D01*
X144352896Y-65641445D01*
X144350193Y-65644239D01*
X144347580Y-65647056D01*
X144345011Y-65649939D01*
X144342542Y-65652890D01*
X144340153Y-65655917D01*
X144337853Y-65658996D01*
X144335612Y-65662139D01*
X144333450Y-65665354D01*
X144331377Y-65668621D01*
X144329370Y-65671950D01*
X144327440Y-65675327D01*
X144325608Y-65678793D01*
X144323833Y-65682305D01*
X144322159Y-65685881D01*
X144320537Y-65689524D01*
X144319002Y-65693233D01*
X144317563Y-65696983D01*
X144316200Y-65700769D01*
X144314944Y-65704616D01*
X144313780Y-65708466D01*
X144312705Y-65712374D01*
X144311724Y-65716334D01*
X144310846Y-65720317D01*
X144310059Y-65724339D01*
X144309359Y-65728398D01*
X144308752Y-65732501D01*
X144308254Y-65736643D01*
X144307835Y-65740835D01*
X144307506Y-65745056D01*
X144307277Y-65749302D01*
X144307139Y-65753610D01*
X144307088Y-65757929D01*
X144029290Y-65757929D01*
X144029290Y-65600611D01*
X143927740Y-65600611D01*
X143709731Y-65600611D01*
X143706812Y-65599842D01*
X143703035Y-65598952D01*
X143699259Y-65598129D01*
X143695467Y-65597382D01*
X143691668Y-65596742D01*
X143687863Y-65596186D01*
X143684051Y-65595721D01*
X143680227Y-65595327D01*
X143676385Y-65595033D01*
X143672568Y-65594821D01*
X143668717Y-65594681D01*
X143664851Y-65594628D01*
X143660994Y-65594681D01*
X143657126Y-65594821D01*
X143653276Y-65595033D01*
X143649413Y-65595327D01*
X143645569Y-65595721D01*
X143641700Y-65596186D01*
X143637843Y-65596742D01*
X143633997Y-65597382D01*
X143630115Y-65598129D01*
X143626269Y-65598952D01*
X143622408Y-65599842D01*
X143618562Y-65600834D01*
X143610823Y-65603063D01*
X143603115Y-65605633D01*
X143599399Y-65607025D01*
X143595754Y-65608532D01*
X143592115Y-65610078D01*
X143588545Y-65611717D01*
X143585034Y-65613449D01*
X143581548Y-65615239D01*
X143578127Y-65617114D01*
X143574734Y-65619049D01*
X143571401Y-65621086D01*
X143568095Y-65623191D01*
X143564864Y-65625365D01*
X143561666Y-65627644D01*
X143558521Y-65629970D01*
X143555406Y-65632402D01*
X143552351Y-65634888D01*
X143549332Y-65637474D01*
X143546268Y-65640254D01*
X143543278Y-65643104D01*
X143540357Y-65646067D01*
X143537524Y-65649112D01*
X143534751Y-65652216D01*
X143532094Y-65655434D01*
X143529477Y-65658722D01*
X143526945Y-65662101D01*
X143524488Y-65665571D01*
X143522132Y-65669112D01*
X143519833Y-65672754D01*
X143517614Y-65676465D01*
X143515478Y-65680280D01*
X143513415Y-65684170D01*
X143511430Y-65688151D01*
X143509528Y-65692222D01*
X143507700Y-65696358D01*
X143506008Y-65700603D01*
X143504447Y-65704883D01*
X143502999Y-65709263D01*
X143501659Y-65713729D01*
X143500425Y-65718275D01*
X143499316Y-65722889D01*
X143498318Y-65727570D01*
X143497462Y-65732336D01*
X143496697Y-65737194D01*
X143496054Y-65742111D01*
X143495531Y-65747124D01*
X143495124Y-65752201D01*
X143494818Y-65757373D01*
X143494649Y-65762579D01*
X143494600Y-65767913D01*
X143494600Y-66142255D01*
X143401988Y-66142255D01*
X143401988Y-65767913D01*
X143401988Y-65600618D01*
X143300427Y-65600618D01*
X143201875Y-65600618D01*
X143100310Y-65600618D01*
X143100310Y-66140284D01*
X143100244Y-66144919D01*
X143100033Y-66149417D01*
X143099689Y-66153748D01*
X143099197Y-66157945D01*
X143098563Y-66161980D01*
X143097782Y-66165846D01*
X143096860Y-66169576D01*
X143095816Y-66173128D01*
X143094628Y-66176523D01*
X143093301Y-66179786D01*
X143091816Y-66182888D01*
X143090221Y-66185820D01*
X143088466Y-66188610D01*
X143086575Y-66191244D01*
X143084561Y-66193725D01*
X143082372Y-66196039D01*
X143080099Y-66198212D01*
X143077754Y-66200247D01*
X143075330Y-66202114D01*
X143072855Y-66203869D01*
X143070290Y-66205476D01*
X143067672Y-66206966D01*
X143064973Y-66208288D01*
X143062227Y-66209483D01*
X143059398Y-66210537D01*
X143056480Y-66211450D01*
X143053523Y-66212210D01*
X143050462Y-66212857D01*
X143047355Y-66213337D01*
X143044181Y-66213697D01*
X143040922Y-66213909D01*
X143037602Y-66213976D01*
X143034263Y-66213909D01*
X143031003Y-66213697D01*
X143027829Y-66213337D01*
X143024711Y-66212857D01*
X143021666Y-66212210D01*
X143018690Y-66211450D01*
X143015784Y-66210537D01*
X143012936Y-66209483D01*
X143010186Y-66208288D01*
X143007481Y-66206966D01*
X143004851Y-66205476D01*
X143002298Y-66203869D01*
X142999814Y-66202114D01*
X142997393Y-66200247D01*
X142995046Y-66198212D01*
X142992770Y-66196039D01*
X142990614Y-66193725D01*
X142988578Y-66191244D01*
X142986683Y-66188610D01*
X142984924Y-66185820D01*
X142983307Y-66182888D01*
X142981846Y-66179786D01*
X142980503Y-66176523D01*
X142979313Y-66173128D01*
X142978279Y-66169576D01*
X142977365Y-66165846D01*
X142976590Y-66161980D01*
X142975960Y-66157945D01*
X142975469Y-66153748D01*
X142975117Y-66149417D01*
X142974912Y-66144916D01*
X142974839Y-66140275D01*
X142974839Y-65600611D01*
X142873268Y-65600611D01*
X142606451Y-65600611D01*
X142504889Y-65600618D01*
X142504889Y-66309553D01*
X142445142Y-66309553D01*
X142335599Y-65985955D01*
X142341591Y-65982531D01*
X142347337Y-65978986D01*
X142352855Y-65975276D01*
X142358145Y-65971467D01*
X142363196Y-65967498D01*
X142368001Y-65963422D01*
X142372585Y-65959189D01*
X142376939Y-65954854D01*
X142381043Y-65950356D01*
X142384939Y-65945743D01*
X142388588Y-65941006D01*
X142391994Y-65936125D01*
X142395189Y-65931105D01*
X142398142Y-65925952D01*
X142400838Y-65920676D01*
X142403330Y-65915277D01*
X142405754Y-65909710D01*
X142408003Y-65904014D01*
X142410098Y-65898172D01*
X142412046Y-65892178D01*
X142413833Y-65886027D01*
X142415455Y-65879722D01*
X142416933Y-65873296D01*
X142418266Y-65866711D01*
X142419415Y-65859986D01*
X142420432Y-65853083D01*
X142421284Y-65846067D01*
X142421969Y-65838876D01*
X142422532Y-65831556D01*
X142422902Y-65824088D01*
X142423139Y-65816469D01*
X142423230Y-65808699D01*
X142423060Y-65795903D01*
X142422532Y-65783500D01*
X142421645Y-65771505D01*
X142420421Y-65759914D01*
X142418847Y-65748752D01*
X142416913Y-65737980D01*
X142414634Y-65727614D01*
X142412032Y-65717646D01*
X142409040Y-65708104D01*
X142405717Y-65698966D01*
X142402059Y-65690218D01*
X142398029Y-65681883D01*
X142393639Y-65673962D01*
X142388921Y-65666449D01*
X142383850Y-65659343D01*
X142378436Y-65652626D01*
X142372656Y-65646338D01*
X142366536Y-65640450D01*
X142360042Y-65634955D01*
X142353236Y-65629873D01*
X142346050Y-65625197D01*
X142338527Y-65620941D01*
X142330653Y-65617076D01*
X142322412Y-65613612D01*
X142313852Y-65610559D01*
X142304916Y-65607941D01*
X142295646Y-65605693D01*
X142286004Y-65603869D01*
X142276029Y-65602450D01*
X142265722Y-65601417D01*
X142255037Y-65600829D01*
X142244099Y-65600618D01*
X142244013Y-65600611D01*
X142080704Y-65600618D01*
X142080704Y-66309553D01*
X142015027Y-66309553D01*
X142015027Y-66207991D01*
X141813891Y-66207991D01*
X141813891Y-65999905D01*
X141989115Y-65999905D01*
X141989120Y-65904322D01*
X141813891Y-65904322D01*
X141813891Y-65696191D01*
X142015027Y-65696191D01*
X142015027Y-65600618D01*
X142015027Y-65600611D01*
X141712333Y-65600618D01*
X141712333Y-66309548D01*
X141613750Y-66309548D01*
X141613750Y-65600618D01*
X141512177Y-65600618D01*
X141512175Y-66309553D01*
X141103976Y-66309553D01*
X141205488Y-66309548D01*
X141205488Y-66032726D01*
X141257277Y-66032726D01*
X141264279Y-66032641D01*
X141271128Y-66032445D01*
X141277791Y-66032051D01*
X141284293Y-66031534D01*
X141290616Y-66030876D01*
X141296778Y-66030065D01*
X141302762Y-66029107D01*
X141308575Y-66028001D01*
X141314219Y-66026745D01*
X141319709Y-66025336D01*
X141324990Y-66023785D01*
X141330124Y-66022094D01*
X141335081Y-66020247D01*
X141339870Y-66018252D01*
X141344480Y-66016098D01*
X141348924Y-66013826D01*
X141353221Y-66011255D01*
X141357423Y-66008606D01*
X141361501Y-66005824D01*
X141365459Y-66002928D01*
X141369326Y-65999908D01*
X141373084Y-65996770D01*
X141376722Y-65993538D01*
X141380265Y-65990176D01*
X141383686Y-65986689D01*
X141387023Y-65983106D01*
X141390224Y-65979384D01*
X141393324Y-65975555D01*
X141396316Y-65971614D01*
X141399174Y-65967562D01*
X141401967Y-65963366D01*
X141404631Y-65959068D01*
X141406824Y-65955447D01*
X141408909Y-65951805D01*
X141410900Y-65948111D01*
X141412789Y-65944383D01*
X141414591Y-65940633D01*
X141416273Y-65936853D01*
X141417847Y-65933037D01*
X141419336Y-65929194D01*
X141420724Y-65925317D01*
X141422019Y-65921419D01*
X141423196Y-65917473D01*
X141424279Y-65913516D01*
X141425251Y-65909507D01*
X141426132Y-65905492D01*
X141426911Y-65901407D01*
X141427582Y-65897341D01*
X141428977Y-65888899D01*
X141430177Y-65879962D01*
X141431219Y-65870599D01*
X141432040Y-65860723D01*
X141432679Y-65850407D01*
X141433153Y-65839645D01*
X141433421Y-65828382D01*
X141433518Y-65816678D01*
X141433362Y-65801165D01*
X141432894Y-65786485D01*
X141432131Y-65772666D01*
X141431042Y-65759694D01*
X141429647Y-65747539D01*
X141427959Y-65736246D01*
X141426981Y-65730887D01*
X141425926Y-65725754D01*
X141424810Y-65720839D01*
X141423592Y-65716136D01*
X141422294Y-65711428D01*
X141420850Y-65706820D01*
X141419287Y-65702290D01*
X141417604Y-65697832D01*
X141415803Y-65693452D01*
X141413865Y-65689142D01*
X141411823Y-65684921D01*
X141409644Y-65680774D01*
X141407343Y-65676710D01*
X141404911Y-65672724D01*
X141402355Y-65668795D01*
X141399674Y-65664974D01*
X141396860Y-65661206D01*
X141393940Y-65657525D01*
X141390898Y-65653920D01*
X141387718Y-65650420D01*
X141384458Y-65646974D01*
X141381165Y-65643699D01*
X141377803Y-65640541D01*
X141374402Y-65637516D01*
X141370951Y-65634625D01*
X141367469Y-65631861D01*
X141363926Y-65629246D01*
X141360324Y-65626740D01*
X141356683Y-65624384D01*
X141353005Y-65622152D01*
X141349293Y-65620064D01*
X141345517Y-65618087D01*
X141341697Y-65616262D01*
X141337836Y-65614549D01*
X141333927Y-65612976D01*
X141329960Y-65611551D01*
X141325937Y-65610231D01*
X141321841Y-65608981D01*
X141313406Y-65606762D01*
X141304684Y-65604885D01*
X141295621Y-65603353D01*
X141286250Y-65602158D01*
X141276604Y-65601296D01*
X141266597Y-65600792D01*
X141256313Y-65600618D01*
X141103976Y-65600618D01*
X140452907Y-65600618D01*
X140329306Y-65384066D01*
X140488303Y-65385518D01*
X140994006Y-65378020D01*
X145445455Y-65357275D01*
X145823851Y-65353937D01*
X146274138Y-65342263D01*
X146302176Y-65339097D01*
X146310801Y-65337390D01*
X146316264Y-65335579D01*
X146318974Y-65333675D01*
X146319272Y-65331664D01*
X146315401Y-65323403D01*
X146308087Y-65309302D01*
X144765916Y-62644815D01*
X144758940Y-62630320D01*
X144757119Y-62625859D01*
X144756497Y-62623440D01*
X144757117Y-62621002D01*
X144758913Y-62616537D01*
X144765797Y-62602008D01*
X145394022Y-61512749D01*
X145402443Y-61500676D01*
X145409088Y-61491820D01*
X145413860Y-61486375D01*
X145415498Y-61485008D01*
X145416632Y-61484531D01*
X145422951Y-61489586D01*
G37*
D11*
X128723382Y-63459528D02*
X129409097Y-63459528D01*
X128723382Y-65251335D02*
X128723382Y-64351335D01*
X128723382Y-64351335D02*
X128937668Y-64351335D01*
X128937668Y-64351335D02*
X129066239Y-64394192D01*
X129066239Y-64394192D02*
X129151954Y-64479906D01*
X129151954Y-64479906D02*
X129194811Y-64565620D01*
X129194811Y-64565620D02*
X129237668Y-64737049D01*
X129237668Y-64737049D02*
X129237668Y-64865620D01*
X129237668Y-64865620D02*
X129194811Y-65037049D01*
X129194811Y-65037049D02*
X129151954Y-65122763D01*
X129151954Y-65122763D02*
X129066239Y-65208478D01*
X129066239Y-65208478D02*
X128937668Y-65251335D01*
X128937668Y-65251335D02*
X128723382Y-65251335D01*
X129237668Y-66614570D02*
X129194811Y-66657428D01*
X129194811Y-66657428D02*
X129066239Y-66700285D01*
X129066239Y-66700285D02*
X128980525Y-66700285D01*
X128980525Y-66700285D02*
X128851954Y-66657428D01*
X128851954Y-66657428D02*
X128766239Y-66571713D01*
X128766239Y-66571713D02*
X128723382Y-66485999D01*
X128723382Y-66485999D02*
X128680525Y-66314570D01*
X128680525Y-66314570D02*
X128680525Y-66185999D01*
X128680525Y-66185999D02*
X128723382Y-66014570D01*
X128723382Y-66014570D02*
X128766239Y-65928856D01*
X128766239Y-65928856D02*
X128851954Y-65843142D01*
X128851954Y-65843142D02*
X128980525Y-65800285D01*
X128980525Y-65800285D02*
X129066239Y-65800285D01*
X129066239Y-65800285D02*
X129194811Y-65843142D01*
X129194811Y-65843142D02*
X129237668Y-65885999D01*
X128723382Y-67806378D02*
X129409097Y-67806378D01*
X129066239Y-68149235D02*
X129066239Y-67463520D01*
D12*
G36*
X143787635Y-82228882D02*
G01*
X143842153Y-82235956D01*
X143880098Y-82245939D01*
X143914010Y-82262998D01*
X143940785Y-82287229D01*
X143961333Y-82319505D01*
X143973395Y-82356116D01*
X143976984Y-82399091D01*
X143970859Y-82450224D01*
X143958620Y-82493558D01*
X143941272Y-82531834D01*
X143918884Y-82565702D01*
X143891689Y-82595981D01*
X143860725Y-82622165D01*
X143825681Y-82644446D01*
X143787976Y-82661154D01*
X143738926Y-82675122D01*
X143771545Y-82689669D01*
X143791291Y-82703259D01*
X143802913Y-82716565D01*
X143821577Y-82745953D01*
X143837967Y-82777118D01*
X143845318Y-82796316D01*
X143914878Y-83029617D01*
X143637956Y-83029617D01*
X143559114Y-82783713D01*
X143542499Y-82741553D01*
X143528632Y-82722652D01*
X143504544Y-82709182D01*
X143474166Y-82704480D01*
X143454090Y-82704480D01*
X143386483Y-83029617D01*
X143140042Y-83029617D01*
X143239470Y-82551291D01*
X143485890Y-82551291D01*
X143586078Y-82551291D01*
X143652122Y-82540447D01*
X143675115Y-82532007D01*
X143695890Y-82515778D01*
X143711656Y-82494293D01*
X143720363Y-82470154D01*
X143722526Y-82445400D01*
X143718450Y-82426623D01*
X143708981Y-82412073D01*
X143694318Y-82402221D01*
X143667962Y-82394878D01*
X143624131Y-82391850D01*
X143519058Y-82391850D01*
X143485890Y-82551291D01*
X143239470Y-82551291D01*
X143307055Y-82226155D01*
X143711912Y-82226155D01*
X143787635Y-82228882D01*
G37*
G36*
X144638423Y-82213650D02*
G01*
X144468821Y-83029617D01*
X144245387Y-83029617D01*
X144355492Y-82500049D01*
X144296311Y-82536484D01*
X144241138Y-82564822D01*
X144181975Y-82588898D01*
X144102896Y-82614501D01*
X144141291Y-82429707D01*
X144219931Y-82401716D01*
X144282983Y-82372112D01*
X144332778Y-82341291D01*
X144378231Y-82304420D01*
X144419080Y-82262003D01*
X144455534Y-82213650D01*
X144638423Y-82213650D01*
G37*
G36*
X144786825Y-82804522D02*
G01*
X145022519Y-82804522D01*
X144975722Y-83029617D01*
X144740028Y-83029617D01*
X144786825Y-82804522D01*
G37*
G36*
X145640845Y-82216245D02*
G01*
X145682281Y-82223246D01*
X145714264Y-82233678D01*
X145756913Y-82257453D01*
X145786902Y-82285848D01*
X145809201Y-82319186D01*
X145823782Y-82353308D01*
X145832375Y-82390280D01*
X145836483Y-82435667D01*
X145834072Y-82525880D01*
X145819679Y-82622219D01*
X145791157Y-82733085D01*
X145757930Y-82820722D01*
X145721000Y-82888935D01*
X145680949Y-82941005D01*
X145641916Y-82976156D01*
X145596474Y-83003939D01*
X145543657Y-83024512D01*
X145482164Y-83037521D01*
X145410426Y-83042122D01*
X145344591Y-83037918D01*
X145294324Y-83026638D01*
X145256406Y-83009784D01*
X145223362Y-82985052D01*
X145196513Y-82953723D01*
X145175464Y-82914871D01*
X145165452Y-82884616D01*
X145158725Y-82844975D01*
X145156267Y-82793776D01*
X145156304Y-82793147D01*
X145373465Y-82793147D01*
X145378039Y-82830901D01*
X145388246Y-82856186D01*
X145401996Y-82872677D01*
X145419416Y-82882392D01*
X145441738Y-82885806D01*
X145472884Y-82880172D01*
X145503189Y-82862506D01*
X145528997Y-82834221D01*
X145554041Y-82788353D01*
X145574218Y-82729981D01*
X145598444Y-82629596D01*
X145616956Y-82520994D01*
X145621021Y-82454768D01*
X145616469Y-82417544D01*
X145606179Y-82393075D01*
X145592011Y-82376870D01*
X145573694Y-82367164D01*
X145549840Y-82363713D01*
X145517339Y-82369500D01*
X145488294Y-82387079D01*
X145461424Y-82418912D01*
X145441623Y-82458077D01*
X145419362Y-82523301D01*
X145394892Y-82624271D01*
X145377299Y-82728215D01*
X145373465Y-82793147D01*
X145156304Y-82793147D01*
X145160935Y-82715371D01*
X145175709Y-82624271D01*
X145199676Y-82528651D01*
X145226973Y-82451501D01*
X145256883Y-82390067D01*
X145288926Y-82341909D01*
X145322889Y-82304948D01*
X145364059Y-82272958D01*
X145410323Y-82247767D01*
X145462398Y-82229264D01*
X145521208Y-82217694D01*
X145587844Y-82213650D01*
X145640845Y-82216245D01*
G37*
D13*
G36*
X141878071Y-45605858D02*
G01*
X142215383Y-45605858D01*
X142042899Y-46435502D01*
X142562635Y-46435502D01*
X142505476Y-46710618D01*
X141648428Y-46710618D01*
X141878071Y-45605858D01*
G37*
G36*
X142903708Y-45605858D02*
G01*
X143800385Y-45605858D01*
X143750345Y-45846584D01*
X143191652Y-45846584D01*
X143155919Y-46018531D01*
X143674111Y-46018531D01*
X143626758Y-46246361D01*
X143108567Y-46246361D01*
X143064774Y-46456996D01*
X143639587Y-46456996D01*
X143586861Y-46710618D01*
X142674065Y-46710618D01*
X142903708Y-45605858D01*
G37*
G36*
X143908254Y-45605858D02*
G01*
X144261149Y-45605858D01*
X144338525Y-46392448D01*
X144739309Y-45605858D01*
X145082397Y-45605858D01*
X144451365Y-46710618D01*
X144087388Y-46710618D01*
X143908254Y-45605858D01*
G37*
G36*
X145226067Y-45605858D02*
G01*
X145564117Y-45605858D01*
X145334474Y-46710618D01*
X144996423Y-46710618D01*
X145226067Y-45605858D01*
G37*
G36*
X146651212Y-46710618D02*
G01*
X146298317Y-46710618D01*
X146282936Y-46530073D01*
X145907004Y-46530073D01*
X145817202Y-46710618D01*
X145471897Y-46710618D01*
X145714522Y-46289347D01*
X146030322Y-46289347D01*
X146261846Y-46289347D01*
X146226247Y-45901997D01*
X146030322Y-46289347D01*
X145714522Y-46289347D01*
X146108168Y-45605858D01*
X146474227Y-45605858D01*
X146651212Y-46710618D01*
G37*
G36*
X147522701Y-45605858D02*
G01*
X147859945Y-45605858D01*
X147780419Y-45988440D01*
X148139896Y-45988440D01*
X148219422Y-45605858D01*
X148558278Y-45605858D01*
X148328635Y-46710618D01*
X147989778Y-46710618D01*
X148082737Y-46263555D01*
X147723261Y-46263555D01*
X147630302Y-46710618D01*
X147293057Y-46710618D01*
X147522701Y-45605858D01*
G37*
G36*
X148759913Y-45605858D02*
G01*
X149638186Y-45605858D01*
X149594661Y-45815419D01*
X149506561Y-45888583D01*
X149427430Y-45964440D01*
X149356757Y-46043047D01*
X149278669Y-46144954D01*
X149207074Y-46255029D01*
X149141957Y-46373776D01*
X149097646Y-46469720D01*
X149055026Y-46581407D01*
X149014475Y-46710618D01*
X148711351Y-46710618D01*
X148778825Y-46530446D01*
X148847725Y-46379866D01*
X148917553Y-46255294D01*
X148998512Y-46137560D01*
X149103198Y-46008876D01*
X149235050Y-45868077D01*
X148705440Y-45868077D01*
X148759913Y-45605858D01*
G37*
G36*
X145624903Y-48102421D02*
G01*
X145902033Y-48194305D01*
X145860284Y-48276808D01*
X145814400Y-48346904D01*
X145764543Y-48405947D01*
X145707611Y-48457884D01*
X145646459Y-48500025D01*
X145580640Y-48532960D01*
X145510702Y-48555925D01*
X145428655Y-48570595D01*
X145332459Y-48575812D01*
X145215372Y-48569050D01*
X145124611Y-48550823D01*
X145055060Y-48523556D01*
X145009026Y-48493695D01*
X144967997Y-48454043D01*
X144931628Y-48403313D01*
X144900039Y-48339654D01*
X144880202Y-48274491D01*
X144870632Y-48198221D01*
X144872778Y-48108610D01*
X144888755Y-48003148D01*
X144917751Y-47894001D01*
X144955607Y-47798983D01*
X145001773Y-47716420D01*
X145056078Y-47644921D01*
X145118734Y-47583423D01*
X145190136Y-47531452D01*
X145268214Y-47490832D01*
X145353888Y-47461276D01*
X145448324Y-47442990D01*
X145552900Y-47436664D01*
X145657124Y-47443013D01*
X145740061Y-47460357D01*
X145805601Y-47486735D01*
X145856964Y-47521092D01*
X145899848Y-47566339D01*
X145934496Y-47623314D01*
X145960720Y-47694242D01*
X145977461Y-47782035D01*
X145665337Y-47849806D01*
X145657676Y-47801393D01*
X145648277Y-47774580D01*
X145624604Y-47740316D01*
X145593200Y-47715339D01*
X145555172Y-47700015D01*
X145508234Y-47694584D01*
X145454411Y-47700303D01*
X145405364Y-47717149D01*
X145359870Y-47745485D01*
X145317145Y-47786737D01*
X145283584Y-47835699D01*
X145253128Y-47905593D01*
X145227007Y-48002208D01*
X145211418Y-48099808D01*
X145208969Y-48169578D01*
X145215750Y-48218111D01*
X145228955Y-48250994D01*
X145251708Y-48279560D01*
X145281053Y-48300126D01*
X145318405Y-48313167D01*
X145366042Y-48317892D01*
X145427066Y-48311432D01*
X145477850Y-48293095D01*
X145520593Y-48263285D01*
X145556608Y-48223965D01*
X145591454Y-48171250D01*
X145624903Y-48102421D01*
G37*
G36*
X146869793Y-47443758D02*
G01*
X146960721Y-47463423D01*
X147035078Y-47493862D01*
X147095673Y-47534202D01*
X147144551Y-47584565D01*
X147181887Y-47644169D01*
X147207502Y-47713162D01*
X147220976Y-47793516D01*
X147220879Y-47887676D01*
X147204867Y-47998447D01*
X147170927Y-48124422D01*
X147127413Y-48228835D01*
X147075302Y-48314802D01*
X147010390Y-48391291D01*
X146935898Y-48455119D01*
X146850965Y-48507101D01*
X146782820Y-48536416D01*
X146708239Y-48557884D01*
X146626364Y-48571204D01*
X146536222Y-48575812D01*
X146442800Y-48571462D01*
X146364662Y-48559366D01*
X146299600Y-48540719D01*
X146245658Y-48516370D01*
X146196128Y-48482788D01*
X146153969Y-48440886D01*
X146118620Y-48389817D01*
X146090033Y-48328235D01*
X146072460Y-48264577D01*
X146064388Y-48191018D01*
X146065297Y-48162144D01*
X146405183Y-48162144D01*
X146413861Y-48210673D01*
X146429695Y-48246292D01*
X146455161Y-48276982D01*
X146487288Y-48299007D01*
X146527469Y-48312893D01*
X146577932Y-48317892D01*
X146646056Y-48309846D01*
X146705140Y-48286489D01*
X146757335Y-48247434D01*
X146787890Y-48210798D01*
X146817002Y-48158990D01*
X146844162Y-48088151D01*
X146868429Y-47993745D01*
X146880306Y-47913043D01*
X146880190Y-47851362D01*
X146870960Y-47804628D01*
X146854458Y-47769408D01*
X146828661Y-47739259D01*
X146796156Y-47717545D01*
X146755523Y-47703825D01*
X146704542Y-47698883D01*
X146640834Y-47706847D01*
X146582965Y-47730469D01*
X146529169Y-47770885D01*
X146496940Y-47808476D01*
X146467466Y-47858857D01*
X146441183Y-47924800D01*
X146418949Y-48009596D01*
X146405809Y-48096696D01*
X146405183Y-48162144D01*
X146065297Y-48162144D01*
X146067073Y-48105689D01*
X146082309Y-48006507D01*
X146110992Y-47899371D01*
X146149063Y-47805214D01*
X146196067Y-47722524D01*
X146251935Y-47650065D01*
X146316989Y-47586916D01*
X146390702Y-47533524D01*
X146470752Y-47491907D01*
X146558017Y-47461714D01*
X146653619Y-47443090D01*
X146758880Y-47436664D01*
X146869793Y-47443758D01*
G37*
G36*
X148186385Y-47457607D02*
G01*
X148261348Y-47467335D01*
X148313522Y-47481061D01*
X148360151Y-47504518D01*
X148396967Y-47537834D01*
X148425220Y-47582214D01*
X148441806Y-47632554D01*
X148446740Y-47691645D01*
X148438318Y-47761952D01*
X148421490Y-47821537D01*
X148397637Y-47874166D01*
X148366853Y-47920735D01*
X148329460Y-47962368D01*
X148286885Y-47998371D01*
X148238698Y-48029007D01*
X148186855Y-48051981D01*
X148119410Y-48071188D01*
X148164262Y-48091189D01*
X148191413Y-48109876D01*
X148207393Y-48128172D01*
X148233056Y-48168580D01*
X148255592Y-48211433D01*
X148265699Y-48237829D01*
X148361345Y-48558618D01*
X147980576Y-48558618D01*
X147872169Y-48220500D01*
X147849323Y-48162530D01*
X147830257Y-48136541D01*
X147797136Y-48118020D01*
X147755366Y-48111555D01*
X147727761Y-48111555D01*
X147634802Y-48558618D01*
X147295945Y-48558618D01*
X147432659Y-47900920D01*
X147771486Y-47900920D01*
X147909245Y-47900920D01*
X148000055Y-47886009D01*
X148031671Y-47874404D01*
X148060236Y-47852090D01*
X148081915Y-47822548D01*
X148093887Y-47789356D01*
X148096861Y-47755319D01*
X148091256Y-47729501D01*
X148078237Y-47709495D01*
X148058075Y-47695948D01*
X148021835Y-47685852D01*
X147961568Y-47681688D01*
X147817092Y-47681688D01*
X147771486Y-47900920D01*
X147432659Y-47900920D01*
X147525589Y-47453858D01*
X148082267Y-47453858D01*
X148186385Y-47457607D01*
G37*
G36*
X148717665Y-47453858D02*
G01*
X149614341Y-47453858D01*
X149564302Y-47694584D01*
X149005609Y-47694584D01*
X148969876Y-47866531D01*
X149488068Y-47866531D01*
X149440715Y-48094361D01*
X148922523Y-48094361D01*
X148878731Y-48304996D01*
X149453544Y-48304996D01*
X149400818Y-48558618D01*
X148488021Y-48558618D01*
X148717665Y-47453858D01*
G37*
%TO.C,C44*%
D11*
X144152000Y-81313453D02*
X144152000Y-81097781D01*
X144872000Y-81313453D02*
X144872000Y-81097781D01*
%TO.C,C6*%
D14*
X141845000Y-68713453D02*
X141845000Y-68497781D01*
X142565000Y-68713453D02*
X142565000Y-68497781D01*
%TO.C,C38*%
X149020150Y-58827782D02*
X149020150Y-59043454D01*
X149740150Y-58827782D02*
X149740150Y-59043454D01*
%TO.C,C31*%
X145117164Y-68775617D02*
X145332836Y-68775617D01*
X145117164Y-69495617D02*
X145332836Y-69495617D01*
%TO.C,R30*%
X129970150Y-60841977D02*
X129970150Y-61149259D01*
X130730150Y-60841977D02*
X130730150Y-61149259D01*
%TO.C,C26*%
X139696387Y-48377781D02*
X139696387Y-48593453D01*
X140416387Y-48377781D02*
X140416387Y-48593453D01*
%TO.C,C25*%
X143697000Y-49053453D02*
X143697000Y-48837781D01*
X144417000Y-49053453D02*
X144417000Y-48837781D01*
%TO.C,R26*%
X135395000Y-75084258D02*
X135395000Y-74776976D01*
X136155000Y-75084258D02*
X136155000Y-74776976D01*
%TO.C,Y1*%
X132495000Y-69405617D02*
X132495000Y-70705617D01*
X133495001Y-69405617D02*
X133735000Y-69405617D01*
X133495001Y-70705617D02*
X133735000Y-70705617D01*
X134695000Y-69405617D02*
X134934999Y-69405617D01*
X134695000Y-70705617D02*
X134934999Y-70705617D01*
X135935000Y-70695617D02*
X135935000Y-69395617D01*
X132175000Y-70055617D02*
G75*
G02*
X131935000Y-70055617I-120000J0D01*
G01*
X131935000Y-70055617D02*
G75*
G02*
X132175000Y-70055617I120000J0D01*
G01*
X132645000Y-70705617D02*
G75*
G02*
X132585000Y-70705617I-30000J0D01*
G01*
X132585000Y-70705617D02*
G75*
G02*
X132645000Y-70705617I30000J0D01*
G01*
%TO.C,R12*%
D11*
X132792000Y-80629258D02*
X132792000Y-80321976D01*
X133552000Y-80629258D02*
X133552000Y-80321976D01*
%TO.C,R18*%
D14*
X130061509Y-46220618D02*
X130368791Y-46220618D01*
X130061509Y-46980618D02*
X130368791Y-46980618D01*
%TO.C,R23*%
X136916359Y-45425617D02*
X137223641Y-45425617D01*
X136916359Y-46185617D02*
X137223641Y-46185617D01*
%TO.C,C41*%
D11*
X137727000Y-78622781D02*
X137727000Y-78838453D01*
X138447000Y-78622781D02*
X138447000Y-78838453D01*
%TO.C,R21*%
D14*
X141408359Y-47195617D02*
X141715641Y-47195617D01*
X141408359Y-47955617D02*
X141715641Y-47955617D01*
%TO.C,C16*%
X130280581Y-47290617D02*
X129999419Y-47290617D01*
X130280581Y-48310617D02*
X129999419Y-48310617D01*
%TO.C,R22*%
X143740641Y-47185617D02*
X143433359Y-47185617D01*
X143740641Y-47945617D02*
X143433359Y-47945617D01*
%TO.C,R7*%
X129416214Y-74665617D02*
X129723496Y-74665617D01*
X129416214Y-75425617D02*
X129723496Y-75425617D01*
%TO.C,U5*%
X141281384Y-50070617D02*
X141671383Y-50070617D01*
X141281384Y-54070617D02*
X141281384Y-50070617D01*
X141671383Y-54070617D02*
X141281384Y-54070617D01*
X147051383Y-50070617D02*
X148081383Y-50070617D01*
X148081383Y-50070617D02*
X148081383Y-54070617D01*
X148081383Y-54070617D02*
X147051383Y-54070617D01*
X141311385Y-54070617D02*
G75*
G02*
X141251383Y-54070617I-30001J0D01*
G01*
X141251383Y-54070617D02*
G75*
G02*
X141311385Y-54070617I30001J0D01*
G01*
X142551383Y-54610617D02*
G75*
G02*
X142251383Y-54610617I-150000J0D01*
G01*
X142251383Y-54610617D02*
G75*
G02*
X142551383Y-54610617I150000J0D01*
G01*
%TO.C,R13*%
D11*
X131187000Y-80629258D02*
X131187000Y-80321976D01*
X131947000Y-80629258D02*
X131947000Y-80321976D01*
%TO.C,J1*%
D14*
X129204500Y-51460004D02*
X139364500Y-51460004D01*
X129204500Y-53200004D02*
X129204500Y-51460004D01*
X129204500Y-56150004D02*
X129204500Y-55060004D01*
X130554500Y-56150004D02*
X129204500Y-56150004D01*
X131864500Y-57040004D02*
X131864500Y-56660004D01*
X137964500Y-56710004D02*
X137964500Y-57040004D01*
X137964500Y-57040004D02*
X131864500Y-57040004D01*
X140634500Y-55510004D02*
X140634500Y-56150004D01*
X140634500Y-56150004D02*
X139364500Y-56150004D01*
D13*
X130522011Y-56910004D02*
G75*
G02*
X130362989Y-56910004I-79511J0D01*
G01*
X130362989Y-56910004D02*
G75*
G02*
X130522011Y-56910004I79511J0D01*
G01*
%TO.C,C43*%
D11*
X137754836Y-76915618D02*
X137539164Y-76915618D01*
X137754836Y-77635618D02*
X137539164Y-77635618D01*
%TO.C,C24*%
D14*
X142372000Y-49058453D02*
X142372000Y-48842781D01*
X143092000Y-49058453D02*
X143092000Y-48842781D01*
%TO.C,R44*%
D11*
X134767000Y-80101976D02*
X134767000Y-80409258D01*
X135527000Y-80101976D02*
X135527000Y-80409258D01*
%TO.C,U11*%
X139496999Y-69765617D02*
X139496999Y-69915617D01*
X139496999Y-69765617D02*
X149417001Y-69765617D01*
X139496999Y-79935617D02*
X139496999Y-80085617D01*
X139496999Y-80085617D02*
X149417001Y-80085617D01*
X149417001Y-69765617D02*
X149417001Y-69915617D01*
X149417001Y-79935617D02*
X149417001Y-80085617D01*
X139027000Y-69915617D02*
X138787000Y-69585617D01*
X139267000Y-69585617D01*
X139027000Y-69915617D01*
G36*
X139027000Y-69915617D02*
G01*
X138787000Y-69585617D01*
X139267000Y-69585617D01*
X139027000Y-69915617D01*
G37*
%TO.C,SW1*%
D14*
X128567000Y-78450617D02*
X128567000Y-76530617D01*
X129537000Y-78990617D02*
X130207000Y-78990617D01*
X130207000Y-75990617D02*
X129527000Y-75990617D01*
X131167000Y-78450617D02*
X131167000Y-76530617D01*
X130267000Y-77490617D02*
G75*
G02*
X129467000Y-77490617I-400000J0D01*
G01*
X129467000Y-77490617D02*
G75*
G02*
X130267000Y-77490617I400000J0D01*
G01*
X131362711Y-75740617D02*
G75*
G02*
X131221289Y-75740617I-70711J0D01*
G01*
X131221289Y-75740617D02*
G75*
G02*
X131362711Y-75740617I70711J0D01*
G01*
%TO.C,LED1*%
D13*
X128672000Y-81750617D02*
X128772000Y-81750617D01*
X128672000Y-82890617D02*
X128672000Y-81750617D01*
X133652000Y-81750617D02*
X133752000Y-81750617D01*
X133752000Y-81750617D02*
X133752000Y-82890617D01*
X133752000Y-82890617D02*
X128672000Y-82890617D01*
D14*
X128892000Y-81540617D02*
G75*
G02*
X128792000Y-81540617I-50000J0D01*
G01*
X128792000Y-81540617D02*
G75*
G02*
X128892000Y-81540617I50000J0D01*
G01*
D15*
X128992000Y-82770617D02*
G75*
G02*
X128932000Y-82770617I-30000J0D01*
G01*
X128932000Y-82770617D02*
G75*
G02*
X128992000Y-82770617I30000J0D01*
G01*
%TO.C,J2*%
D11*
X129725874Y-45220617D02*
X130125873Y-44420617D01*
X130125873Y-44420617D02*
X130525873Y-45220617D01*
X130525873Y-45220617D02*
X129725874Y-45220617D01*
%TO.C,U1*%
D14*
X131707000Y-59280617D02*
X139927000Y-59280617D01*
X131707000Y-66500617D02*
X131707000Y-59280617D01*
X139927000Y-59280617D02*
X139927000Y-67500617D01*
X139927000Y-67500617D02*
X132707000Y-67500617D01*
X131707000Y-67500617D02*
X131707000Y-68000617D01*
X131207000Y-67500617D01*
X131707000Y-67500617D01*
G36*
X131707000Y-68000617D02*
G01*
X131207000Y-67500617D01*
X131707000Y-67500617D01*
X131707000Y-68000617D01*
G37*
%TO.C,U6*%
X136567000Y-50730617D02*
X136567000Y-47730617D01*
X139567000Y-47730617D02*
X139567000Y-50730617D01*
X136597000Y-50730617D02*
G75*
G02*
X136537000Y-50730617I-30000J0D01*
G01*
X136537000Y-50730617D02*
G75*
G02*
X136597000Y-50730617I30000J0D01*
G01*
X136767000Y-51180617D02*
G75*
G02*
X136567000Y-51180617I-100000J0D01*
G01*
X136567000Y-51180617D02*
G75*
G02*
X136767000Y-51180617I100000J0D01*
G01*
%TO.C,C42*%
D11*
X136767002Y-78622781D02*
X136767002Y-78838453D01*
X137487002Y-78622781D02*
X137487002Y-78838453D01*
%TO.C,R43*%
X143177000Y-81056976D02*
X143177000Y-81364258D01*
X143937000Y-81056976D02*
X143937000Y-81364258D01*
%TO.C,C29*%
D14*
X145107164Y-67860617D02*
X145322836Y-67860617D01*
X145107164Y-68580617D02*
X145322836Y-68580617D01*
%TO.C,R46*%
D11*
X132526509Y-71745618D02*
X132833791Y-71745618D01*
X132526509Y-72505618D02*
X132833791Y-72505618D01*
%TO.C,C33*%
D14*
X146230000Y-68783453D02*
X146230000Y-68567781D01*
X146950000Y-68783453D02*
X146950000Y-68567781D01*
%TO.C,C28*%
X136970150Y-74908453D02*
X136970150Y-74692781D01*
X137690150Y-74908453D02*
X137690150Y-74692781D01*
%TO.C,C36*%
X146920000Y-57968453D02*
X146920000Y-57752781D01*
X147640000Y-57968453D02*
X147640000Y-57752781D01*
%TO.C,CN1*%
D16*
X147517000Y-80745617D02*
X147557000Y-80745616D01*
X147517000Y-81175617D02*
X147517000Y-80745617D01*
X147517000Y-82545617D02*
X147517000Y-82115617D01*
X147567000Y-82545618D02*
X147517000Y-82545617D01*
X149377000Y-80745617D02*
X149417000Y-80745617D01*
X149417000Y-80745617D02*
X149477000Y-80745616D01*
X149477000Y-80745616D02*
X149477000Y-81225617D01*
X149477000Y-82065617D02*
X149477000Y-82545618D01*
X149477000Y-82545618D02*
X149466999Y-82545617D01*
D12*
X147057000Y-81615617D02*
G75*
G02*
X146857000Y-81615617I-100000J0D01*
G01*
X146857000Y-81615617D02*
G75*
G02*
X147057000Y-81615617I100000J0D01*
G01*
D15*
X147547000Y-82645617D02*
G75*
G02*
X147487000Y-82645617I-30000J0D01*
G01*
X147487000Y-82645617D02*
G75*
G02*
X147547000Y-82645617I30000J0D01*
G01*
%TO.C,C3*%
D14*
X136050000Y-69947781D02*
X136050000Y-70163453D01*
X136770000Y-69947781D02*
X136770000Y-70163453D01*
%TO.C,C7*%
D11*
X141612164Y-66880617D02*
X141827836Y-66880617D01*
X141612164Y-67600617D02*
X141827836Y-67600617D01*
%TO.C,C23*%
D14*
X141437000Y-49058453D02*
X141437000Y-48842781D01*
X142157000Y-49058453D02*
X142157000Y-48842781D01*
%TO.C,C30*%
X136982836Y-73055617D02*
X136767164Y-73055617D01*
X136982836Y-73775617D02*
X136767164Y-73775617D01*
%TO.C,D3*%
X135196999Y-83198117D02*
G75*
G02*
X135097001Y-83198117I-49999J0D01*
G01*
X135097001Y-83198117D02*
G75*
G02*
X135196999Y-83198117I49999J0D01*
G01*
%TO.C,JP1*%
X138135000Y-46375617D02*
G75*
G02*
X138135000Y-45315617I0J530000D01*
G01*
X138505000Y-45315617D02*
G75*
G02*
X138505000Y-46375617I0J-530000D01*
G01*
%TO.C,C39*%
X133695150Y-50558454D02*
X133695150Y-50342782D01*
X134415150Y-50558454D02*
X134415150Y-50342782D01*
%TO.C,R14*%
D11*
X129637000Y-80629258D02*
X129637000Y-80321976D01*
X130397000Y-80629258D02*
X130397000Y-80321976D01*
%TO.C,Y2*%
X142037000Y-56475618D02*
X142037000Y-57085617D01*
X142037000Y-57085617D02*
X142747000Y-57085617D01*
%TO.C,C40*%
D14*
X132760150Y-50553454D02*
X132760150Y-50337782D01*
X133480150Y-50553454D02*
X133480150Y-50337782D01*
%TD*%
M02*
