%TF.GenerationSoftware,KiCad,Pcbnew,10.0.3*%
%TF.CreationDate,2026-09-06T18:49:29+02:00*%
%TF.ProjectId,LEVIA_H7_M2,4c455649-415f-4483-975f-4d322e6b6963,0.1*%
%TF.SameCoordinates,Original*%
%TF.FileFunction,Paste,Top*%
%TF.FilePolarity,Positive*%
%FSLAX46Y46*%
G04 Gerber Fmt 4.6, Leading zero omitted, Abs format (unit mm)*
G04 Created by KiCad (PCBNEW 10.0.3) date 2026-09-06 18:49:29*
%MOMM*%
%LPD*%
G01*
G04 APERTURE LIST*
G04 Aperture macros list*
%AMRoundRect*
0 Rectangle with rounded corners*
0 $1 Rounding radius*
0 $2 $3 $4 $5 $6 $7 $8 $9 X,Y pos of 4 corners*
0 Add a 4 corners polygon primitive as box body*
4,1,4,$2,$3,$4,$5,$6,$7,$8,$9,$2,$3,0*
0 Add four circle primitives for the rounded corners*
1,1,$1+$1,$2,$3*
1,1,$1+$1,$4,$5*
1,1,$1+$1,$6,$7*
1,1,$1+$1,$8,$9*
0 Add four rect primitives between the rounded corners*
20,1,$1+$1,$2,$3,$4,$5,0*
20,1,$1+$1,$4,$5,$6,$7,0*
20,1,$1+$1,$6,$7,$8,$9,0*
20,1,$1+$1,$8,$9,$2,$3,0*%
%AMFreePoly0*
4,1,42,-0.233531,0.434667,-0.125000,0.389711,-0.031802,0.318198,0.039711,0.225000,0.084667,0.116469,0.097130,0.021799,0.098079,0.019509,0.098079,0.016997,0.098769,0.015643,0.098316,0.012786,0.100000,0.000000,0.098079,-0.014591,0.098079,-0.019509,0.097130,-0.021799,0.084667,-0.116469,0.039711,-0.225000,-0.031802,-0.318198,-0.125000,-0.389711,-0.233531,-0.434667,-0.332164,-0.447652,
-0.334357,-0.448769,-0.337213,-0.448316,-0.350000,-0.450000,-0.383850,-0.440930,-0.395399,-0.439101,-0.397127,-0.437372,-0.400000,-0.436603,-0.436603,-0.400000,-0.437372,-0.397127,-0.439101,-0.395399,-0.450000,-0.350000,-0.450000,0.350000,-0.436603,0.400000,-0.432383,0.404219,-0.430902,0.408779,-0.419646,0.416956,-0.400000,0.436603,-0.388285,0.439741,-0.380902,0.445106,-0.368265,0.445106,
-0.350000,0.450000,-0.233531,0.434667,-0.233531,0.434667,$1*%
G04 Aperture macros list end*
%ADD10RoundRect,0.140000X0.170000X-0.140000X0.170000X0.140000X-0.170000X0.140000X-0.170000X-0.140000X0*%
%ADD11RoundRect,0.140000X-0.170000X0.140000X-0.170000X-0.140000X0.170000X-0.140000X0.170000X0.140000X0*%
%ADD12RoundRect,0.140000X-0.140000X-0.170000X0.140000X-0.170000X0.140000X0.170000X-0.140000X0.170000X0*%
%ADD13RoundRect,0.135000X-0.185000X0.135000X-0.185000X-0.135000X0.185000X-0.135000X0.185000X0.135000X0*%
%ADD14RoundRect,0.135000X0.185000X-0.135000X0.185000X0.135000X-0.185000X0.135000X-0.185000X-0.135000X0*%
%ADD15R,0.600000X1.400000*%
%ADD16RoundRect,0.135000X-0.135000X-0.185000X0.135000X-0.185000X0.135000X0.185000X-0.135000X0.185000X0*%
%ADD17RoundRect,0.147500X-0.172500X0.147500X-0.172500X-0.147500X0.172500X-0.147500X0.172500X0.147500X0*%
%ADD18RoundRect,0.225000X0.225000X0.250000X-0.225000X0.250000X-0.225000X-0.250000X0.225000X-0.250000X0*%
%ADD19RoundRect,0.135000X0.135000X0.185000X-0.135000X0.185000X-0.135000X-0.185000X0.135000X-0.185000X0*%
%ADD20R,0.364000X0.800000*%
%ADD21R,2.800000X1.500000*%
%ADD22RoundRect,0.175000X-0.175000X0.525000X-0.175000X-0.525000X0.175000X-0.525000X0.175000X0.525000X0*%
%ADD23RoundRect,0.250000X0.450000X-1.625000X0.450000X1.625000X-0.450000X1.625000X-0.450000X-1.625000X0*%
%ADD24RoundRect,0.277778X0.622222X-0.472222X0.622222X0.472222X-0.622222X0.472222X-0.622222X-0.472222X0*%
%ADD25RoundRect,0.140000X0.140000X0.170000X-0.140000X0.170000X-0.140000X-0.170000X0.140000X-0.170000X0*%
%ADD26RoundRect,0.175000X-0.725000X-0.175000X0.725000X-0.175000X0.725000X0.175000X-0.725000X0.175000X0*%
%ADD27RoundRect,0.200000X-0.700000X-0.200000X0.700000X-0.200000X0.700000X0.200000X-0.700000X0.200000X0*%
%ADD28RoundRect,0.162500X-0.162500X0.237500X-0.162500X-0.237500X0.162500X-0.237500X0.162500X0.237500X0*%
%ADD29R,0.500000X0.700000*%
%ADD30C,0.400002*%
%ADD31R,0.356000X0.711000*%
%ADD32R,2.400000X1.600000*%
%ADD33RoundRect,0.147500X-0.147500X-0.172500X0.147500X-0.172500X0.147500X0.172500X-0.147500X0.172500X0*%
%ADD34R,0.550000X0.600000*%
%ADD35R,1.580000X0.580000*%
%ADD36R,0.500000X0.500000*%
%ADD37RoundRect,0.147500X0.172500X-0.147500X0.172500X0.147500X-0.172500X0.147500X-0.172500X-0.147500X0*%
%ADD38FreePoly0,0.000000*%
%ADD39FreePoly0,180.000000*%
%ADD40RoundRect,0.200000X-0.250000X-0.200000X0.250000X-0.200000X0.250000X0.200000X-0.250000X0.200000X0*%
G04 APERTURE END LIST*
D10*
%TO.C,C44*%
X144512000Y-81685617D03*
X144512000Y-80725617D03*
%TD*%
%TO.C,C6*%
X142205000Y-69085617D03*
X142205000Y-68125617D03*
%TD*%
D11*
%TO.C,C38*%
X149380150Y-58455618D03*
X149380150Y-59415618D03*
%TD*%
D12*
%TO.C,C31*%
X144745000Y-69135617D03*
X145705000Y-69135617D03*
%TD*%
D13*
%TO.C,R30*%
X130350150Y-60485619D03*
X130350150Y-61505617D03*
%TD*%
D11*
%TO.C,C26*%
X140056387Y-48005617D03*
X140056387Y-48965617D03*
%TD*%
D10*
%TO.C,C25*%
X144057000Y-49425617D03*
X144057000Y-48465617D03*
%TD*%
D14*
%TO.C,R26*%
X135775000Y-75440616D03*
X135775000Y-74420618D03*
%TD*%
D15*
%TO.C,Y1*%
X133015000Y-70055617D03*
X134215000Y-70055617D03*
X135415000Y-70055617D03*
%TD*%
D14*
%TO.C,R12*%
X133172000Y-80985616D03*
X133172000Y-79965618D03*
%TD*%
D16*
%TO.C,R18*%
X129705151Y-46600618D03*
X130725149Y-46600618D03*
%TD*%
%TO.C,R23*%
X136560001Y-45805617D03*
X137579999Y-45805617D03*
%TD*%
D17*
%TO.C,FB1*%
X141280000Y-68140617D03*
X141280000Y-69110617D03*
%TD*%
D11*
%TO.C,C41*%
X138087000Y-78250617D03*
X138087000Y-79210617D03*
%TD*%
D16*
%TO.C,R21*%
X141052001Y-47575617D03*
X142071999Y-47575617D03*
%TD*%
D18*
%TO.C,C16*%
X130915000Y-47800617D03*
X129365000Y-47800617D03*
%TD*%
D19*
%TO.C,R22*%
X144096999Y-47565617D03*
X143077001Y-47565617D03*
%TD*%
D16*
%TO.C,R7*%
X129059856Y-75045617D03*
X130079854Y-75045617D03*
%TD*%
D20*
%TO.C,U5*%
X142091383Y-53650617D03*
X142741383Y-53650617D03*
X143391383Y-53650617D03*
X144041383Y-53650617D03*
X144691383Y-53650617D03*
X145341383Y-53650617D03*
X145991383Y-53650617D03*
X146641383Y-53650617D03*
X146641383Y-50490617D03*
X145991383Y-50490617D03*
X145341383Y-50490617D03*
X144691383Y-50490617D03*
X144041383Y-50490617D03*
X143391383Y-50490617D03*
X142741383Y-50490617D03*
X142091383Y-50490617D03*
D21*
X143191383Y-52070617D03*
X146191382Y-52070617D03*
%TD*%
D14*
%TO.C,R13*%
X131567000Y-80985616D03*
X131567000Y-79965618D03*
%TD*%
D22*
%TO.C,J1*%
X131144500Y-55880004D03*
X132244500Y-55880004D03*
X133334500Y-55880004D03*
X134434500Y-55880004D03*
X135544500Y-55880004D03*
X136644500Y-55880004D03*
X137734500Y-55880004D03*
X138844500Y-55880004D03*
D23*
X140334500Y-53380004D03*
D24*
X129694500Y-54000004D03*
%TD*%
D25*
%TO.C,C43*%
X138127000Y-77275618D03*
X137167000Y-77275618D03*
%TD*%
D10*
%TO.C,C24*%
X142732000Y-49430617D03*
X142732000Y-48470617D03*
%TD*%
D13*
%TO.C,R44*%
X135147000Y-79745618D03*
X135147000Y-80765616D03*
%TD*%
D26*
%TO.C,U11*%
X139707000Y-70525617D03*
D27*
X139707000Y-71625617D03*
X139707000Y-72725617D03*
X139707000Y-73825617D03*
X139707000Y-74925617D03*
X139707000Y-76025617D03*
X139707000Y-77125617D03*
X139707000Y-78225617D03*
D26*
X139707000Y-79325617D03*
X149207000Y-79325617D03*
D27*
X149207000Y-78225617D03*
X149207000Y-77125617D03*
X149207000Y-76025617D03*
X149207000Y-74925617D03*
X149207000Y-73825617D03*
X149207000Y-72725617D03*
X149207000Y-71625617D03*
D26*
X149207000Y-70525617D03*
%TD*%
D28*
%TO.C,SW1*%
X130767000Y-75990617D03*
X130767000Y-78990617D03*
X128967000Y-75990617D03*
X128967000Y-78990617D03*
%TD*%
D29*
%TO.C,LED1*%
X129252000Y-82000617D03*
X130012000Y-82000617D03*
X130762000Y-82000617D03*
X131562000Y-82000617D03*
X132412000Y-82000617D03*
X133172000Y-82000617D03*
%TD*%
D30*
%TO.C,U1*%
X132217000Y-66990617D03*
X132217001Y-66190617D03*
X132217000Y-65390617D03*
X132217000Y-64590618D03*
X132217000Y-63790617D03*
X132217000Y-62990617D03*
X132217000Y-62190616D03*
X132217000Y-61390617D03*
X132217001Y-60590617D03*
X132217000Y-59790617D03*
X133017000Y-66990616D03*
X133017000Y-66190617D03*
X133017000Y-65390618D03*
X133017000Y-64590617D03*
X133017000Y-63790617D03*
X133017000Y-62990617D03*
X133017000Y-62190617D03*
X133017000Y-61390616D03*
X133017000Y-60590617D03*
X133017000Y-59790618D03*
X133817000Y-66990617D03*
X133816999Y-66190617D03*
X133817000Y-65390617D03*
X133817000Y-64590618D03*
X133817000Y-63790617D03*
X133817000Y-62990617D03*
X133817000Y-62190616D03*
X133817000Y-61390617D03*
X133816999Y-60590617D03*
X133817000Y-59790617D03*
X134616999Y-66990617D03*
X134617000Y-66190617D03*
X134616999Y-65390617D03*
X134617000Y-64590617D03*
X134617000Y-63790617D03*
X134617000Y-62990617D03*
X134617000Y-62190617D03*
X134616999Y-61390617D03*
X134617000Y-60590617D03*
X134616999Y-59790617D03*
X135417000Y-66990617D03*
X135417000Y-66190617D03*
X135417000Y-65390617D03*
X135417000Y-64590617D03*
X135417000Y-63790617D03*
X135417000Y-62990617D03*
X135417000Y-62190617D03*
X135417000Y-61390617D03*
X135417000Y-60590617D03*
X135417000Y-59790617D03*
X136217000Y-66990617D03*
X136217000Y-66190617D03*
X136217000Y-65390617D03*
X136217000Y-64590617D03*
X136217000Y-63790617D03*
X136217000Y-62990617D03*
X136217000Y-62190617D03*
X136217000Y-61390617D03*
X136217000Y-60590617D03*
X136217000Y-59790617D03*
X137017001Y-66990617D03*
X137017000Y-66190617D03*
X137017001Y-65390617D03*
X137017000Y-64590617D03*
X137017000Y-63790617D03*
X137017000Y-62990617D03*
X137017000Y-62190617D03*
X137017001Y-61390617D03*
X137017000Y-60590617D03*
X137017001Y-59790617D03*
X137817000Y-66990617D03*
X137817001Y-66190617D03*
X137817000Y-65390617D03*
X137817000Y-64590618D03*
X137817000Y-63790617D03*
X137817000Y-62990617D03*
X137817000Y-62190616D03*
X137817000Y-61390617D03*
X137817001Y-60590617D03*
X137817000Y-59790617D03*
X138617000Y-66990616D03*
X138617000Y-66190617D03*
X138617000Y-65390618D03*
X138617000Y-64590617D03*
X138617000Y-63790617D03*
X138617000Y-62990617D03*
X138617000Y-62190617D03*
X138617000Y-61390616D03*
X138617000Y-60590617D03*
X138617000Y-59790618D03*
X139417000Y-66990617D03*
X139416999Y-66190617D03*
X139417000Y-65390617D03*
X139417000Y-64590618D03*
X139417000Y-63790617D03*
X139417000Y-62990617D03*
X139417000Y-62190616D03*
X139417000Y-61390617D03*
X139416999Y-60590617D03*
X139417000Y-59790617D03*
%TD*%
D31*
%TO.C,U6*%
X137087000Y-50660617D03*
X137747000Y-50660617D03*
X138397000Y-50660617D03*
X139047000Y-50660617D03*
X139047000Y-47800617D03*
X138397000Y-47800617D03*
X137747000Y-47800617D03*
X137087000Y-47800617D03*
D32*
X138067000Y-49230617D03*
%TD*%
D33*
%TO.C,L1*%
X145427000Y-81650617D03*
X146397000Y-81650617D03*
%TD*%
D11*
%TO.C,C42*%
X137127002Y-78250617D03*
X137127002Y-79210617D03*
%TD*%
D13*
%TO.C,R43*%
X143557000Y-80700618D03*
X143557000Y-81720616D03*
%TD*%
D12*
%TO.C,C29*%
X144735000Y-68220617D03*
X145695000Y-68220617D03*
%TD*%
D16*
%TO.C,R46*%
X132170151Y-72125618D03*
X133190149Y-72125618D03*
%TD*%
D10*
%TO.C,C33*%
X146590000Y-69155617D03*
X146590000Y-68195617D03*
%TD*%
%TO.C,C28*%
X137330150Y-75280617D03*
X137330150Y-74320617D03*
%TD*%
%TO.C,C36*%
X147280000Y-58340617D03*
X147280000Y-57380617D03*
%TD*%
D34*
%TO.C,CN1*%
X147537000Y-81645617D03*
D35*
X148516999Y-82605617D03*
D36*
X149517000Y-81645617D03*
D35*
X148516999Y-80685617D03*
%TD*%
D11*
%TO.C,C3*%
X136410000Y-69575617D03*
X136410000Y-70535617D03*
%TD*%
D12*
%TO.C,C7*%
X141240000Y-67240617D03*
X142200000Y-67240617D03*
%TD*%
D10*
%TO.C,C23*%
X141797000Y-49430617D03*
X141797000Y-48470617D03*
%TD*%
D25*
%TO.C,C30*%
X137355000Y-73415617D03*
X136395000Y-73415617D03*
%TD*%
D37*
%TO.C,D3*%
X135147000Y-82593118D03*
X135147000Y-81623118D03*
%TD*%
D38*
%TO.C,JP1*%
X138855000Y-45845617D03*
D39*
X137775000Y-45845617D03*
%TD*%
D10*
%TO.C,C39*%
X134055150Y-50930618D03*
X134055150Y-49970618D03*
%TD*%
D14*
%TO.C,R14*%
X130017000Y-80985616D03*
X130017000Y-79965618D03*
%TD*%
D40*
%TO.C,Y2*%
X142747000Y-56425617D03*
X144147000Y-56425617D03*
X144147000Y-55325617D03*
X142747000Y-55325617D03*
%TD*%
D10*
%TO.C,C40*%
X133120150Y-50925618D03*
X133120150Y-49965618D03*
%TD*%
M02*
